<svg width="130" height="130" viewBox="0 0 130 130" fill="none" xmlns="http://www.w3.org/2000/svg">
<g filter="url(#filter0_bi_150_553)">
<mask id="path-1-inside-1_150_553" fill="white">
<path d="M130 65C130 100.899 100.899 130 65 130C29.1015 130 0 100.899 0 65C0 29.1015 29.1015 0 65 0C100.899 0 130 29.1015 130 65ZM25.8936 65C25.8936 86.5979 43.4021 104.106 65 104.106C86.5979 104.106 104.106 86.5979 104.106 65C104.106 43.4021 86.5979 25.8936 65 25.8936C43.4021 25.8936 25.8936 43.4021 25.8936 65Z"/>
</mask>
<path d="M130 65C130 100.899 100.899 130 65 130C29.1015 130 0 100.899 0 65C0 29.1015 29.1015 0 65 0C100.899 0 130 29.1015 130 65ZM25.8936 65C25.8936 86.5979 43.4021 104.106 65 104.106C86.5979 104.106 104.106 86.5979 104.106 65C104.106 43.4021 86.5979 25.8936 65 25.8936C43.4021 25.8936 25.8936 43.4021 25.8936 65Z" fill="#F1F1F1" fill-opacity="0.1"/>
<path d="M130 65C130 100.899 100.899 130 65 130C29.1015 130 0 100.899 0 65C0 29.1015 29.1015 0 65 0C100.899 0 130 29.1015 130 65ZM25.8936 65C25.8936 86.5979 43.4021 104.106 65 104.106C86.5979 104.106 104.106 86.5979 104.106 65C104.106 43.4021 86.5979 25.8936 65 25.8936C43.4021 25.8936 25.8936 43.4021 25.8936 65Z" fill="url(#paint0_linear_150_553)" fill-opacity="0.2"/>
<path d="M130 65C130 100.899 100.899 130 65 130C29.1015 130 0 100.899 0 65C0 29.1015 29.1015 0 65 0C100.899 0 130 29.1015 130 65ZM25.8936 65C25.8936 86.5979 43.4021 104.106 65 104.106C86.5979 104.106 104.106 86.5979 104.106 65C104.106 43.4021 86.5979 25.8936 65 25.8936C43.4021 25.8936 25.8936 43.4021 25.8936 65Z" stroke="url(#paint1_linear_150_553)" stroke-opacity="0.1" stroke-width="0.6" mask="url(#path-1-inside-1_150_553)"/>
</g>
<path d="M62.3193 121.035C62.3794 121.544 62.6229 121.94 63.0498 122.221C63.4768 122.503 64.0005 122.644 64.6209 122.644C65.0746 122.644 65.4715 122.57 65.8118 122.422C66.1487 122.275 66.4122 122.072 66.6023 121.814C66.7891 121.556 66.8825 121.263 66.8825 120.934C66.8825 120.659 66.8174 120.423 66.6874 120.225C66.5539 120.031 66.3838 119.868 66.177 119.737C65.9702 119.61 65.7534 119.504 65.5266 119.42C65.2997 119.34 65.0913 119.275 64.9011 119.224L63.8604 118.943C63.5935 118.872 63.2967 118.775 62.9698 118.651C62.6396 118.527 62.3243 118.358 62.0241 118.143C61.7206 117.932 61.4704 117.66 61.2736 117.329C61.0768 116.997 60.9784 116.589 60.9784 116.107C60.9784 115.55 61.1235 115.047 61.4137 114.598C61.7006 114.149 62.1209 113.792 62.6746 113.527C63.225 113.262 63.8938 113.13 64.681 113.13C65.4148 113.13 66.0502 113.249 66.5873 113.487C67.121 113.725 67.5413 114.057 67.8482 114.482C68.1517 114.908 68.3235 115.403 68.3635 115.966H67.0826C67.0493 115.577 66.9192 115.255 66.6924 115C66.4622 114.749 66.172 114.561 65.8218 114.437C65.4682 114.316 65.0879 114.256 64.681 114.256C64.2073 114.256 63.782 114.333 63.4051 114.487C63.0282 114.645 62.7296 114.863 62.5095 115.141C62.2893 115.423 62.1792 115.751 62.1792 116.127C62.1792 116.469 62.2743 116.747 62.4644 116.961C62.6546 117.176 62.9047 117.35 63.215 117.484C63.5252 117.619 63.8604 117.736 64.2206 117.836L65.4815 118.199C66.2821 118.43 66.9158 118.76 67.3828 119.189C67.8498 119.618 68.0833 120.18 68.0833 120.874C68.0833 121.45 67.9282 121.953 67.618 122.382C67.3045 122.815 66.8842 123.15 66.3571 123.388C65.8268 123.629 65.2347 123.75 64.5809 123.75C63.9204 123.75 63.3334 123.631 62.8197 123.393C62.306 123.158 61.899 122.836 61.5988 122.427C61.2953 122.019 61.1352 121.554 61.1185 121.035H62.3193Z" fill="url(#paint2_linear_150_553)"/>
<path d="M57.1665 112.556C57.8518 112.665 58.4272 112.925 58.8928 113.335C59.3551 113.745 59.6848 114.267 59.8818 114.903C60.0755 115.538 60.1103 116.249 59.9861 117.037C59.8609 117.832 59.6083 118.503 59.2282 119.05C58.8449 119.596 58.3704 119.993 57.8048 120.239C57.2359 120.484 56.6088 120.552 55.9236 120.443C55.2383 120.334 54.6645 120.075 54.2022 119.665C53.7366 119.255 53.4072 118.731 53.214 118.093C53.0175 117.454 52.9818 116.737 53.1071 115.942C53.2313 115.154 53.4847 114.489 53.8676 113.945C54.2471 113.402 54.7213 113.007 55.2902 112.762C55.8558 112.516 56.4812 112.447 57.1665 112.556ZM57.0006 113.609C56.48 113.526 56.0306 113.592 55.6523 113.807C55.274 114.022 54.9697 114.335 54.7393 114.746C54.509 115.157 54.3537 115.618 54.2733 116.128C54.193 116.638 54.1988 117.126 54.2909 117.592C54.3829 118.058 54.5755 118.454 54.8688 118.779C55.162 119.104 55.5689 119.308 56.0895 119.39C56.61 119.473 57.0597 119.406 57.4386 119.188C57.8174 118.97 58.1222 118.653 58.3531 118.239C58.5839 117.824 58.7395 117.362 58.8199 116.852C58.9002 116.342 58.8941 115.855 58.8016 115.393C58.709 114.93 58.5158 114.538 58.2221 114.216C57.9283 113.894 57.5211 113.692 57.0006 113.609Z" fill="url(#paint3_linear_150_553)"/>
<path d="M47.0835 113.378L45.6796 117.72L44.5565 117.353L46.9314 110.008L48.0545 110.374L47.6525 111.618L47.7286 111.643C48.0205 111.326 48.3895 111.095 48.8357 110.952C49.2809 110.812 49.7794 110.832 50.3314 111.012C50.7882 111.161 51.1618 111.394 51.4522 111.711C51.7416 112.031 51.9218 112.429 51.9929 112.903C52.0629 113.38 51.9969 113.932 51.7949 114.557L50.2859 119.224L49.1628 118.858L50.6471 114.266C50.8203 113.731 50.8093 113.255 50.6142 112.839C50.4159 112.421 50.0836 112.137 49.6172 111.984C49.3381 111.893 49.031 111.872 48.6959 111.921C48.3576 111.97 48.0422 112.11 47.7497 112.342C47.454 112.573 47.2319 112.919 47.0835 113.378Z" fill="url(#paint4_linear_150_553)"/>
<path d="M42.3743 113.026L44.4732 108.886L45.5253 109.425L42.0363 116.307L41.0198 115.786L41.565 114.711L41.4758 114.665C41.1381 114.933 40.7521 115.088 40.3176 115.133C39.8817 115.181 39.4051 115.072 38.888 114.807C38.4243 114.57 38.0671 114.267 37.8163 113.897C37.564 113.531 37.4389 113.106 37.4411 112.622C37.4417 112.14 37.5904 111.607 37.8872 111.022L40.1043 106.649L41.1564 107.187L38.9757 111.489C38.7016 112.029 38.6278 112.522 38.7542 112.967C38.8791 113.415 39.1853 113.763 39.6727 114.013C40.0085 114.185 40.3458 114.265 40.6845 114.254C41.0203 114.242 41.3351 114.134 41.6291 113.931C41.923 113.728 42.1714 113.426 42.3743 113.026Z" fill="url(#paint5_linear_150_553)"/>
<path d="M36.5731 104.016C37.0913 104.394 37.4536 104.86 37.6601 105.413C37.8647 105.968 37.9044 106.569 37.7794 107.215C37.6524 107.864 37.3498 108.52 36.8714 109.182C36.3969 109.838 35.8732 110.326 35.3002 110.645C34.7272 110.964 34.1459 111.109 33.5564 111.081C32.9668 111.052 32.4102 110.847 31.8867 110.465C31.4819 110.169 31.2111 109.868 31.0744 109.561C30.933 109.254 30.862 108.97 30.8614 108.709C30.8561 108.448 30.8576 108.238 30.8659 108.078L30.7849 108.019L28.5615 111.095L27.6062 110.397L33.6293 102.066L34.5522 102.739L33.8582 103.7L33.9715 103.782C34.124 103.72 34.3278 103.649 34.5828 103.57C34.8359 103.493 35.1315 103.475 35.4697 103.515C35.8059 103.557 36.1738 103.725 36.5731 104.016ZM35.8201 104.784C35.4369 104.504 35.0406 104.368 34.631 104.376C34.2195 104.386 33.8155 104.52 33.4191 104.777C33.0207 105.038 32.6509 105.404 32.3098 105.876C31.9725 106.342 31.7449 106.8 31.6269 107.248C31.507 107.699 31.5087 108.119 31.6319 108.507C31.7533 108.898 32.0083 109.236 32.3968 109.519C32.8016 109.815 33.2144 109.957 33.6353 109.945C34.0514 109.934 34.4554 109.8 34.8472 109.543C35.2343 109.287 35.5867 108.94 35.9043 108.5C36.2258 108.055 36.4505 107.602 36.5783 107.14C36.7014 106.679 36.7069 106.244 36.5946 105.834C36.4777 105.426 36.2195 105.076 35.8201 104.784Z" fill="url(#paint6_linear_150_553)"/>
<path d="M24.0478 94.2632C24.285 94.5914 24.4221 94.9492 24.4589 95.3367C24.493 95.7261 24.434 96.1007 24.2818 96.4605C24.1276 96.8176 23.8873 97.1153 23.5607 97.3537C23.2315 97.5941 22.8755 97.7319 22.4926 97.7669C22.1051 97.8013 21.7337 97.7409 21.3785 97.586C21.0205 97.433 20.7229 97.1924 20.4856 96.8643C20.2464 96.5334 20.1107 96.1746 20.0786 95.7879C20.0417 95.4004 20.1004 95.0281 20.2546 94.6711C20.4041 94.3133 20.6435 94.0142 20.9727 93.7738C21.2992 93.5353 21.6562 93.399 22.0437 93.3646C22.4293 93.3276 22.801 93.3856 23.159 93.5386C23.5123 93.6908 23.8086 93.9324 24.0478 94.2632Z" fill="url(#paint7_linear_150_553)"/>
<path d="M10.8517 80.0187C10.388 80.2335 10.0889 80.5885 9.95439 81.0836C9.81984 81.5787 9.84844 82.1228 10.0402 82.7158C10.1803 83.1494 10.3728 83.506 10.6175 83.7857C10.8612 84.0621 11.1346 84.2513 11.4376 84.3533C11.7396 84.452 12.046 84.4507 12.3569 84.3491C12.6171 84.2642 12.8206 84.129 12.9676 83.9435C13.1104 83.7559 13.2117 83.5431 13.2715 83.305C13.3281 83.068 13.361 82.8281 13.3703 82.5854C13.3763 82.3437 13.3737 82.1242 13.3626 81.927L13.3075 80.8452C13.2916 80.5684 13.2919 80.2546 13.3082 79.9038C13.3236 79.5499 13.3864 79.1962 13.4966 78.843C13.6027 78.4876 13.7823 78.1646 14.0356 77.8739C14.2888 77.5832 14.6439 77.3633 15.1007 77.2141C15.6273 77.0422 16.148 77.0255 16.6628 77.164C17.1765 77.2994 17.6443 77.5908 18.066 78.0382C18.4867 78.4825 18.8187 79.0808 19.0619 79.8332C19.2887 80.5346 19.3725 81.1788 19.3132 81.7657C19.2529 82.3493 19.0687 82.8536 18.7606 83.2785C18.4515 83.7002 18.0367 84.0172 17.5161 84.2295L17.1203 83.0052C17.4779 82.8531 17.7423 82.6293 17.9133 82.3338C18.0801 82.0361 18.1681 81.7007 18.1772 81.3276C18.1822 80.9524 18.1218 80.5703 17.996 80.1813C17.8497 79.7286 17.6453 79.3459 17.3829 79.0333C17.1173 78.7217 16.8188 78.5037 16.4875 78.3792C16.153 78.2558 15.8081 78.2521 15.4528 78.3681C15.1292 78.4738 14.8952 78.6507 14.751 78.8987C14.6067 79.1467 14.519 79.4397 14.488 79.7777C14.457 80.1156 14.4495 80.4723 14.4657 80.8477L14.5127 82.1647C14.5412 83.0014 14.4245 83.7092 14.1628 84.2882C13.901 84.8671 13.4418 85.2638 12.7851 85.4783C12.2395 85.6565 11.7157 85.6636 11.2138 85.4997C10.7076 85.3336 10.2605 85.0355 9.87241 84.6053C9.4801 84.1729 9.18293 83.6443 8.9809 83.0194C8.77681 82.3881 8.70801 81.7902 8.77451 81.2257C8.83784 80.6622 9.01664 80.1737 9.3109 79.7604C9.60413 79.3439 9.99403 79.0474 10.4806 78.8709L10.8517 80.0187Z" fill="url(#paint8_linear_150_553)"/>
<path d="M17.2825 72.4735C17.391 73.1623 17.3232 73.7925 17.079 74.3642C16.8342 74.9327 16.4416 75.4093 15.901 75.794C15.36 76.1754 14.6974 76.4285 13.9133 76.5533C13.1226 76.6792 12.4097 76.645 11.7746 76.4508C11.1389 76.2533 10.6173 75.9223 10.2098 75.4577C9.80168 74.9897 9.54337 74.4114 9.43483 73.7227C9.32629 73.034 9.39441 72.4054 9.63917 71.837C9.88341 71.2652 10.2777 70.7884 10.822 70.4065C11.3658 70.0212 12.0331 69.7657 12.8238 69.6398C13.6079 69.515 14.3161 69.5516 14.9485 69.7496C15.5803 69.9443 16.1003 70.2757 16.5084 70.7436C16.9159 71.2082 17.174 71.7848 17.2825 72.4735ZM16.2348 72.6403C16.1524 72.1172 15.9511 71.708 15.631 71.4127C15.311 71.1175 14.9207 70.9233 14.4602 70.8303C13.9998 70.7373 13.5159 70.7312 13.0085 70.8119C12.5011 70.8927 12.0412 71.0491 11.6285 71.281C11.2159 71.513 10.9012 71.8194 10.6842 72.2001C10.4673 72.5809 10.4001 73.0328 10.4825 73.556C10.565 74.0791 10.7679 74.488 11.0912 74.7828C11.4146 75.0775 11.8082 75.2711 12.2719 75.3636C12.7357 75.4561 13.2212 75.462 13.7286 75.3812C14.236 75.3004 14.6943 75.1443 15.1036 74.9129C15.5129 74.6814 15.8244 74.3756 16.038 73.9953C16.2517 73.6151 16.3173 73.1635 16.2348 72.6403Z" fill="url(#paint9_linear_150_553)"/>
<path d="M13.3894 63.0898H8.84626V61.903H16.5316V63.0898H15.2307V63.1702C15.6209 63.3512 15.9528 63.6328 16.2264 64.015C16.4966 64.3972 16.6316 64.8799 16.6316 65.4632C16.6316 65.946 16.5266 66.3751 16.3164 66.7505C16.1029 67.126 15.7827 67.421 15.3558 67.6356C14.9255 67.8501 14.3834 67.9574 13.7296 67.9574H8.84626V66.7706H13.6496C14.21 66.7706 14.6569 66.6131 14.9905 66.298C15.3241 65.9795 15.4909 65.5739 15.4909 65.0811C15.4909 64.786 15.4158 64.486 15.2657 64.1809C15.1156 63.8725 14.8854 63.6144 14.5752 63.4066C14.265 63.1954 13.8697 63.0898 13.3894 63.0898Z" fill="url(#paint10_linear_150_553)"/>
<path d="M12.2671 58.48L16.8334 59.2069L16.6487 60.379L9.05797 59.1707L9.23643 58.0383L10.4225 58.2271L10.4381 58.1278C10.0808 57.8876 9.81395 57.5668 9.63743 57.1654C9.45762 56.7634 9.41311 56.2743 9.50391 55.6982C9.58531 55.1817 9.76196 54.7465 10.0339 54.3927C10.3025 54.0383 10.6662 53.7873 11.1252 53.6398C11.5808 53.4917 12.1315 53.469 12.7772 53.5718L17.6005 54.3396L17.4157 55.5117L12.6715 54.7565C12.0752 54.6616 11.5862 54.7433 11.2044 55.0016C10.8193 55.2593 10.5839 55.6597 10.4984 56.2027C10.4394 56.5769 10.4674 56.9241 10.5824 57.2445C10.6979 57.5616 10.8972 57.8292 11.1803 58.0474C11.4634 58.2655 11.8256 58.4097 12.2671 58.48Z" fill="url(#paint11_linear_150_553)"/>
<path d="M19.0005 50.1509C18.8026 50.7631 18.474 51.2533 18.0147 51.6214C17.5523 51.9886 16.996 52.2123 16.3458 52.2925C15.6923 52.3717 14.9786 52.2849 14.2045 52.0322C13.4368 51.7815 12.8134 51.4316 12.3343 50.9826C11.8551 50.5336 11.538 50.0229 11.3828 49.4505C11.2277 48.8782 11.2501 48.2827 11.45 47.6642C11.6046 47.186 11.8061 46.8341 12.0544 46.6085C12.3006 46.3787 12.5473 46.2231 12.7945 46.1417C13.0397 46.056 13.2391 45.9925 13.3928 45.951L13.4237 45.8554L9.82622 44.6806L10.1911 43.552L19.9367 46.7344L19.5842 47.8248L18.4611 47.4581L18.4178 47.592C18.5243 47.7184 18.6543 47.8912 18.8078 48.1106C18.9582 48.3289 19.0669 48.6058 19.1337 48.9414C19.1974 49.2759 19.153 49.6791 19.0005 50.1509ZM18.0411 49.6685C18.1875 49.2157 18.1938 48.7948 18.0601 48.4057C17.9232 48.0156 17.6716 47.6708 17.3054 47.3715C16.9361 47.0711 16.4754 46.8308 15.9234 46.6505C15.3777 46.4723 14.8745 46.3961 14.4137 46.4219C13.9498 46.4466 13.5531 46.578 13.2237 46.8158C12.8911 47.0526 12.6506 47.4006 12.5021 47.8597C12.3475 48.338 12.3408 48.7764 12.482 49.175C12.6211 49.5694 12.8726 49.9141 13.2367 50.2092C13.5986 50.5001 14.0365 50.7295 14.5504 50.8973C15.0707 51.0672 15.5691 51.1418 16.0458 51.1212C16.5203 51.0964 16.9338 50.9671 17.2865 50.7333C17.637 50.4953 17.8886 50.1403 18.0411 49.6685Z" fill="url(#paint12_linear_150_553)"/>
<path d="M24.3592 35.1651C24.122 35.4933 23.8257 35.7349 23.4704 35.8898C23.1125 36.0428 22.7397 36.1021 22.3522 36.0678C21.9667 36.0308 21.6106 35.893 21.2841 35.6546C20.9549 35.4142 20.7145 35.1165 20.5631 34.7614C20.4108 34.4016 20.3531 34.028 20.39 33.6405C20.4241 33.2511 20.5598 32.8923 20.7971 32.5641C21.0363 32.2332 21.3339 31.9927 21.6899 31.8424C22.0452 31.6874 22.4156 31.6285 22.8011 31.6655C23.1859 31.6979 23.5429 31.8342 23.8722 32.0746C24.1987 32.3131 24.4381 32.6122 24.5903 32.9719C24.7445 33.329 24.8045 33.7022 24.7703 34.0917C24.7355 34.4764 24.5984 34.8343 24.3592 35.1651Z" fill="url(#paint13_linear_150_553)"/>
<path d="M33.7613 18.1501C33.4147 17.7734 32.9863 17.5972 32.4762 17.6216C31.9661 17.646 31.4601 17.8414 30.9581 18.2079C30.5911 18.4759 30.3131 18.7701 30.1242 19.0904C29.9379 19.4087 29.8433 19.7285 29.8404 20.0496C29.8403 20.3688 29.9363 20.6613 30.1284 20.9271C30.2892 21.1495 30.48 21.3023 30.701 21.3854C30.9226 21.4639 31.1554 21.495 31.3991 21.4786C31.6409 21.4595 31.8781 21.4168 32.1106 21.3506C32.3412 21.2817 32.5481 21.2114 32.7313 21.1398L33.738 20.7528C33.995 20.6522 34.2921 20.5554 34.6291 20.4627C34.9688 20.368 35.3228 20.3187 35.6912 20.3149C36.0603 20.3065 36.4215 20.3784 36.7748 20.5306C37.1281 20.6829 37.4459 20.9543 37.7283 21.3448C38.0537 21.795 38.2304 22.2876 38.2584 22.8224C38.289 23.3553 38.1578 23.8924 37.8647 24.4338C37.5744 24.9731 37.1107 25.4754 36.4739 25.9404C35.8802 26.3739 35.2965 26.653 34.7228 26.7777C34.1518 26.9004 33.6177 26.8802 33.1204 26.717C32.6259 26.5519 32.1977 26.2533 31.8359 25.8213L32.8722 25.0647C33.1266 25.3596 33.4201 25.5431 33.7526 25.6152C34.0858 25.6827 34.4304 25.6631 34.7863 25.5566C35.1429 25.4453 35.4859 25.2695 35.8151 25.0291C36.1983 24.7493 36.4973 24.4357 36.712 24.0883C36.9248 23.7381 37.0389 23.3855 37.0543 23.0303C37.0677 22.6725 36.9646 22.3417 36.745 22.0379C36.545 21.7613 36.3054 21.5923 36.0261 21.5311C35.7468 21.4698 35.4424 21.4766 35.113 21.5513C34.7836 21.6261 34.4438 21.7292 34.0935 21.8607L32.8617 22.3126C32.0788 22.5984 31.3729 22.7056 30.7442 22.6343C30.1154 22.563 29.5981 22.2467 29.1922 21.6853C28.855 21.2188 28.6864 20.7204 28.6864 20.1899C28.6871 19.6549 28.8311 19.1354 29.1183 18.6315C29.4062 18.1229 29.8146 17.6755 30.3435 17.2893C30.8778 16.8991 31.4224 16.6486 31.9772 16.5377C32.53 16.4241 33.0475 16.4441 33.5295 16.5976C34.0143 16.7492 34.4154 17.0302 34.7328 17.4408L33.7613 18.1501Z" fill="url(#paint14_linear_150_553)"/>
<path d="M42.8886 21.9653C42.2704 22.2819 41.6531 22.4118 41.0365 22.355C40.4229 22.2967 39.8506 22.0687 39.3195 21.671C38.7914 21.2717 38.3471 20.7166 37.9867 20.0057C37.6233 19.2888 37.4353 18.5969 37.4228 17.9298C37.4133 17.2612 37.5654 16.6603 37.8791 16.1272C38.1958 15.5925 38.6632 15.1669 39.2814 14.8504C39.8996 14.5338 40.5155 14.4047 41.1291 14.4629C41.7456 14.5197 42.3187 14.7492 42.8483 15.1515C43.3809 15.5522 43.829 16.111 44.1924 16.8279C44.5528 17.5388 44.737 18.227 44.7451 18.8927C44.756 19.5567 44.6032 20.1561 44.2865 20.6908C43.9728 21.2239 43.5068 21.6488 42.8886 21.9653ZM42.407 21.0155C42.8766 20.775 43.2017 20.4562 43.3822 20.059C43.5627 19.6618 43.6258 19.2288 43.5715 18.7599C43.5172 18.2911 43.3735 17.8267 43.1403 17.3667C42.9071 16.9067 42.617 16.5153 42.2699 16.1926C41.9229 15.8699 41.5357 15.6637 41.1084 15.5741C40.681 15.4844 40.2326 15.5597 39.763 15.8002C39.2934 16.0407 38.9691 16.361 38.7901 16.7612C38.6112 17.1613 38.5496 17.5973 38.6053 18.0692C38.6611 18.541 38.8056 19.0069 39.0388 19.4669C39.272 19.9269 39.5614 20.3168 39.9069 20.6365C40.2525 20.9562 40.6381 21.1594 41.0639 21.2461C41.4898 21.3328 41.9375 21.2559 42.407 21.0155Z" fill="url(#paint15_linear_150_553)"/>
<path d="M50.5656 15.3445L49.1616 11.002L50.2847 10.6353L52.6596 17.9811L51.5365 18.3478L51.1345 17.1044L51.0584 17.1293C51.0077 17.5582 50.8438 17.9625 50.5666 18.342C50.2885 18.7184 49.8734 18.9967 49.3214 19.1769C48.8646 19.3261 48.4261 19.3583 48.0058 19.2734C47.5845 19.1854 47.2064 18.9705 46.8714 18.6287C46.5354 18.2837 46.2664 17.7988 46.0644 17.1739L44.5553 12.5062L45.6784 12.1395L47.1627 16.7306C47.3358 17.2663 47.6231 17.6448 48.0244 17.8662C48.4288 18.0867 48.8642 18.1207 49.3305 17.9684C49.6097 17.8773 49.8705 17.7128 50.1128 17.4751C50.3582 17.2363 50.5314 16.9365 50.6322 16.5758C50.7362 16.214 50.714 15.8036 50.5656 15.3445Z" fill="url(#paint16_linear_150_553)"/>
<path d="M54.5811 12.8472L55.3043 17.4364L54.138 17.622L52.9358 9.99332L54.0625 9.81396L54.2504 11.006L54.3492 10.9902C54.466 10.5745 54.6872 10.2203 55.0125 9.92749C55.3373 9.6314 55.7864 9.43773 56.3596 9.34649C56.8736 9.26468 57.34 9.29905 57.7589 9.4496C58.1772 9.59684 58.5271 9.86698 58.8086 10.26C59.0895 10.6498 59.2811 11.1691 59.3834 11.8181L60.1473 16.6655L58.981 16.8511L58.2296 12.0832C58.1352 11.4839 57.9068 11.0417 57.5444 10.7565C57.1815 10.4681 56.7298 10.3669 56.1895 10.4529C55.8172 10.5122 55.4973 10.6462 55.2296 10.8552C54.9653 11.0636 54.7736 11.3367 54.6546 11.6747C54.5357 12.0127 54.5111 12.4036 54.5811 12.8472Z" fill="url(#paint17_linear_150_553)"/>
<path d="M64.5437 16.7093C63.9033 16.7093 63.3379 16.5468 62.8475 16.2216C62.3572 15.893 61.9736 15.4304 61.6967 14.8337C61.4199 14.2336 61.2815 13.5246 61.2815 12.7066C61.2815 11.8954 61.4199 11.1914 61.6967 10.5947C61.9736 9.99793 62.3589 9.53698 62.8525 9.2118C63.3462 8.88663 63.9166 8.72404 64.5637 8.72404C65.0641 8.72404 65.4594 8.80785 65.7496 8.97546C66.0431 9.13973 66.2666 9.32746 66.42 9.53866C66.5768 9.74651 66.6985 9.91748 66.7853 10.0516H66.8853V6.25H68.0662V16.5484H66.9254V15.3617H66.7853C66.6985 15.5025 66.5751 15.6802 66.415 15.8947C66.2549 16.1059 66.0264 16.2953 65.7295 16.4629C65.4327 16.6272 65.0374 16.7093 64.5437 16.7093ZM64.7038 15.6433C65.1775 15.6433 65.5778 15.5193 65.9047 15.2712C66.2316 15.0198 66.4801 14.6728 66.6502 14.2303C66.8203 13.7844 66.9054 13.2698 66.9054 12.6865C66.9054 12.1099 66.822 11.6054 66.6552 11.1729C66.4884 10.7371 66.2416 10.3985 65.9147 10.1572C65.5878 9.91245 65.1842 9.79009 64.7038 9.79009C64.2035 9.79009 63.7865 9.91915 63.453 10.1773C63.1227 10.4321 62.8742 10.779 62.7074 11.2182C62.544 11.654 62.4623 12.1434 62.4623 12.6865C62.4623 13.2363 62.5457 13.7358 62.7124 14.185C62.8826 14.6309 63.1327 14.9862 63.463 15.2511C63.7965 15.5126 64.2102 15.6433 64.7038 15.6433Z" fill="url(#paint18_linear_150_553)"/>
<path d="M80.3809 17.2005C79.9971 17.0751 79.6769 16.8666 79.4205 16.5749C79.1651 16.28 78.9938 15.9421 78.9065 15.5611C78.8224 15.1811 78.8428 14.7983 78.9675 14.4125C79.0932 14.0235 79.3007 13.7018 79.5899 13.4473C79.8834 13.1906 80.2191 13.02 80.5972 12.9355C80.9762 12.8478 81.3577 12.8666 81.7416 12.9919C82.1286 13.1183 82.4482 13.3284 82.7004 13.6223C82.9569 13.914 83.1271 14.2498 83.2112 14.6298C83.2995 15.0076 83.2808 15.3909 83.155 15.7799C83.0303 16.1657 82.8212 16.4869 82.5278 16.7436C82.2376 17.0013 81.9029 17.174 81.5238 17.2617C81.1489 17.3473 80.768 17.3268 80.3809 17.2005Z" fill="url(#paint19_linear_150_553)"/>
<path d="M99.3879 20.9293C99.6373 20.4815 99.6717 20.0177 99.491 19.5376C99.3103 19.0576 98.9689 18.6343 98.467 18.2678C98.1 17.9998 97.7357 17.825 97.3742 17.7434C97.0154 17.6637 96.6835 17.6721 96.3788 17.7686C96.0767 17.8671 95.8295 18.0492 95.6374 18.315C95.4766 18.5374 95.391 18.767 95.3806 19.0039C95.3748 19.24 95.4174 19.4721 95.5082 19.7C95.601 19.9252 95.7147 20.1387 95.8492 20.3405C95.9856 20.5396 96.116 20.7157 96.2404 20.8687L96.9177 21.7113C97.0924 21.9258 97.2757 22.1799 97.4677 22.4733C97.6623 22.7687 97.8183 23.0919 97.9357 23.4428C98.0577 23.793 98.1013 24.1605 98.0664 24.5452C98.0315 24.93 97.8729 25.3176 97.5906 25.7082C97.2651 26.1584 96.8536 26.4795 96.3561 26.6715C95.8613 26.8654 95.3125 26.906 94.7096 26.7932C94.1095 26.6823 93.491 26.3943 92.8541 25.9293C92.2604 25.4958 91.8159 25.0242 91.5207 24.5144C91.2281 24.0065 91.0822 23.4897 91.0829 22.964C91.0863 22.4403 91.2366 21.9388 91.5336 21.4595L92.5698 22.2161C92.3694 22.5504 92.2864 22.8877 92.3209 23.2278C92.36 23.5671 92.485 23.8905 92.6958 24.1977C92.9113 24.5042 93.1836 24.7777 93.5129 25.0181C93.8961 25.2979 94.2852 25.4867 94.6804 25.5846C95.0775 25.6798 95.4464 25.6799 95.7873 25.5848C96.1301 25.4871 96.4113 25.2863 96.6309 24.9825C96.8309 24.7059 96.9167 24.4246 96.8883 24.1388C96.86 23.8529 96.7596 23.564 96.587 23.2723C96.4145 22.9806 96.2119 22.6876 95.9793 22.3934L95.1709 21.3557C94.6586 20.6956 94.3389 20.0541 94.2121 19.4311C94.0853 18.8081 94.2248 18.2159 94.6306 17.6545C94.9679 17.188 95.3874 16.8728 95.8894 16.7089C96.396 16.5443 96.932 16.5213 97.4976 16.6401C98.0679 16.7581 98.6174 17.0103 99.1464 17.3965C99.6807 17.7866 100.086 18.2297 100.362 18.7257C100.641 19.219 100.782 19.7198 100.785 20.228C100.792 20.7382 100.65 21.2084 100.359 21.6386L99.3879 20.9293Z" fill="url(#paint20_linear_150_553)"/>
<path d="M98.598 30.8323C98.1074 30.3392 97.7937 29.7893 97.6569 29.1824C97.5225 28.578 97.5614 27.9605 97.7737 27.3299C97.9883 26.7017 98.3763 26.1056 98.9377 25.5414C99.5037 24.9725 100.1 24.579 100.728 24.3609C101.358 24.1452 101.973 24.1049 102.575 24.24C103.179 24.3775 103.726 24.6928 104.216 25.1858C104.707 25.6789 105.019 26.2276 105.154 26.8321C105.291 27.439 105.251 28.0576 105.034 28.6882C104.819 29.3211 104.429 29.922 103.863 30.4909C103.301 31.0551 102.707 31.4439 102.079 31.6572C101.454 31.8729 100.84 31.912 100.236 31.7746C99.6347 31.6394 99.0886 31.3253 98.598 30.8323ZM99.3481 30.0785C99.7207 30.453 100.123 30.6652 100.555 30.7149C100.986 30.7647 101.415 30.6912 101.842 30.4945C102.269 30.2977 102.664 30.0168 103.028 29.6518C103.391 29.2867 103.671 28.8885 103.87 28.4571C104.068 28.0256 104.143 27.5919 104.096 27.1557C104.049 26.7195 103.839 26.3142 103.466 25.9396C103.094 25.5651 102.69 25.3541 102.256 25.3067C101.822 25.2593 101.391 25.3352 100.961 25.5343C100.532 25.7334 100.136 26.0155 99.7726 26.3805C99.4094 26.7456 99.1299 27.1426 98.9341 27.5717C98.7384 28.0008 98.6652 28.4322 98.7148 28.866C98.7643 29.2998 98.9754 29.7039 99.3481 30.0785Z" fill="url(#paint21_linear_150_553)"/>
<path d="M107.236 36.1241L110.911 33.4404L111.605 34.4005L105.388 38.9404L104.694 37.9803L105.746 37.2118L105.699 37.1467C105.277 37.2308 104.844 37.1991 104.399 37.0515C103.957 36.9019 103.566 36.5912 103.225 36.1193C102.942 35.7287 102.776 35.3195 102.727 34.8916C102.68 34.4617 102.766 34.0339 102.986 33.6081C103.209 33.1803 103.585 32.7734 104.114 32.3871L108.064 29.5024L108.758 30.4625L104.872 33.2999C104.419 33.631 104.15 34.0225 104.064 34.4745C103.98 34.9292 104.083 35.3559 104.371 35.7545C104.544 35.9932 104.78 36.1916 105.08 36.3497C105.381 36.5106 105.719 36.5834 106.091 36.5683C106.466 36.556 106.847 36.4079 107.236 36.1241Z" fill="url(#paint22_linear_150_553)"/>
<path d="M110.84 39.1906L106.72 41.3L106.184 40.2426L113.032 36.736L113.55 37.7576L112.48 38.3055L112.525 38.3951C112.955 38.3783 113.359 38.4802 113.736 38.7007C114.117 38.9197 114.439 39.289 114.702 39.8088C114.938 40.2747 115.05 40.7312 115.037 41.178C115.027 41.6234 114.879 42.0413 114.594 42.4318C114.312 42.8208 113.88 43.1644 113.298 43.4627L108.947 45.6908L108.411 44.6334L112.69 42.4418C113.228 42.1664 113.576 41.8114 113.734 41.3769C113.895 40.9409 113.851 40.4779 113.603 39.9881C113.432 39.6506 113.206 39.3862 112.925 39.1949C112.646 39.0066 112.329 38.9078 111.972 38.8986C111.615 38.8893 111.238 38.9866 110.84 39.1906Z" fill="url(#paint23_linear_150_553)"/>
<path d="M110.264 49.9065C110.066 49.2944 110.045 48.7037 110.201 48.1345C110.36 47.5643 110.68 47.0547 111.159 46.6057C111.641 46.1556 112.269 45.8042 113.043 45.5515C113.811 45.3008 114.52 45.2155 115.17 45.2958C115.821 45.376 116.376 45.6018 116.836 45.9732C117.296 46.3446 117.627 46.8395 117.826 47.458C117.981 47.9363 118.024 48.34 117.955 48.6692C117.89 49.0005 117.782 49.2721 117.629 49.4841C117.481 49.6981 117.357 49.8673 117.257 49.9917L117.288 50.0873L120.885 48.9126L121.25 50.0412L111.504 53.2236L111.152 52.1332L112.275 51.7665L112.232 51.6326C112.072 51.5932 111.865 51.5301 111.613 51.4434C111.363 51.3556 111.114 51.1958 110.863 50.9638C110.616 50.7308 110.416 50.3784 110.264 49.9065ZM111.322 49.7301C111.468 50.1829 111.709 50.5271 112.045 50.7629C112.384 50.9977 112.789 51.128 113.261 51.1538C113.735 51.1787 114.248 51.1009 114.8 50.9207C115.346 50.7425 115.798 50.5069 116.155 50.2138C116.516 49.9198 116.76 49.5792 116.888 49.1922C117.018 48.8041 117.009 48.3805 116.861 47.9214C116.706 47.4431 116.455 47.0845 116.108 46.8454C115.765 46.6085 115.36 46.4782 114.893 46.4545C114.43 46.4329 113.941 46.5061 113.427 46.6739C112.907 46.8438 112.46 47.0779 112.087 47.3761C111.717 47.6765 111.458 48.0254 111.31 48.4229C111.165 48.8225 111.169 49.2583 111.322 49.7301Z" fill="url(#paint24_linear_150_553)"/>
<path d="M114.693 65.1958C114.693 64.7902 114.791 64.4198 114.988 64.0845C115.188 63.7493 115.455 63.4811 115.789 63.28C116.122 63.0822 116.491 62.9833 116.894 62.9833C117.301 62.9833 117.67 63.0822 118 63.28C118.334 63.4811 118.599 63.7493 118.796 64.0845C118.996 64.4198 119.096 64.7902 119.096 65.1958C119.096 65.6048 118.996 65.9753 118.796 66.3071C118.599 66.6424 118.334 66.9089 118 67.1067C117.67 67.3078 117.301 67.4084 116.894 67.4084C116.491 67.4084 116.122 67.3078 115.789 67.1067C115.455 66.9089 115.188 66.6424 114.988 66.3071C114.791 65.9753 114.693 65.6048 114.693 65.1958Z" fill="url(#paint25_linear_150_553)"/>
<path d="M117.038 84.5153C117.538 84.6154 117.988 84.5049 118.386 84.1838C118.785 83.8627 119.08 83.4057 119.272 82.8126C119.412 82.379 119.465 81.9769 119.43 81.6061C119.395 81.2385 119.284 80.9239 119.099 80.6624C118.912 80.4041 118.664 80.2242 118.353 80.1227C118.093 80.0377 117.849 80.0269 117.621 80.0901C117.396 80.1575 117.19 80.2699 117.002 80.4272C116.818 80.5855 116.651 80.7601 116.501 80.951C116.355 81.1429 116.229 81.322 116.122 81.4882L115.534 82.3959C115.385 82.6292 115.202 82.8829 114.983 83.157C114.764 83.4344 114.506 83.6833 114.21 83.904C113.917 84.1288 113.582 84.2841 113.208 84.3696C112.833 84.4552 112.417 84.4234 111.96 84.2742C111.433 84.1022 111.002 83.8081 110.667 83.3919C110.33 82.9789 110.122 82.4669 110.043 81.8558C109.962 81.2479 110.044 80.5677 110.287 79.8153C110.514 79.1139 110.823 78.5433 111.214 78.1035C111.604 77.6669 112.048 77.3678 112.546 77.206C113.043 77.0474 113.564 77.036 114.109 77.1718L113.713 78.3961C113.335 78.3078 112.99 78.3327 112.679 78.4708C112.37 78.6131 112.102 78.8325 111.877 79.1289C111.653 79.4296 111.479 79.7744 111.353 80.1634C111.207 80.6161 111.148 81.0464 111.178 81.4543C111.21 81.8633 111.324 82.216 111.519 82.5124C111.718 82.8099 111.995 83.0166 112.35 83.1326C112.674 83.2383 112.966 83.2334 113.228 83.118C113.49 83.0025 113.732 82.8173 113.955 82.5622C114.178 82.3071 114.392 82.023 114.599 81.7097L115.331 80.6164C115.797 79.9227 116.306 79.419 116.856 79.1052C117.406 78.7915 118.01 78.7418 118.667 78.9562C119.212 79.1344 119.64 79.4381 119.95 79.8672C120.263 80.3005 120.45 80.8058 120.512 81.3831C120.577 81.9647 120.508 82.5679 120.306 83.1928C120.102 83.824 119.808 84.3484 119.424 84.7659C119.043 85.1843 118.613 85.4739 118.133 85.6344C117.652 85.7982 117.164 85.8077 116.667 85.6631L117.038 84.5153Z" fill="url(#paint26_linear_150_553)"/>
<path d="M107.422 86.8206C107.737 86.1993 108.161 85.7295 108.693 85.4112C109.223 85.0959 109.82 84.9423 110.482 84.9504C111.143 84.9614 111.827 85.148 112.534 85.5103C113.247 85.8755 113.804 86.3243 114.204 86.8566C114.603 87.3919 114.832 87.9678 114.89 88.5845C114.946 89.2041 114.817 89.8246 114.502 90.4458C114.187 91.0671 113.764 91.5354 113.234 91.8507C112.702 92.169 112.104 92.3219 111.44 92.3093C110.775 92.2997 110.085 92.1123 109.372 91.7471C108.665 91.3848 108.113 90.9368 107.717 90.4031C107.32 89.8723 107.093 89.2971 107.037 88.6775C106.979 88.0608 107.107 87.4419 107.422 86.8206ZM108.367 87.3046C108.128 87.7765 108.052 88.2265 108.138 88.6544C108.224 89.0824 108.426 89.47 108.744 89.8172C109.063 90.1645 109.45 90.4553 109.908 90.6897C110.366 90.924 110.829 91.0693 111.299 91.1253C111.768 91.1814 112.202 91.1195 112.6 90.9396C112.999 90.7597 113.317 90.4338 113.557 89.9619C113.796 89.4899 113.871 89.0392 113.782 88.6098C113.692 88.1803 113.487 87.7912 113.166 87.4424C112.845 87.0936 112.456 86.802 111.998 86.5676C111.54 86.3333 111.078 86.1888 110.612 86.1343C110.145 86.0797 109.714 86.1432 109.319 86.3246C108.924 86.506 108.607 86.8326 108.367 87.3046Z" fill="url(#paint27_linear_150_553)"/>
<path d="M105.084 96.712L108.759 99.3957L108.065 100.356L101.848 95.8159L102.542 94.8558L103.594 95.6243L103.641 95.5592C103.431 95.1822 103.327 94.7583 103.33 94.2875C103.335 93.8188 103.508 93.3484 103.849 92.8765C104.131 92.486 104.467 92.2009 104.857 92.0213C105.249 91.8436 105.681 91.7941 106.152 91.8727C106.625 91.9534 107.126 92.1868 107.655 92.573L111.606 95.4577L110.912 96.4178L107.026 93.5804C106.573 93.2493 106.119 93.1128 105.665 93.1706C105.209 93.2313 104.836 93.4609 104.548 93.8596C104.376 94.0982 104.261 94.3853 104.204 94.7208C104.145 95.059 104.18 95.4038 104.31 95.7552C104.437 96.1093 104.695 96.4282 105.084 96.712Z" fill="url(#paint28_linear_150_553)"/>
<path d="M103.296 101.104L100.027 97.8189L100.861 96.9797L106.296 102.441L105.489 103.252L104.64 102.399L104.569 102.47C104.718 102.875 104.746 103.292 104.654 103.721C104.565 104.153 104.315 104.575 103.904 104.987C103.536 105.357 103.139 105.605 102.712 105.73C102.287 105.858 101.846 105.846 101.389 105.695C100.933 105.545 100.475 105.238 100.012 104.774L96.5593 101.303L97.3943 100.464L100.791 103.878C101.218 104.307 101.661 104.53 102.121 104.546C102.583 104.565 103.008 104.38 103.395 103.992C103.661 103.724 103.842 103.426 103.936 103.099C104.028 102.774 104.023 102.44 103.922 102.096C103.82 101.753 103.612 101.422 103.296 101.104Z" fill="url(#paint29_linear_150_553)"/>
<path d="M92.9769 103.865C93.495 103.487 94.0475 103.284 94.6344 103.258C95.2232 103.234 95.8041 103.381 96.3771 103.701C96.9521 104.023 97.4787 104.514 97.9571 105.176C98.4316 105.833 98.7313 106.484 98.8564 107.13C98.9814 107.776 98.9393 108.377 98.7301 108.932C98.5208 109.486 98.1545 109.955 97.631 110.337C97.2262 110.633 96.8574 110.798 96.5246 110.834C96.191 110.875 95.9004 110.855 95.6527 110.775C95.4044 110.699 95.2059 110.633 95.0573 110.575L94.9763 110.635L97.1997 113.71L96.2444 114.408L90.2213 106.076L91.1442 105.402L91.8383 106.362L91.9516 106.279C91.9394 106.114 91.9354 105.898 91.9394 105.63C91.9454 105.364 92.0195 105.076 92.1616 104.765C92.3058 104.457 92.5775 104.157 92.9769 103.865ZM93.4708 104.822C93.0876 105.102 92.8364 105.439 92.717 105.832C92.5996 106.229 92.6015 106.656 92.7226 107.115C92.8458 107.576 93.0779 108.043 93.4191 108.515C93.7563 108.981 94.1188 109.34 94.5067 109.591C94.8965 109.845 95.2942 109.974 95.6998 109.976C96.1074 109.981 96.5055 109.841 96.8941 109.557C97.2989 109.262 97.5608 108.911 97.6796 108.505C97.7978 108.104 97.7959 107.677 97.674 107.223C97.5513 106.774 97.3312 106.329 97.0136 105.89C96.692 105.445 96.3324 105.09 95.9348 104.825C95.5364 104.565 95.1262 104.426 94.7041 104.406C94.2813 104.392 93.8702 104.53 93.4708 104.822Z" fill="url(#paint30_linear_150_553)"/>
<path d="M79.8771 112.823C80.2609 112.698 80.6419 112.677 81.0199 112.762C81.399 112.85 81.7353 113.022 82.0287 113.279C82.319 113.536 82.5264 113.858 82.6512 114.244C82.7769 114.633 82.7972 115.016 82.7121 115.392C82.6248 115.773 82.453 116.11 82.1966 116.401C81.9412 116.696 81.6216 116.906 81.2377 117.032C80.8507 117.158 80.4692 117.177 80.0933 117.088C79.7152 117.004 79.3811 116.833 79.0908 116.575C78.7984 116.321 78.5894 116 78.4636 115.611C78.3389 115.225 78.3202 114.842 78.4074 114.461C78.4915 114.081 78.6613 113.744 78.9167 113.449C79.1699 113.158 79.49 112.95 79.8771 112.823Z" fill="url(#paint31_linear_150_553)"/>
<defs>
<filter id="filter0_bi_150_553" x="-3" y="-3" width="136" height="136" filterUnits="userSpaceOnUse" color-interpolation-filters="sRGB">
<feFlood flood-opacity="0" result="BackgroundImageFix"/>
<feGaussianBlur in="BackgroundImageFix" stdDeviation="1.5"/>
<feComposite in2="SourceAlpha" operator="in" result="effect1_backgroundBlur_150_553"/>
<feBlend mode="normal" in="SourceGraphic" in2="effect1_backgroundBlur_150_553" result="shape"/>
<feColorMatrix in="SourceAlpha" type="matrix" values="0 0 0 0 0 0 0 0 0 0 0 0 0 0 0 0 0 0 127 0" result="hardAlpha"/>
<feOffset dy="0.5"/>
<feGaussianBlur stdDeviation="1"/>
<feComposite in2="hardAlpha" operator="arithmetic" k2="-1" k3="1"/>
<feColorMatrix type="matrix" values="0 0 0 0 1 0 0 0 0 1 0 0 0 0 1 0 0 0 0.4 0"/>
<feBlend mode="normal" in2="shape" result="effect2_innerShadow_150_553"/>
</filter>
<linearGradient id="paint0_linear_150_553" x1="0" y1="0" x2="153.136" y2="38.8841" gradientUnits="userSpaceOnUse">
<stop stop-color="#82E8FF"/>
<stop offset="1" stop-color="#379FFF"/>
</linearGradient>
<linearGradient id="paint1_linear_150_553" x1="4.0625" y1="5.90909" x2="108.333" y2="115.556" gradientUnits="userSpaceOnUse">
<stop offset="0.114641" stop-color="#7EE5FF"/>
<stop offset="0.485" stop-color="white"/>
<stop offset="1" stop-color="#41A9FF"/>
</linearGradient>
<linearGradient id="paint2_linear_150_553" x1="17.4916" y1="34.099" x2="109.342" y2="104.343" gradientUnits="userSpaceOnUse">
<stop stop-color="#4EB5FF"/>
<stop offset="1" stop-color="#0760A6"/>
</linearGradient>
<linearGradient id="paint3_linear_150_553" x1="17.4916" y1="34.099" x2="109.342" y2="104.343" gradientUnits="userSpaceOnUse">
<stop stop-color="#4EB5FF"/>
<stop offset="1" stop-color="#0760A6"/>
</linearGradient>
<linearGradient id="paint4_linear_150_553" x1="17.4916" y1="34.099" x2="109.342" y2="104.343" gradientUnits="userSpaceOnUse">
<stop stop-color="#4EB5FF"/>
<stop offset="1" stop-color="#0760A6"/>
</linearGradient>
<linearGradient id="paint5_linear_150_553" x1="17.4916" y1="34.099" x2="109.342" y2="104.343" gradientUnits="userSpaceOnUse">
<stop stop-color="#4EB5FF"/>
<stop offset="1" stop-color="#0760A6"/>
</linearGradient>
<linearGradient id="paint6_linear_150_553" x1="17.4916" y1="34.099" x2="109.342" y2="104.343" gradientUnits="userSpaceOnUse">
<stop stop-color="#4EB5FF"/>
<stop offset="1" stop-color="#0760A6"/>
</linearGradient>
<linearGradient id="paint7_linear_150_553" x1="17.4916" y1="34.099" x2="109.342" y2="104.343" gradientUnits="userSpaceOnUse">
<stop stop-color="#4EB5FF"/>
<stop offset="1" stop-color="#0760A6"/>
</linearGradient>
<linearGradient id="paint8_linear_150_553" x1="17.4916" y1="34.099" x2="109.342" y2="104.343" gradientUnits="userSpaceOnUse">
<stop stop-color="#4EB5FF"/>
<stop offset="1" stop-color="#0760A6"/>
</linearGradient>
<linearGradient id="paint9_linear_150_553" x1="17.4916" y1="34.099" x2="109.342" y2="104.343" gradientUnits="userSpaceOnUse">
<stop stop-color="#4EB5FF"/>
<stop offset="1" stop-color="#0760A6"/>
</linearGradient>
<linearGradient id="paint10_linear_150_553" x1="17.4916" y1="34.099" x2="109.342" y2="104.343" gradientUnits="userSpaceOnUse">
<stop stop-color="#4EB5FF"/>
<stop offset="1" stop-color="#0760A6"/>
</linearGradient>
<linearGradient id="paint11_linear_150_553" x1="17.4916" y1="34.099" x2="109.342" y2="104.343" gradientUnits="userSpaceOnUse">
<stop stop-color="#4EB5FF"/>
<stop offset="1" stop-color="#0760A6"/>
</linearGradient>
<linearGradient id="paint12_linear_150_553" x1="17.4916" y1="34.099" x2="109.342" y2="104.343" gradientUnits="userSpaceOnUse">
<stop stop-color="#4EB5FF"/>
<stop offset="1" stop-color="#0760A6"/>
</linearGradient>
<linearGradient id="paint13_linear_150_553" x1="17.4916" y1="34.099" x2="109.342" y2="104.343" gradientUnits="userSpaceOnUse">
<stop stop-color="#4EB5FF"/>
<stop offset="1" stop-color="#0760A6"/>
</linearGradient>
<linearGradient id="paint14_linear_150_553" x1="17.4916" y1="34.099" x2="109.342" y2="104.343" gradientUnits="userSpaceOnUse">
<stop stop-color="#4EB5FF"/>
<stop offset="1" stop-color="#0760A6"/>
</linearGradient>
<linearGradient id="paint15_linear_150_553" x1="17.4916" y1="34.099" x2="109.342" y2="104.343" gradientUnits="userSpaceOnUse">
<stop stop-color="#4EB5FF"/>
<stop offset="1" stop-color="#0760A6"/>
</linearGradient>
<linearGradient id="paint16_linear_150_553" x1="17.4916" y1="34.099" x2="109.342" y2="104.343" gradientUnits="userSpaceOnUse">
<stop stop-color="#4EB5FF"/>
<stop offset="1" stop-color="#0760A6"/>
</linearGradient>
<linearGradient id="paint17_linear_150_553" x1="17.4916" y1="34.099" x2="109.342" y2="104.343" gradientUnits="userSpaceOnUse">
<stop stop-color="#4EB5FF"/>
<stop offset="1" stop-color="#0760A6"/>
</linearGradient>
<linearGradient id="paint18_linear_150_553" x1="17.4916" y1="34.099" x2="109.342" y2="104.343" gradientUnits="userSpaceOnUse">
<stop stop-color="#4EB5FF"/>
<stop offset="1" stop-color="#0760A6"/>
</linearGradient>
<linearGradient id="paint19_linear_150_553" x1="17.4916" y1="34.099" x2="109.342" y2="104.343" gradientUnits="userSpaceOnUse">
<stop stop-color="#4EB5FF"/>
<stop offset="1" stop-color="#0760A6"/>
</linearGradient>
<linearGradient id="paint20_linear_150_553" x1="17.4916" y1="34.099" x2="109.342" y2="104.343" gradientUnits="userSpaceOnUse">
<stop stop-color="#4EB5FF"/>
<stop offset="1" stop-color="#0760A6"/>
</linearGradient>
<linearGradient id="paint21_linear_150_553" x1="17.4916" y1="34.099" x2="109.342" y2="104.343" gradientUnits="userSpaceOnUse">
<stop stop-color="#4EB5FF"/>
<stop offset="1" stop-color="#0760A6"/>
</linearGradient>
<linearGradient id="paint22_linear_150_553" x1="17.4916" y1="34.099" x2="109.342" y2="104.343" gradientUnits="userSpaceOnUse">
<stop stop-color="#4EB5FF"/>
<stop offset="1" stop-color="#0760A6"/>
</linearGradient>
<linearGradient id="paint23_linear_150_553" x1="17.4916" y1="34.099" x2="109.342" y2="104.343" gradientUnits="userSpaceOnUse">
<stop stop-color="#4EB5FF"/>
<stop offset="1" stop-color="#0760A6"/>
</linearGradient>
<linearGradient id="paint24_linear_150_553" x1="17.4916" y1="34.099" x2="109.342" y2="104.343" gradientUnits="userSpaceOnUse">
<stop stop-color="#4EB5FF"/>
<stop offset="1" stop-color="#0760A6"/>
</linearGradient>
<linearGradient id="paint25_linear_150_553" x1="17.4916" y1="34.099" x2="109.342" y2="104.343" gradientUnits="userSpaceOnUse">
<stop stop-color="#4EB5FF"/>
<stop offset="1" stop-color="#0760A6"/>
</linearGradient>
<linearGradient id="paint26_linear_150_553" x1="17.4916" y1="34.099" x2="109.342" y2="104.343" gradientUnits="userSpaceOnUse">
<stop stop-color="#4EB5FF"/>
<stop offset="1" stop-color="#0760A6"/>
</linearGradient>
<linearGradient id="paint27_linear_150_553" x1="17.4916" y1="34.099" x2="109.342" y2="104.343" gradientUnits="userSpaceOnUse">
<stop stop-color="#4EB5FF"/>
<stop offset="1" stop-color="#0760A6"/>
</linearGradient>
<linearGradient id="paint28_linear_150_553" x1="17.4916" y1="34.099" x2="109.342" y2="104.343" gradientUnits="userSpaceOnUse">
<stop stop-color="#4EB5FF"/>
<stop offset="1" stop-color="#0760A6"/>
</linearGradient>
<linearGradient id="paint29_linear_150_553" x1="17.4916" y1="34.099" x2="109.342" y2="104.343" gradientUnits="userSpaceOnUse">
<stop stop-color="#4EB5FF"/>
<stop offset="1" stop-color="#0760A6"/>
</linearGradient>
<linearGradient id="paint30_linear_150_553" x1="17.4916" y1="34.099" x2="109.342" y2="104.343" gradientUnits="userSpaceOnUse">
<stop stop-color="#4EB5FF"/>
<stop offset="1" stop-color="#0760A6"/>
</linearGradient>
<linearGradient id="paint31_linear_150_553" x1="17.4916" y1="34.099" x2="109.342" y2="104.343" gradientUnits="userSpaceOnUse">
<stop stop-color="#4EB5FF"/>
<stop offset="1" stop-color="#0760A6"/>
</linearGradient>
</defs>
</svg>
