<svg version="1.2" xmlns="http://www.w3.org/2000/svg" viewBox="0 0 512 512" width="512" height="512">
	<title>file</title>
	<style>
		.s0 { fill: #fff } 
	</style>
	<path id="Path 0" fill-rule="evenodd" class="s0" d="m255.9 0c2.7 0 4.3 0.7 6.6 3 2.9 3 3 3.6 3.5 22h7.2c4 0 8.9 0.4 10.8 1 1.9 0.5 4.4 1.9 5.5 3.1 1.4 1.4 2 3.5 2 6.6 0 3.6-0.5 4.9-2.8 6.9-2.5 2.2-3.6 2.4-22.7 2.4v37.5l28.1 19c15.4 10.5 28.8 19.8 29.7 20.9 1.5 1.6 1.7 8.3 2.3 146.1l45.4 30.5c31.4 21.2 45.9 31.4 47 33.5 1.1 1.9 1.5 4.1 1.2 6-0.4 1.6-1.7 4-2.9 5.2-1.3 1.3-3.9 2.6-5.8 2.9-3.1 0.5-4.7-0.2-15.8-7.5-6.7-4.5-12.4-8.1-12.7-8.1-0.3 0-0.5 9.1-0.4 40.5l53.7 33.5c29.5 18.4 54.7 34.6 56 36 1.5 1.7 2.3 3.7 2.2 6.3 0 2.7-0.8 4.5-2.9 6.7-2.2 2.2-3.9 3-6.5 3-2.4 0-5.5-1.2-9.1-3.5-3-1.9-5.9-3.5-6.5-3.5-0.6 0-1 7.7-1 42h18c13.3 0 18.7 0.4 20.7 1.4 1.6 0.7 3.4 2.5 4 4 0.7 1.4 1.3 3.5 1.3 4.6 0 1.1-0.5 3-1.1 4.3-0.6 1.2-2.1 3-3.3 3.9-2 1.7-16.7 1.8-251.6 1.8-234.9 0-249.6-0.1-251.6-1.8-1.2-0.9-2.7-2.7-3.3-3.9-0.6-1.3-1.1-3.2-1.1-4.3 0-1.1 0.6-3.2 1.2-4.6 0.7-1.5 2.5-3.3 4-4 2.1-1 7.5-1.4 38.8-1.4v-21c0-13.3-0.4-21-1-21-0.6 0-3.5 1.6-6.5 3.5-3.6 2.3-6.7 3.5-9 3.5-2.6 0-4.3-0.8-6.5-3-2.2-2.2-3-3.9-3-6.7-0.1-2.6 0.7-4.6 2.3-6.3 1.2-1.4 26.4-17.6 109.7-69.5v-20.2c0-11.2-0.2-20.3-0.5-20.3-0.3 0-6 3.6-12.8 8.1-11 7.3-12.6 8-15.7 7.5-1.9-0.3-4.5-1.6-5.8-2.9-1.2-1.2-2.5-3.6-2.9-5.2-0.3-1.9 0.1-4.1 1.2-6 1.1-2.1 15.6-12.3 92.5-64v-16.5c0-14.7 0.2-16.8 2-19.7 1.3-2.1 3.3-3.7 5.5-4.3 2.7-0.8 4.3-0.6 6.7 0.5 1.8 0.8 3.9 2.6 4.5 4 0.8 1.5 1.3 6.4 1.3 12 0 8.6 0.2 9.4 1.7 8.9 1-0.3 11.5-7.1 23.3-15.1 17.5-11.9 22.2-14.6 25-14.6 2.9-0.1 7.4 2.6 25.2 14.6 12 8.1 22.5 14.9 23.3 15.2 1.3 0.4 1.5-6.6 1.4-120l-49.9-33.5-49.9 33.5-0.1 9.8c0 9.3-0.1 9.8-2.9 12.7-2.3 2.3-3.8 3-6.8 3-2.1 0-4.7-0.6-5.8-1.3-1.1-0.8-2.6-2.7-3.3-4.3-0.9-2-1.2-6.8-1-16.1 0.3-12.6 0.4-13.4 2.8-15.6 1.4-1.4 14.8-10.7 57.1-39.2l-0.6-37-10.2-0.5c-9-0.4-10.5-0.8-12.5-2.8-1.7-1.7-2.3-3.4-2.3-6.6 0-3 0.6-5.1 2-6.5 1.1-1.2 3.6-2.6 5.5-3.1 1.9-0.6 6.8-1 18-1l-0.1-9.6c-0.1-9.6-0.1-9.6 3.1-12.5 2.3-2.1 4.3-2.9 6.9-2.9zm-105.8 316.5l-0.1 175.5h69v-66l4.8-5.5c53.4-0.5 61.4-0.3 63.6 0.7 1.6 0.7 3.5 2.2 4.3 3.3 1 1.6 1.3 8.8 1.3 34.8v32.7h69l-0.1-175.5c-80.8-54.2-105-70.1-105.8-70.2-0.9 0-25.1 15.7-53.8 35zm-86.3 119.9l0.2 55.6h66c0-74.4-0.3-96-0.7-96-0.5 0-15.4 9.1-33.1 20.2zm318.2 55.6h66v-55.5c-48.5-30.5-63.2-39.6-64.1-40-1.5-0.6-1.6 3.8-1.8 47.4zm-143 0h34v-52h-34zm17.1-353c10.3 0 11.1 0.2 13.4 2.5 1.4 1.4 2.8 3.5 3.1 4.8 0.4 1.2 0.2 3.6-0.3 5.2-0.5 1.7-2.1 3.8-3.4 4.8-1.3 1-5 2.1-8.4 2.4-3.3 0.3-8.1 0.3-10.7 0-2.9-0.4-5.8-1.6-7.5-3.1-2.3-2-2.8-3.2-2.8-7.1 0-3.9 0.5-5.1 2.8-7.1 2.6-2.2 3.7-2.4 13.8-2.4zm-60.6 43c1.4 0 3.9 0.7 5.5 1.5 1.7 0.9 3.5 2.4 4 3.5 0.6 1.1 1 3.4 1 5 0 1.7-0.4 3.9-1 5-0.5 1.1-2.4 2.7-4.2 3.6-2 1-4.5 1.4-6.3 1.1-1.6-0.4-4.1-1.8-5.5-3.2-1.8-1.9-2.5-3.7-2.5-6.7 0-3.2 0.6-4.5 3.3-6.9 1.8-1.6 4.4-2.9 5.7-2.9zm50.3 0h20.2l3.5 3.5c2.5 2.5 3.5 4.4 3.5 6.5 0 2.1-1 4.1-6.8 10h-20.2l-3.5-3.5c-2.6-2.6-3.4-4.3-3.4-6.6q0.1-3.1 3.4-6.5zm11.7 104.3c7.6 0.3 10 0.8 14.9 3.3 3.2 1.6 7.8 5.1 10.2 7.7 2.5 2.6 5.7 7.3 9.9 16.2l0.5 51.5-5.8 6.5h-62.3l-5.9-6.5 0.3-25.7c0.2-25.3 0.3-25.9 2.8-31.3 1.4-3 4.3-7.4 6.5-9.8 2.2-2.4 5.9-5.6 8.4-7 2.5-1.4 6.1-3.2 8-3.9 2.2-0.8 6.9-1.2 12.5-1zm-15.4 26.6c-2.5 3.4-2.6 3.9-2.8 21.3l-0.3 17.8h34c0-30.1-0.3-33.6-1.7-36.6-1-2.1-3.3-4.9-5.2-6.3-2.6-1.9-4.9-2.6-9-2.9-3.9-0.2-6.6 0.3-9 1.5-1.9 1-4.6 3.4-6 5.2zm-143.8 133.2c9.4-0.1 9.8 0 13 2.8 2.7 2.4 3.2 3.7 3.2 7.1 0 3.5-0.5 4.7-3.2 7.1-3.1 2.8-3.7 2.9-12.8 2.9-5.5 0-10.6-0.5-12.1-1.2-1.4-0.7-3.2-2.5-4-4-0.8-1.5-1.4-3.8-1.3-5 0-1.3 0.7-3.3 1.5-4.7 0.9-1.3 2.6-2.9 3.8-3.7 1.4-0.8 5.6-1.3 11.9-1.3zm316.2-0.1c5.6 0 10.6 0.5 12.1 1.3 1.5 0.7 3.3 2.5 4 4 0.8 1.5 1.4 3.6 1.4 4.7 0 1.1-0.6 3.3-1.4 4.8-0.7 1.5-2.5 3.3-4 4-1.5 0.7-6.5 1.2-12.1 1.2-9.1 0-9.6-0.1-12.7-2.9-2.7-2.4-3.3-3.6-3.3-7.1 0-3.5 0.6-4.7 3.3-7.1 3.1-2.7 3.7-2.9 12.7-2.9z"/>
</svg>