<svg width="1354" height="1038" fill="none" xmlns="http://www.w3.org/2000/svg">
    <g clip-path="url(#a)">
        <path d="M734.24 22.23c.18-3.48 2.55-5.08 6.18-4.5a.399.399 0 0 0 .46-.36l.04-.3c.005-.05 0-.1-.015-.149a.375.375 0 0 0-.196-.223.39.39 0 0 0-.149-.038l-19.6-1.07a.452.452 0 0 0-.48.42l-.01.26a.273.273 0 0 0 .065.2.256.256 0 0 0 .185.09c3.43.19 8.1.3 7.85 5.07-.974 18.493-1.883 35.83-2.73 52.01-.24 4.57-1.11 15.05-7.64 13.6a1.417 1.417 0 0 1-.78-.46c-1.9-2.16-2.89-5.37-6.67-3.92a1.28 1.28 0 0 0-.73.68c-2.85 6.1 7.24 5.81 10.46 5.04 8.05-1.93 10.76-10.21 11.15-17.55.88-16.227 1.75-32.493 2.61-48.8ZM589.72 65.45c-7.873-3.907-14.657-8.703-20.35-14.39a.545.545 0 0 1-.162-.392.533.533 0 0 1 .172-.388c3.63-3.35 7.84-7.51 9.65-12.23 2.64-6.85-1.44-13.63-9.26-12.75-10.35 1.18-15.91 10.49-11.36 20.1 1.34 2.833 3.16 5.423 5.46 7.77a.798.798 0 0 1 0 1.12c-2.693 2.727-4.893 5.67-6.6 8.83-4.55 8.42.99 18.02 10.55 18.5 6.947.34 13.047-1.867 18.3-6.62 1.1-1 1.89-2.44 2.98-3.51.233-.227.493-.263.78-.11 4.1 2.23 8.85 4.26 13.76 3.2 2.26-.487 4.477-.917 6.65-1.29a.75.75 0 0 0 .27-.11c.3-.193.413-.43.34-.71a.466.466 0 0 0-.144-.234.435.435 0 0 0-.246-.106c-6.047-.633-12.153-2.46-18.32-5.48-.307-.153-.407-.393-.3-.72a64.595 64.595 0 0 0 2.89-12.99c.54-4.62 1.62-6.49 6.26-7.02a.453.453 0 0 0 .39-.43v-.35a.4.4 0 0 0-.299-.386.381.381 0 0 0-.171-.004l-16.98 3.34a.497.497 0 0 0-.367.306.498.498 0 0 0 .057.474l.16.22a.25.25 0 0 0 .112.094c.046.02.098.025.148.016 3.687-.727 5.903.653 6.65 4.14.787 3.727.66 7.663-.38 11.81-.093.367-.307.467-.64.3ZM833.3 29.42c-6.433-2.693-13.117-3.347-20.05-1.96-14.87 2.99-23.22 15.51-21.6 30.26 2.9 26.31 37.5 31.07 51.66 11.38 6.21-8.64 6.68-21.2.79-30.19-2.98-4.553-6.58-7.717-10.8-9.49ZM913.42 59.47c.253-.64.49-.633.71.02a82345.99 82345.99 0 0 1 19.19 57.82c.1.307.303.483.61.53a.718.718 0 0 0 .465-.085.697.697 0 0 0 .305-.355c5.406-14.007 10.78-27.86 16.12-41.56 1.5-3.86 4.4-6.75 8.72-4.96a.427.427 0 0 0 .343.005.448.448 0 0 0 .247-.245l.13-.3c.1-.213.04-.363-.18-.45l-13.85-5.36c-.074-.027-.134-.01-.18.05l-.24.28c-.234.273-.187.49.14.65 3.686 1.74 4.78 4.587 3.28 8.54-4.26 11.26-8.53 22.327-12.81 33.2-.234.6-.45.593-.65-.02l-17.08-52.96a1.106 1.106 0 0 0-.65-.69l-9.82-3.83a.52.52 0 0 0-.66.24l-.13.26c-.067.133-.037.237.09.31 2.246 1.273 3.853 2.913 4.82 4.92.153.32.163.643.03.97a11981.77 11981.77 0 0 1-14.03 36.13c-1.62 4.17-3.92 7.32-9.09 5.43a.29.29 0 0 0-.39.25l-.02.27c-.027.3.103.507.39.62l13.61 5.27a.241.241 0 0 0 .196-.009.277.277 0 0 0 .134-.151l.1-.29c.113-.34.006-.58-.32-.72-4.31-1.79-4.34-5.44-2.89-9.24a3220.12 3220.12 0 0 1 13.36-34.54ZM407.82 114.32l17.1-8.42c.327-.16.63-.127.91.1 4.433 3.547 9.027 7.22 13.78 11.02.94.76 1.673 1.63 2.2 2.61a1.95 1.95 0 0 1-.63 2.53l-3.62 2.44c-.113.073-.133.17-.06.29l.14.22c.187.3.433.36.74.18a119.684 119.684 0 0 1 16.11-7.88c.373-.147.517-.417.43-.81l-.08-.33c-.04-.187-.15-.247-.33-.18-4.3 1.67-7.69-.75-10.83-3.21a5574.072 5574.072 0 0 1-38.94-30.77c-.307-.247-.627-.253-.96-.02a.602.602 0 0 0-.203.232.65.65 0 0 0-.067.308c.667 12.993 1.457 26.96 2.37 41.9.247 4.04.26 7.73.04 11.07-.193 2.953-1.743 5.213-4.65 6.78-.147.08-.173.19-.08.33l.16.25c.074.12.192.206.331.24a.553.553 0 0 0 .409-.06c5.593-3.233 11.213-5.983 16.86-8.25.36-.147.447-.39.26-.73l-.16-.27c-.113-.213-.28-.263-.5-.15-5.44 2.87-10.09 1.94-10.44-4.98-.227-4.52-.483-9.057-.77-13.61-.027-.387.133-.663.48-.83ZM1007.38 127.36l16.46 9.81c.08.046.14.111.18.189.04.078.06.165.05.251-.49 6.48-1.13 12.82-1.92 19.02-.6 4.66-4.48 2.73-6.83 1.28a.476.476 0 0 0-.3-.072.445.445 0 0 0-.28.132l-.25.24a.411.411 0 0 0-.09.147c-.02.056-.03.115-.02.173a.43.43 0 0 0 .06.159c.03.047.08.085.13.111a126.206 126.206 0 0 1 15.75 9.48.563.563 0 0 0 .54.067.56.56 0 0 0 .35-.417l.06-.28c.02-.087-.01-.157-.08-.21-3.57-2.7-3.56-6.86-3.18-10.87 1.66-17.66 3.21-34.14 4.64-49.44a.676.676 0 0 0-.12-.43c-.32-.46-.73-.507-1.22-.14-14.65 10.82-27.95 20.513-39.91 29.08-3.54 2.53-7.24 3.71-11.04 1.52-.127-.073-.24-.057-.34.05l-.26.29a.42.42 0 0 0-.104.368.444.444 0 0 0 .234.312 141.244 141.244 0 0 1 16.46 9.8c.127.087.247.08.36-.02l.27-.22a.435.435 0 0 0 .154-.36.448.448 0 0 0-.194-.34c-5.27-3.57-7.47-7.29-1.43-11.7 3.867-2.82 7.47-5.463 10.81-7.93.35-.253.7-.27 1.06-.05ZM316.28 142.37c-1.67-5.42 3.2-9.69 8.03-11.06 4.53-1.27 9.55 1.75 12.8 4.77.06.053.12.053.18 0l.25-.21c.267-.233.29-.49.07-.77l-5.81-7.32a1.487 1.487 0 0 0-1.47-.53c-5.32 1.093-9.663 3.383-13.03 6.87-3.89 4.03-5.76 10.04-3.12 15.22 2.74 5.4 7.5 7.943 14.28 7.63 4.033-.18 8.087-.32 12.16-.42 5.413-.127 9.653 2.213 12.72 7.02 1.713 2.68 1.873 5.303.48 7.87-3.18 5.853-8.063 8.003-14.65 6.45-3.02-.707-6.277-2.543-9.77-5.51-.107-.087-.227-.1-.36-.04l-.29.14a.424.424 0 0 0-.236.288.425.425 0 0 0 .086.362c2.62 3.087 5.083 5.997 7.39 8.73.607.72 1.45.98 2.53.78 6.113-1.14 11.077-3.833 14.89-8.08 4.173-4.64 5.32-9.54 3.44-14.7-2.327-6.387-7.387-9.417-15.18-9.09-4.327.18-8.61.323-12.85.43-6.493.16-10.673-2.783-12.54-8.83ZM1117.32 175.82c1.6-1.92 3.46-2.48 5.64-.96 2.55 1.773 4.61 3.617 6.18 5.53 3.75 4.54 1 9.29-1.98 13.27-.09.113-.07.217.04.31l.22.18c.1.081.22.121.35.114a.52.52 0 0 0 .33-.154l9.9-10.68c.77-.833.6-1.173-.53-1.02-.69.1-1.23.33-1.92-.02-1.41-.733-2.83-1.667-4.25-2.8-9.48-7.62-18.42-15.173-26.82-22.66a2.983 2.983 0 0 1-.84-1.318 2.994 2.994 0 0 1-.04-1.572.527.527 0 0 0-.12-.51c-.21-.247-.42-.257-.65-.03l-10.65 10.79c-.09.093-.09.187 0 .28l.19.19a.551.551 0 0 0 .76.03c8.12-7.05 13.68-4.89 20.51 2.46 1.58 1.7.18 3.91-1.05 5.37-8.12 9.647-16.76 19.927-25.92 30.84-3.27 3.9-6.61.95-9.4-1.39a.255.255 0 0 0-.15-.056.267.267 0 0 0-.16.046l-.25.17c-.3.2-.31.413-.04.64l16.75 14.08c.04.037.1.056.16.055a.262.262 0 0 0 .16-.065l.24-.21a.407.407 0 0 0 .1-.142.35.35 0 0 0 .04-.173.354.354 0 0 0-.04-.173.416.416 0 0 0-.1-.142c-3.54-3-6.27-5.11-2.39-9.71 8.73-10.327 17.3-20.517 25.73-30.57ZM259.59 187.25c-2.56-2.87-.05-5.86 2.34-7.86.12-.1.143-.22.07-.36l-.14-.25a.517.517 0 0 0-.377-.258.502.502 0 0 0-.433.148 196.175 196.175 0 0 1-14.5 13.07c-.347.28-.34.553.02.82l.21.17a.342.342 0 0 0 .216.064.327.327 0 0 0 .204-.084c2.34-2.18 5.36-4.61 8.29-1.39 9.54 10.48 18.827 20.73 27.86 30.75.847.94 1.387 2 1.62 3.18.071.342.022.696-.14 1-.853 1.587-2.04 3.017-3.56 4.29a.282.282 0 0 0-.104.222.298.298 0 0 0 .104.228l.22.19a.438.438 0 0 0 .58-.01l14.6-13.24c.193-.18.207-.37.04-.57l-.2-.24a.263.263 0 0 0-.281-.081.264.264 0 0 0-.089.051c-2.51 2.22-5.29 4.65-7.96 1.75a2850.211 2850.211 0 0 1-28.59-31.59ZM1176.9 269.03c.13.153.16.32.07.5-2.2 4.727-4.39 9.62-6.56 14.68-.71 1.64-1.57 3.05-2.58 4.23a1.85 1.85 0 0 1-2.33.39c-1.25-.733-2.36-1.687-3.35-2.86-.25-.293-.51-.31-.8-.05l-.21.19c-.02.023-.05.05-.06.081a.31.31 0 0 0-.02.097c0 .033 0 .067.02.098.01.032.03.06.05.084a634.69 634.69 0 0 1 6.11 6.62c2.01 2.22 3.65 4.94 5.76 6.96 1.25 1.2 1.51 1.013.79-.56-1.1-2.393-1.28-4.717-.55-6.97a53.662 53.662 0 0 1 1.8-4.74c6.22-14.153 12.79-29.017 19.7-44.59.11-.26.07-.5-.14-.72a.803.803 0 0 0-.82-.21 6060.959 6060.959 0 0 0-41.58 13.35c-5.3 1.72-11.93 4.47-16.45-.33-.24-.247-.49-.257-.74-.03l-.2.19c-.14.127-.14.257-.01.39 4.39 4.6 8.53 9.41 12.41 14.43.23.293.49.313.76.06l.19-.17c.07-.062.1-.147.11-.238a.387.387 0 0 0-.09-.252c-4.44-5.07-4.23-9.34 2.64-11.53 4.33-1.373 8.6-2.737 12.82-4.09.08-.03.17-.033.25-.01.09.024.16.072.22.14l12.79 14.86ZM222.01 286.22c3.54 3.05 2.45 5.5-.34 8.4-.28.287-.27.57.03.85l.2.19a.284.284 0 0 0 .216.075.283.283 0 0 0 .204-.105l25.45-29.89a1.037 1.037 0 0 0-.1-1.45 144.737 144.737 0 0 1-8.18-7.95.778.778 0 0 0-.76-.19c-.413.113-.493.343-.24.69 2.83 3.89 4.94 8.59 2.68 13.18-.52 1.067-2.043 3.073-4.57 6.02a236.663 236.663 0 0 1-4.96 5.61c-1.82 1.98-3.72 2.137-5.7.47a3158.829 3158.829 0 0 1-31.76-27.05c-2.91-2.5-.88-5.73 1.28-8.04a.355.355 0 0 0 .092-.238.336.336 0 0 0-.092-.232l-.18-.19c-.28-.3-.547-.287-.8.04a209.21 209.21 0 0 1-12.5 14.69.49.49 0 0 0-.078.539.483.483 0 0 0 .118.151l.2.17c.08.067.16.067.24 0 2.5-1.96 4.46-5.59 8.23-2.41a5137.404 5137.404 0 0 1 31.32 26.67ZM155.53 340.19c-4.8-3.027-9.604-6.057-14.41-9.09-2.58-1.627-3.114-3.787-1.6-6.48a70.649 70.649 0 0 1 4.24-6.66c2.21-3.04 6.34-5.04 9.89-3.3.753.367 1.236.567 1.45.6 2.3.333 2.44-.11.42-1.33l-7.76-4.67a.731.731 0 0 0-1 .24l-18.13 28.77a.408.408 0 0 0 .29.62l.38.06c.046.007.086-.01.12-.05 1.95-2.36 3.71-6.13 7.61-3.7a4579.305 4579.305 0 0 1 35.81 22.56c3.39 2.16 1.53 5.71-.23 8.17a.42.42 0 0 0-.052.409.44.44 0 0 0 .322.271l.32.06a.386.386 0 0 0 .223-.021.351.351 0 0 0 .167-.139l18.82-29.88c.18-.281.244-.621.181-.95a1.322 1.322 0 0 0-.521-.82l-9.02-6.58c-.214-.153-.41-.133-.59.06l-.24.25a.23.23 0 0 0 .01.33c4.32 4.3 6.82 9.31 3.23 15.24a125.972 125.972 0 0 1-4.55 7.01c-1.6 2.3-3.574 2.717-5.92 1.25a2042.985 2042.985 0 0 1-16.86-10.61.45.45 0 0 1-.21-.288.447.447 0 0 1-.005-.182.452.452 0 0 1 .065-.17 910.152 910.152 0 0 1 5.56-8.75c2.426-3.76 5.566-4.547 9.42-2.36a.41.41 0 0 0 .36.03.42.42 0 0 0 .25-.26l.11-.33a.26.26 0 0 0 .003-.178.277.277 0 0 0-.113-.142l-12.16-7.55c-.367-.227-.574-.127-.62.3l-.04.37c-.014.12.03.217.13.29 2.673 1.873 3.303 4.193 1.89 6.96-1.514 2.967-3.604 6.447-6.27 10.44-.26.38-.584.447-.97.2ZM1252.75 323.77c4.85 6.38 2.54 12.67-2.59 17.58a.577.577 0 0 0-.18.369c-.01.142.03.285.11.401l.16.23a.28.28 0 0 0 .18.11c.03.005.07.004.1-.005a.254.254 0 0 0 .1-.045c2.43-1.74 4.89-3.48 7.37-5.22.83-.573 1.15-1.38.96-2.42-.59-3.387-1.82-6.577-3.68-9.57-4.76-7.65-14.92-11.46-21.98-3.96-9.7 10.29 3.61 29.62-13.34 36.02-2.08.79-4.59.63-6.43-.65-10.07-6.99-6.54-17.18.56-24.44.09-.08.09-.167.01-.26l-.23-.25c-.25-.287-.52-.317-.83-.09l-9.41 7.23c-.14.11-.26.255-.33.421a.968.968 0 0 0-.09.529c.56 6.493 3.04 11.957 7.45 16.39 4.38 4.4 9.29 5.753 14.74 4.06 5.92-1.84 9.42-7.1 9.54-13.19.08-4.087.11-8.417.1-12.99-.01-2.687.47-5.08 1.46-7.18 2.75-5.89 11.51-9.3 16.25-3.07ZM760.22 735.34c-11.95-8.44-24.89-13.62-38.8-17.6-6.21-1.77-11.45-3.96-16.81-7.14a1.603 1.603 0 0 1-.78-1.58c.94-7.73.75-15.54-.61-23.3-2.227-12.687-4.923-23.88-8.09-33.58-6.82-20.85-21.5-36.23-40.02-47.47-8.78-5.327-18.237-10.237-28.37-14.73-.587-.26-.827-.077-.72.55 1.473 9.093 3.267 17.82 5.38 26.18 6.993 27.653 20.477 51.327 40.45 71.02 7.16 7.053 13.933 13.47 20.32 19.25 5.83 5.28 13.24 10.09 20.99 12.47a405.89 405.89 0 0 0 7.42 2.2c.7.2.7.397 0 .59-8.987 2.46-17.98 2.947-26.98 1.46-.373-.067-.597-.287-.67-.66-1.13-6.25-7.34-10.32-12.96-12.64-4.987-2.047-9.857-3.493-14.61-4.34-4.36-.77-9.09-.77-13.6-.89-3.6-.1-7.07-.03-10.41.21-5.433.38-10.777.55-16.03.51-5.227-.04-10.787-.717-16.68-2.03-5.087-1.14-10.12-.653-15.1 1.46a271.616 271.616 0 0 0-12.25 5.54c-4.87 2.35-9.9 3.46-15.35 3.22-.76-.033-.833.177-.22.63 3.893 2.887 7.75 5.72 11.57 8.5 10.26 7.48 20.733 13.503 31.42 18.07 8.88 3.79 18.79 6.35 28.34 6.9 4.7.267 9.247.257 13.64-.03 15.29-1.01 30.96-7.63 41.3-19.03a.94.94 0 0 1 .81-.32c5.8.453 11.06.237 15.78-.65 4.32-.807 8.88-2.663 13.68-5.57.38-.233.783-.3 1.21-.2 13.467 3.073 26.077 8.053 37.83 14.94.439.256.808.621 1.07 1.06 14.84 24.79 31.21 46.35 50.07 71.1.1.133.217.15.35.05l.21-.15c.133-.093.157-.207.07-.34-19.727-29.6-34.937-53.16-45.63-70.68a1132.935 1132.935 0 0 1-14.12-23.79c-.513-.893-.813-1.727-.9-2.5-1.807-16.333.163-32.493 5.91-48.48.613-1.7 1.27-3.31 1.97-4.83.16-.353.353-.37.58-.05 3.95 5.57 11.02 9.21 16.89 13 9.42 6.07 18.58 6.7 30.29 6.2 10.967-.467 22.253-.05 33.86 1.25 1.067.12 1.223-.2.47-.96-10.227-10.26-21.873-18.907-34.94-25.94-11.42-6.15-23.42-8.54-36.27-4.85-2.17.62-4.07 1.57-5.97 2.73-.627.38-.763.25-.41-.39 4.72-8.63 10.83-16.67 16.76-24.76a.764.764 0 0 1 .78-.33c8.747 1.2 17.57.25 26.47-2.85 15.42-5.37 33.61-18.45 39.07-34.7 1.4-4.153 2.35-8.707 2.85-13.66 1.053-10.367 1.13-20.877.23-31.53-.033-.367-.21-.463-.53-.29a459.13 459.13 0 0 0-24.67 14.07c-6.52 4-12.783 8.743-18.79 14.23-7.493 6.847-13.263 14.88-17.31 24.1-3.68 8.407-7.24 16.633-10.68 24.68-1.027 2.393-1.53 2.29-1.51-.31.04-7.133-1.187-13.5-3.68-19.1-4.16-9.35-11.88-17.98-16.51-27.77a.466.466 0 0 0-.669-.187.437.437 0 0 0-.161.197c-3.173 7.533-5.683 15.1-7.53 22.7-2.81 11.56-3.34 22.92 3.75 33 3.44 4.907 6.817 9.65 10.13 14.23a1.378 1.378 0 0 1 .08 1.49c-5.22 9.187-9.073 19.257-11.56 30.21-.77 3.4-1 7.07-1.42 10.63-.353 3.04-.48 5.707-.38 8 .107 2.493.183 5.027.23 7.6.05 3.45.86 6.81 1.35 10.24.053.36-.007.38-.18.06-12.747-23.073-22.717-47.207-29.91-72.4-3.58-12.533-7.753-29.153-12.52-49.86-.39-1.72-.26-3.47.16-5.17 3.32-13.247 8.87-25.807 16.65-37.68a.464.464 0 0 1 .513-.196.494.494 0 0 1 .177.086c9 6.967 19.333 11.403 31 13.31 4.393.713 9.06 1.123 14 1.23 8.333.173 16.87.03 25.61-.43a.421.421 0 0 0 .28-.71 1194.255 1194.255 0 0 0-18.18-18.06c-11.05-10.73-24.12-15.63-39.69-11.14-.507.147-.587.02-.24-.38a12.69 12.69 0 0 1 1.92-1.73c5.08-3.773 10.26-7.683 15.54-11.73 2.13-1.63 4.05-3.68 5.99-5.57.287-.28.603-.317.95-.11 9.02 5.507 18.67 9.26 28.95 11.26 7.18 1.4 14.89 1.3 21.86-.7 9.74-2.79 18.5-8.03 25.68-15.15 3.353-3.327 5.643-5.773 6.87-7.34 5.88-7.46 11.563-15.813 17.05-25.06.18-.307.093-.477-.26-.51-23.327-2.053-46.11-1.177-68.35 2.63-12.84 2.19-24.87 5.48-30.07 18.74a138.36 138.36 0 0 1-3.38 7.92 13.665 13.665 0 0 1-1.75 2.84c-.313.387-.397.34-.25-.14.23-.73.72-1.15.91-1.97 1.42-6.52 1.28-12.687-.42-18.5-2.29-7.86-6.76-15.92-9.88-24.12-1.087-2.847-2.18-5.747-3.28-8.7-.16-.433-.323-.437-.49-.01-4.507 11.867-8.723 24.377-12.65 37.53-2.067 6.927-2.863 13.383-2.39 19.37.42 5.287 2.54 10.173 6.36 14.66.26.307.23.577-.09.81a22.451 22.451 0 0 0-3.26 2.95c-14.16 15.607-23.097 33.56-26.81 53.86-.1.51.06 1.03-.03 1.53-.127.7-.267.703-.42.01-4.1-17.84-5.357-34.857-3.77-51.05a410.573 410.573 0 0 1 3.96-29.24c3.113-18.167 6.533-35.837 10.26-53.01a451.17 451.17 0 0 1 4.45-18.67.773.773 0 0 1 .93-.56c5.31 1.3 10.35-.84 15.2-3.37 4.093-2.133 7.457-4.71 10.09-7.73 6.5-7.453 10.643-16.42 12.43-26.9.76-4.46 1.147-8.723 1.16-12.79.02-6.02.18-11.81-.47-17.99a665.306 665.306 0 0 0-1.74-15.01c-.433-3.34-.913-5.46-1.44-6.36-1.433-2.447-3.387-2.97-5.86-1.57-9.05 5.12-18.14 10.67-26.31 17.31-3.827 3.113-7.217 6.077-10.17 8.89-8.473 8.087-11.833 18.667-10.08 31.74.94 7.033 2.833 14.353 5.68 21.96 1.553 4.153 3.953 7.493 7.2 10.02.5.393.66.89.48 1.49a461.357 461.357 0 0 0-8.68 33.26c-.087.387-.317.503-.69.35-2.08-.867-3.743-2.087-4.99-3.66a52.77 52.77 0 0 0-5.84-6.27 1.094 1.094 0 0 1-.261-.38 1.052 1.052 0 0 1-.079-.45c.447-8.893.397-16.59-.15-23.09-.75-8.77-5.85-14.79-11.98-20.63-5.03-4.8-8.07-10.88-11.45-16.82-2.54-4.48-5.95-8.023-10.23-10.63-.393-.233-.513-.137-.36.29 2.99 8.23 6.45 17.83 6.19 25.95-.133 4.42-.22 8.847-.26 13.28-.06 6.59 2.72 11.72 7.59 16.75 8.78 9.09 16.51 15.89 25.15 23.76 1.513 1.373 3.64 2.437 6.38 3.19.32.087.443.293.37.62-2.92 12.373-5.63 25.403-8.13 39.09-3.34 18.28-5.02 36.96-2.95 54.71.947 8.093 2.62 16.97 5.02 26.63.007.04-.007.07-.04.09-.073.04-.143.087-.21.14a.053.053 0 0 1-.021.011.049.049 0 0 1-.024 0 .065.065 0 0 1-.022-.011.053.053 0 0 1-.013-.02 30.158 30.158 0 0 0-2.29-4.63c-6.6-10.847-14-20.797-22.2-29.85-.267-.293-.253-.573.04-.84 1.247-1.1 2.457-2.183 3.63-3.25 4.773-4.333 7.457-9.627 8.05-15.88.68-7.25-.2-13.92-1.24-21.2-1.72-12.067-2.953-24.523-3.7-37.37-.08-1.307-.367-1.357-.86-.15-7.393 18.12-13.443 35.837-18.15 53.15-.853 3.133-1.333 6.803-1.44 11.01-.02.547-.223.627-.61.24l-8.38-8.48c-.487-.487-.63-1.063-.43-1.73a134.595 134.595 0 0 0 5.27-26.88c1.09-11.75-.41-22.67-6.72-33.08-3.64-6-6.903-11.65-9.79-16.95-2.14-3.91-3.83-8.25-5.59-12.43-2.47-5.87-4.56-12.27-6.97-18.42-.447-1.14-.81-1.113-1.09.08a568.733 568.733 0 0 0-5.72 27.97c-1.533 8.547-2.14 16.737-1.82 24.57.527 13.067 4.313 24.857 11.36 35.37 3.76 5.613 7.56 11.177 11.4 16.69a72.234 72.234 0 0 0 3 4c1.113 1.38 2.187 2.75 3.22 4.11.287.367.197.53-.27.49-3.06-.29-6.51-.36-9.47.38-7.593 1.9-15.553 3.497-23.88 4.79-10.233 1.58-19.767 1.077-28.6-1.51-1.18-.34-1.36-.053-.54.86 3.753 4.187 7.543 7.997 11.37 11.43 3.353 3 7.113 5.5 11.28 7.5 12.74 6.11 28 4.1 41.78-.55 6.1-2.053 11.313-4.16 15.64-6.32.287-.147.547-.11.78.11 7.147 6.727 13.45 13.433 18.91 20.12a369.159 369.159 0 0 1 13.04 16.91c1.26 1.73 2.45 3.72 3.04 5.76 7.013 24.36 11.577 39.907 13.69 46.64 5.64 17.933 10.273 31.683 13.9 41.25 3.807 10.053 9.327 22.507 16.56 37.36 1.74 3.573 5.36 10.077 10.86 19.51.247.42.17.49-.23.21ZM298.05 666.26h74.25c.367 0 .62.17.76.51 3.133 7.653 6.363 15.57 9.69 23.75 2.03 4.98 4.05 10.94 4.08 16.24.06 7.95-12.68 8.38-18.01 8.25-1.52-.04-2.89.28-4.35.56a1.12 1.12 0 0 0-.8.58c-1.97 3.42-2.27 8.86 1.44 11.27.887.58 2.183.833 3.89.76 23.99-1.01 46.11-1.25 69.67.02 1.873.107 3.407-.697 4.6-2.41 1.84-2.65 1.32-6.08.23-9.01a2.31 2.31 0 0 0-2.11-1.51c-7.7-.24-14.17-1.01-18.44-8.16-1.65-2.75-3.22-5.31-4.52-8.31a644.772 644.772 0 0 1-6.2-14.75c-16.46-40.567-32.127-79.22-47-115.96-6-14.82-13.6-29.66-30.98-33.1-8.16-1.62-16.583-2.21-25.27-1.77-2.48.12-5.19 1.8-5.44 4.55-.24 2.82-.65 6.79 3.13 7.5 5.247.98 10.013 2.337 14.3 4.07 4.68 1.89 6.88 5.58 5.97 10.53-.34 1.833-.637 3.053-.89 3.66a55750.972 55750.972 0 0 1-56.31 133.18c-2.08 4.89-4.98 10.35-8.45 13.86-4.29 4.33-10.7 4.44-16.56 4.57-2.367.053-3.82 1.2-4.36 3.44-1.1 4.59.22 9.96 6.05 9.6 18.267-1.133 38.45-1.15 60.55-.05 7.18.36 7.73-6.13 5.83-11.24a1.553 1.553 0 0 0-.62-.78c-1.293-.847-2.777-1.23-4.45-1.15-5.66.273-11.363-.097-17.11-1.11-5.22-.92-7.23-5.12-6.06-10.09 1.51-6.43 3.34-12.96 5.83-19.31a1575.577 1575.577 0 0 1 7.13-17.83c.1-.24.277-.36.53-.36ZM91.64 637.77c17.52.013 35.517.017 53.99.01 3.51-.01 5.28-3.94 5.06-7.03-.2-2.81-1.87-6.29-5.04-6.29-19.067.007-37.113.01-54.14.01-.34 0-.51-.167-.51-.5v-76.42c0-.34.17-.51.51-.51 14.227-.113 27.21-.083 38.95.09 16.48.24 23.81 6.35 27.77 21.88a175.36 175.36 0 0 1 3.25 15.81c.5 3.13 2.54 4.9 5.49 5.66 4.207 1.087 7.767.413 10.68-2.02 1.153-.96 1.713-2.313 1.68-4.06-.28-13.94-.557-27.777-.83-41.51a11.07 11.07 0 0 0-.69-3.64c-.853-2.3-2.363-3.62-4.53-3.96-1.98-.313-4.267-.46-6.86-.44-31.407.267-63.383.27-95.93.01-8.4-.067-18.817-.34-31.25-.82-6.13-.24-6.58 6.54-5.11 10.81.48 1.38 1.513 2.08 3.1 2.1 10.3.11 21.19 1.38 22.62 14.14.42 3.75.89 7.51.88 11.31-.007 38.14-.003 76.603.01 115.39 0 4.31-.26 8.73-.89 13.04-.5 3.393-1.38 5.967-2.64 7.72-4.6 6.41-12.05 6.44-19.31 6.7-2.567.087-3.997 1.423-4.29 4.01-.37 3.31-.39 6.58 2.82 8.26.913.48 2.13.687 3.65.62 11.893-.527 22.337-.8 31.33-.82 34.373-.073 69.123-.1 104.25-.08 1.36 0 2.847-.173 4.46-.52 2.89-.62 4.13-3.81 4.55-6.41 1.8-11.333 3.72-23.53 5.76-36.59 1.14-7.32-6.96-9.24-12.52-8.17-2.97.57-4.74 2.77-5.52 5.51a212.104 212.104 0 0 1-5.41 16.21c-2.88 7.61-6.63 13.55-14.95 16.01-3.46 1.027-6.81 1.563-10.05 1.61-11.313.173-22.663.183-34.05.03-4.04-.053-7.797-1.267-11.27-3.64-5.03-3.45-5.69-13.05-5.68-18.54.027-18.153.033-36.26.02-54.32-.007-.433.207-.65.64-.65ZM1050.45 557.49c1.36 4.6 1.66 9.8 1.67 14.46.18 48.013.17 86.577-.03 115.69-.06 8.42-.41 17.47-1.06 27.15-1.43 21.55-6.51 44.59-27.56 55.38-2.31 1.187-4.68 2.413-7.1 3.68-.4.206-.72.55-.89.97-1.98 4.83.61 12.31 7.02 10.79 19.09-4.52 35.48-14.98 45.31-32.29 7.85-13.83 11.78-29.82 13.41-45.59.48-4.627.73-11.287.74-19.98.06-37.34.09-75.007.08-113 0-6.16.47-11.413 1.41-15.76 2.42-11.2 12.57-11.94 22.08-12.1 5.22-.08 4.69-7.61 2.89-10.64-.99-1.653-2.55-2.427-4.68-2.32-11.77.567-22.94.853-33.51.86-1.68 0-3.35.35-5.06.17-1.17-.127-2.37-.19-3.6-.19-10.22-.007-20.3-.273-30.25-.8-2.03-.11-4.24.26-5.43 2.15-1.75 2.8-1.84 5.82-.28 9.06.73 1.5 2.07 1.85 3.59 1.84 3.17-.007 6.4.223 9.7.69 3.26.46 5.61 1.9 8.03 4.13 1.71 1.587 2.89 3.47 3.52 5.65ZM1269.68 546.24c6.31.013 12.8.023 19.48.03 8.91 0 17.9 2.78 22.47 10.82 1.73 3.047 3.01 6.12 3.84 9.22 1.49 5.52 2.76 11.647 3.81 18.38.41 2.627 1.99 4.473 4.74 5.54 3.81 1.48 7.31 1.363 10.52-.35 1.87-1 3.05-2.72 2.99-4.88-.29-11.653-.67-25.09-1.14-40.31-.09-3.06-.41-5.143-.96-6.25-1.11-2.287-3.19-3.43-6.22-3.43-53.68-.02-103.87-.017-150.56.01-4.92 0-7.44 2.46-7.55 7.38-.31 13.287-.62 27.157-.94 41.61-.15 6.9 6.67 8.14 12.15 6.58 3.12-.89 5.69-2.25 6.14-5.8.83-6.447 2.18-13.037 4.04-19.77 3.37-12.21 11.83-18.52 24.43-18.7 7.02-.093 14.09-.103 21.21-.03.39.007.58.2.58.58.07 50.06.06 98.147-.01 144.26-.01 4.633-.61 9.26-1.82 13.88-1.67 6.36-8.41 9.69-14.56 9.85-3.13.08-6.02.35-8.66.81-.29.053-.53.2-.71.44-.95 1.287-1.47 2.91-1.57 4.87-.16 3.253.86 5.417 3.06 6.49 1.15.553 3.2.76 6.17.62 21.75-1.033 44.59-1.03 68.52.01 1.12.047 2.18-.027 3.19-.22 5.23-1 5.67-12.52-.65-12.73-5.2-.18-12.06-.06-16.28-3.68-2.91-2.5-4.65-5.41-5.2-8.73-.81-4.84-1.22-10.057-1.21-15.65.03-45.747.04-92.467.02-140.16 0-.46.23-.69.68-.69ZM339.53 1003.52c.9 8.87 5.04 20.93 14.89 23.48 11.38 2.94 19.64-4.04 22.83-14.46 3.65-11.9 3.64-29.93-5.01-40.26-3.327-3.96-7.747-5.91-13.26-5.85-18.09.19-20.78 23.94-19.45 37.09ZM574.04 1026.67c5.78-1.92 9.96-7.9 11.75-13.55 3.253-10.27 3.36-20.677.32-31.21-1.89-6.52-6.68-13.53-13.7-14.97-9.034-1.847-15.747 1.423-20.14 9.81-5.88 11.21-5.79 29.36-.22 40.25 4.45 8.71 12.48 12.82 21.99 9.67ZM647.46 1006.19c-5.36 6.47-11.083 13.37-17.17 20.68-.003.01-.005.01-.005.02-.001.01.001.01.004.02.003 0 .007.01.013.01.005.01.011.01.018.01.76.04 3.317.06 7.67.06.173 0 .313-.07.42-.2a5297.91 5297.91 0 0 0 23.16-27.98c3.16-3.833 4.65-8.277 4.47-13.33-.62-17.52-22.43-25.63-34.49-13.07-3.747 3.9-5.613 8.607-5.6 14.12.01 11.63 9.13 19.05 20.38 19.54.204.01.41-.02.6-.11l.24-.12c.7-.38.797-.26.29.35ZM774.71 1020.83a.271.271 0 0 1-.125-.04.262.262 0 0 1-.083-.1.233.233 0 0 1-.013-.13c.009-.05.03-.09.061-.12 7.013-6.87 13.92-13.77 20.72-20.68 3.707-3.767 5.507-8.437 5.4-14.01-.21-10.99-9.38-19.42-20.26-19.38-11.26.04-20.15 8.93-20.03 20.39 0 .227.117.34.35.34l5.5.01c.18 0 .27-.09.27-.27.047-5.44 2.393-9.547 7.04-12.32 6.85-4.09 16.17-1.17 19.35 6.18 2.487 5.753 1.373 11.013-3.34 15.78a9150.255 9150.255 0 0 1-29.75 29.94.336.336 0 0 0-.069.36c.025.05.066.11.119.14.053.04.116.06.18.06l40.97.01c.24 0 .36-.12.36-.37l-.03-5.41c0-.24-.123-.36-.37-.36l-26.25-.02ZM843.57 1003.79c.96 8.84 5.09 20.7 14.86 23.21 11.97 3.08 20.17-4.7 23.16-15.57 2.88-10.45 2.92-23.78-1.95-33.85-3.11-6.43-8.02-10.82-15.5-11.14-19.03-.83-22.07 23.58-20.57 37.35ZM940.14 1020.83a.285.285 0 0 1-.175-.06.283.283 0 0 1-.116-.14.271.271 0 0 1-.021-.17.294.294 0 0 1 .082-.16c6.187-6.14 12.313-12.19 18.38-18.15 4.85-4.78 7.6-9.14 7.64-15.78.1-17.76-21.4-26.53-34.17-14.4-4.247 4.033-6.28 8.98-6.1 14.84a.31.31 0 0 0 .31.3l5.5-.01c.2 0 .3-.1.3-.3-.12-6.58 4.68-12.83 11.39-13.93 13.54-2.21 21.69 13.49 11.82 23.44-10.36 10.44-20.337 20.48-29.93 30.11a.357.357 0 0 0-.088.17.338.338 0 0 0 .144.34.39.39 0 0 0 .184.05l40.96.01c.247 0 .37-.12.37-.37v-5.38c0-.1-.041-.2-.114-.28a.4.4 0 0 0-.276-.11l-26.09-.02ZM1045.23 1015.06c0-.08.03-.16.09-.21.05-.06.13-.09.21-.09l6.92.01c.08 0 .16-.03.21-.09.06-.05.09-.13.09-.21v-5.69c0-.08-.03-.16-.09-.21a.272.272 0 0 0-.21-.09l-6.92.02c-.08 0-.16-.03-.21-.09a.272.272 0 0 1-.09-.21l-.1-40.63a.447.447 0 0 0-.02-.115.375.375 0 0 0-.07-.097.293.293 0 0 0-.1-.065.254.254 0 0 0-.11-.023l-8.15-.01c-.05 0-.1.011-.14.034a.37.37 0 0 0-.11.096l-31.03 46.91c-.03.05-.05.1-.05.15-.01.06.01.11.03.16.03.05.07.09.11.12.05.03.11.04.16.04l32.83-.01c.08 0 .16.03.21.09.06.05.09.13.09.21l.01 11.62c0 .08.03.16.09.21.05.06.13.09.21.09l5.83.01c.08 0 .16-.03.21-.09.06-.05.09-.13.09-.21l.01-11.63ZM444.85 973.7a.304.304 0 0 1 .247.138.295.295 0 0 1 .023.282l-23.14 52.42c-.02.05-.028.1-.024.15.004.05.021.09.049.14.028.04.066.07.111.1a.35.35 0 0 0 .144.03l6.16.04a.308.308 0 0 0 .28-.18l26.01-58.88a.297.297 0 0 0-.023-.282.304.304 0 0 0-.247-.138l-36.77-.01a.3.3 0 0 0-.3.3l.02 5.6a.3.3 0 0 0 .3.3l27.16-.01ZM261.5 1005.32c0-.09-.037-.18-.102-.25a.375.375 0 0 0-.248-.1H84.91a.373.373 0 0 0-.247.1.369.369 0 0 0-.103.25v4.3c0 .09.037.18.103.25.065.06.154.1.247.1h176.24c.093 0 .182-.04.248-.1a.371.371 0 0 0 .102-.25v-4.3ZM1307.26 1005.47a.47.47 0 0 0-.15-.35.47.47 0 0 0-.35-.15h-176.14a.47.47 0 0 0-.35.15.47.47 0 0 0-.15.35v4c0 .13.05.26.15.35.09.1.22.15.35.15h176.14c.13 0 .26-.05.35-.15.1-.09.15-.22.15-.35v-4ZM505.7 1022.91c0-1.32-.525-2.59-1.459-3.52a4.955 4.955 0 0 0-3.521-1.46c-1.321 0-2.587.52-3.521 1.46a4.971 4.971 0 0 0-1.459 3.52c0 1.32.525 2.59 1.459 3.52.934.94 2.2 1.46 3.521 1.46 1.321 0 2.587-.52 3.521-1.46a4.971 4.971 0 0 0 1.459-3.52ZM716.19 1022.91c0-.65-.129-1.3-.378-1.9-.25-.6-.616-1.15-1.078-1.61a4.843 4.843 0 0 0-1.612-1.08 4.966 4.966 0 0 0-1.902-.38 4.94 4.94 0 0 0-3.514 1.46 4.954 4.954 0 0 0-1.078 5.41c.25.6.616 1.15 1.078 1.61.461.47 1.009.83 1.612 1.08.603.25 1.249.38 1.902.38.653 0 1.299-.13 1.902-.38a4.843 4.843 0 0 0 1.612-1.08c.462-.46.828-1.01 1.078-1.61.249-.6.378-1.25.378-1.9Z" stroke="#000" stroke-width="2"/>
        <path d="M568.3 49.32c4.12-4.24 8.08-10.1 6.26-16.13-1.32-4.38-4.25-6.127-8.79-5.24-1.933.373-3.287 1.363-4.06 2.97-2.71 5.62 2.14 13.92 6.03 18.38a.373.373 0 0 0 .276.133.381.381 0 0 0 .284-.113ZM574.6 78.17c5.507-.213 9.873-2.67 13.1-7.37a.413.413 0 0 0-.019-.481.413.413 0 0 0-.131-.109c-8.133-4.107-15.367-9.087-21.7-14.94-.353-.333-.69-.317-1.01.05-4.88 5.63-6.19 13.05-.75 18.86 2.647 2.827 6.15 4.157 10.51 3.99ZM800.46 41.75c-3.77 11.1-2.89 25.34 6.54 33.25 3.853 3.233 8.507 4.793 13.96 4.68 8.31-.17 14.75-5.68 17.81-13.2 5.93-14.58 2.74-31.76-13.37-37.12-11.28-3.76-21.15 1.23-24.94 12.39ZM407.19 112.29a.338.338 0 0 0 .047.157.325.325 0 0 0 .433.123l15.62-8.02a.332.332 0 0 0 .154-.43.33.33 0 0 0-.104-.13l-16.82-13.53a.33.33 0 0 0-.54.28l1.21 21.55ZM1008.75 125.61a.286.286 0 0 0-.09.114.357.357 0 0 0-.03.144c0 .05.02.098.04.14.03.042.07.077.11.102l15.18 9.08c.04.028.09.044.15.046.05.003.1-.008.15-.031a.35.35 0 0 0 .11-.101.253.253 0 0 0 .05-.144l2.08-21.81a.25.25 0 0 0-.03-.169.333.333 0 0 0-.12-.124.308.308 0 0 0-.33.023l-17.27 12.73ZM1166.09 253.21c-.05.019-.1.05-.14.092a.296.296 0 0 0-.08.148.325.325 0 0 0-.01.169c.02.056.04.108.08.151l11.65 13.13c.04.043.09.077.14.096.06.02.12.025.17.016a.322.322 0 0 0 .16-.067.298.298 0 0 0 .11-.135l8.83-19.58a.332.332 0 0 0-.06-.375.326.326 0 0 0-.16-.106.348.348 0 0 0-.2.001l-20.49 6.46ZM730.84 393.38c.093.033.13.1.11.2l-8.57 33.17c-.14.54.063.75.61.63a.802.802 0 0 1 .65.15c2.26 1.69 8.82-.34 11.27-1.47 10.77-4.97 16.18-13.67 19.01-25.12 2.47-9.98 3.7-19.9 4.61-30.17.94-10.533.577-20.277-1.09-29.23a8.404 8.404 0 0 0-1.06-2.78 1.922 1.922 0 0 0-1.203-.88 1.956 1.956 0 0 0-1.477.24c-7.107 4.433-14.18 9.717-21.22 15.85a495.58 495.58 0 0 0-10.12 9.06c-5.39 4.96-9.65 10.95-11.04 18.2-2.04 10.66.41 21.62 2.55 32.09.867 4.24 2.517 8.117 4.95 11.63.467.673.823.617 1.07-.17a676.317 676.317 0 0 1 10.62-31.44c.02-.033.047-.047.08-.04l.25.08ZM694.04 426.03c-.76-4.16-3.42-8.27-6.33-11.21-4.467-4.5-8.09-9.963-10.87-16.39-1.97-4.53-4.51-10.11-8.1-13.56-.447-.42-.557-.347-.33.22 2.72 6.8 5.86 13.35 6.29 20.67.48 7.95-.82 17.69 4.42 24.03 4.167 5.047 9.017 10.323 14.55 15.83a22.902 22.902 0 0 1 3.4 4.29c.24.387.377.353.41-.1.2-2.59-.82-4.88-1.09-7.42a216.222 216.222 0 0 0-2.35-16.36ZM630.67 426.66c-2.493 10.233-3.937 20.113-4.33 29.64-.62 14.89 2.01 31.16 10.28 43.44a521.171 521.171 0 0 0 11.28 16.06c.28.387.447.34.5-.14.573-5.507.717-10.447.43-14.82-.54-8.32-4.08-15.86-8.12-23.56-4.027-7.687-6.653-16.023-7.88-25.01-.993-7.227-.98-15.673.04-25.34a1.744 1.744 0 0 0-.12-.86c-.36-.93-.26-2.13-1.03-2.85-.28-.253-.44-.19-.48.19a24.508 24.508 0 0 1-.57 3.25Z" stroke="#000" stroke-width="2"/>
        <path d="M637.66 440.66a69.75 69.75 0 0 0-2.04-5.78c-.167-.42-.22-.407-.16.04 1.4 9.4 2.787 18.42 4.16 27.06.86 5.413 2.086 10.523 3.68 15.33 1.86 5.64 5.06 10.9 7.69 16.37 3.93 8.19 2.25 15.54-.07 24.02a3.964 3.964 0 0 0 .73 3.52l2.07 2.57c.773.96 1.26.833 1.46-.38 1.227-7.547 2.053-15.55 2.48-24.01.45-8.78-.28-19.42-4.16-26.69-3.88-7.28-8.59-14.28-12.07-22.03a87.425 87.425 0 0 1-3.77-10.02ZM745.97 484.75c1.35 3.44.97 6.54.22 10.01-.6 2.79.99 5.59 2.14 8.05 1.64 3.54 1.817 7.097.53 10.67-.167.473-.05.557.35.25 1.19-.91 2.29-1.87 3.5-2.77 6.43-4.75 4.76-19.65 3.24-26.45-2.05-9.14-4.69-18.9-8.49-27.63-.333-.767-.587-.743-.76.07-2.64 12.46-5.6 24.84-9.23 36.81-2.82 9.29-3.53 18.59 1.07 27.25.22.42.517.483.89.19l6.03-4.78c.32-.253.453-.583.4-.99-.67-5.07-1.95-9.86-1.47-14.98.53-5.73-4.46-10.79.86-15.86.32-.307.56-.253.72.16ZM821.61 491.38c2.16-.36 2.367.113.62 1.42-5.31 3.98-11.83 5.34-18.52 4.99-6.88-.37-14.11 2.16-21.04 4.09-6.45 1.79-12.87 3.69-19.07 6.27-.547.227-.543.447.01.66a434.45 434.45 0 0 0 11.86 4.38 82.41 82.41 0 0 0 20.45 4.39c28.83 2.45 49.54-22.45 64.2-43.98.22-.32.137-.497-.25-.53-14.58-1.213-27.803-1.073-39.67.42-11.193 1.407-22.033 3.583-32.52 6.53-4.99 1.41-12.1 4.13-15.03 8.69-2.44 3.793-4.593 8.693-6.46 14.7-.147.473-.04.54.32.2 3.81-3.51 8.45-5.03 13.49-6.12 5.43-1.16 11.39-.88 16.85-1.15 3.33-.16 6.56-1.1 9.77-2.04a63.571 63.571 0 0 1 7.36-1.65c2.507-.42 5.05-.843 7.63-1.27ZM685.04 488.35c-.147-1.06-.277-2.11-.39-3.15-.013-.113-.077-.163-.19-.15h-.01c-.127.013-.187.083-.18.21a73.626 73.626 0 0 1-2.11 24.24c-.82 3.213-1.5 6.38-2.04 9.5-.52 3.02-.37 6.11-.3 9.17.15 5.96-2.33 11.13-6.4 15.5-.153.167-.153.33 0 .49l3.89 4.18c.187.2.363.19.53-.03 2.293-3.027 3.743-4.977 4.35-5.85 3.25-4.69 4.45-10.37 4.34-16.26-.113-5.627-.08-10.9.1-15.82a93.2 93.2 0 0 0-.07-7.55 113.12 113.12 0 0 0-.65-7.81c-.233-2.007-.523-4.23-.87-6.67Z" stroke="#000" stroke-width="2"/>
        <path d="M678.43 502.56c-2.79 9.41-6.63 18.22-9.79 27.45-.727 2.107-1.19 4.46-1.39 7.06a1.657 1.657 0 0 0 .46 1.29l3.52 3.63a.56.56 0 0 0 .519.151.527.527 0 0 0 .391-.361 574.609 574.609 0 0 0 5.6-18.52c.14-.493.243-1.01.31-1.55.18-1.447.273-1.977.28-1.59.002.001.004-.001.006-.007a.213.213 0 0 0 .006-.028l.005-.041.003-.044.24-17.42a.081.081 0 0 0-.002-.031.092.092 0 0 0-.014-.028.08.08 0 0 0-.054-.031.078.078 0 0 0-.059.016.086.086 0 0 0-.031.054ZM768.76 548.76c-4.49-.07-8.36-1.27-12.15-3.62-2.513-1.56-5.263-2.43-8.25-2.61a61.614 61.614 0 0 1-17.73-3.76 1.43 1.43 0 0 0-.916-.026 1.396 1.396 0 0 0-.734.536l-1.65 2.39c-.387.567-.283 1.02.31 1.36 4.533 2.593 9.083 4.637 13.65 6.13a264.78 264.78 0 0 0 24.13 6.63c8.227 1.853 16.497 2.137 24.81.85.407-.06.463-.233.17-.52a20.216 20.216 0 0 0-2.58-2.14 45.105 45.105 0 0 1-5.73-4.77c-2.63-2.58-5.48-4.72-8.44-7.21-2.087-1.753-4.417-3.453-6.99-5.1-8.99-5.77-20.09-7.51-30.18-4.93-1.467.38-2.58 1.277-3.34 2.69-.227.413-.103.633.37.66 6.15.27 11.54 2.86 17.02 5.41 2.047.953 4.363 1.54 6.95 1.76 2.95.25 6.86 1.5 9.49 3.43.687.507 1.413.977 2.18 1.41 1.76.993 1.63 1.47-.39 1.43ZM669.07 546.34c.173-.047.19-.13.05-.25-4.04-3.447-7.98-7.01-11.82-10.69-3.03-2.92-8.33-1.8-12.01-.91a92.056 92.056 0 0 0-6.59 1.85c-6.98 2.227-13.887 3.31-20.72 3.25-7.433-.067-15.013-.8-22.74-2.2-.653-.12-.72.027-.2.44 3.04 2.413 6.3 4.837 9.78 7.27 4.053 2.833 7.573 4.73 10.56 5.69 4.867 1.573 9.62 2.293 14.26 2.16 5.05-.15 10.15-.42 15.11-1.25 8.513-1.42 16.62-3.207 24.32-5.36ZM794.6 594.11c-3.93 9.53-7.52 19.61-12.26 28.87a.486.486 0 0 0 .014.486.495.495 0 0 0 .426.234c19.67-.13 37.56-9.06 51.25-22.73 5.48-5.473 9.217-11.7 11.21-18.68 3.28-11.5 4.67-24.067 4.17-37.7-.014-.34-.173-.433-.48-.28-8.16 4.227-15.617 8.66-22.37 13.3-6.487 4.467-12.58 9.66-18.28 15.58-5.9 6.14-10.46 13.113-13.68 20.92ZM762.17 636.28c.63 1.29 1 2.64 1.47 3.96.2.547.46.577.78.09 2.8-4.287 5.903-8.76 9.31-13.42.973-1.333 1.397-2.703 1.27-4.11-1.55-16.74-8.88-32.69-17.44-46.99a.246.246 0 0 0-.241-.113.227.227 0 0 0-.122.057.22.22 0 0 0-.067.116c-2.04 8.027-3.51 15.973-4.41 23.84-.493 4.28-.633 8.37-.42 12.27.46 8.59 6.05 16.48 9.87 24.3ZM630.07 596.18a.25.25 0 0 1 .184-.118.22.22 0 0 1 .108.015.22.22 0 0 1 .088.063c2.32 2.59 4.36 5.33 6.73 7.81 6.52 6.85 13.5 13.26 19.65 20.75 5.21 6.36 10.6 12.56 15.11 19.18 4.54 6.687 9.207 14.07 14 22.15 3.88 6.54 6.77 12.32 8.67 17.34 2.827 7.473 5.01 15.437 6.55 23.89.153.827.597 1.357 1.33 1.59.353.113.537-.013.55-.38.167-7.353-.887-15.673-3.16-24.96-2.8-11.44-5.593-21.213-8.38-29.32-7.35-21.39-22.16-37.49-41.25-49.91-6.887-4.48-14.217-8.493-21.99-12.04a.128.128 0 0 0-.064-.011.116.116 0 0 0-.061.024.118.118 0 0 0-.045.117c3.813 22.473 11.633 43.277 23.46 62.41 6.4 10.38 14.24 19.51 22.85 28.3 8.413 8.587 16.717 16.433 24.91 23.54.56.487.713.383.46-.31-1.57-4.27-3.81-8.08-5.53-12.39-2.82-7.087-5.84-14.89-9.06-23.41-3.487-9.227-9.02-17.78-16.6-25.66-11.567-12.033-21.763-23.627-30.59-34.78-3.387-4.273-6.043-8.647-7.97-13.12a.812.812 0 0 1 .05-.77ZM763.57 656.56c-1.087-.16-1.11-.42-.07-.78 7.533-2.58 14.953-2.773 22.26-.58 6.99 2.1 15 7.69 22.53 9.81 3.98 1.12 8.3 1.61 12.08 3.38 1.087.513 2.287.983 3.6 1.41 1.853.607 3.69 1.683 5.51 3.23.047.04.09.037.13-.01l.17-.2c.107-.12.103-.237-.01-.35-.6-.573-1.23-1.1-1.89-1.58-7.82-5.627-16.137-10.677-24.95-15.15-6.547-3.32-13.173-5.63-19.88-6.93-5.787-1.12-11.183-.753-16.19 1.1-2.08.767-3.707 2.597-4.88 5.49a2.358 2.358 0 0 0-.18 1.09c.027.36-.067.69-.28.99a.811.811 0 0 0 .07 1.02c1.293 1.38 2.693 2.49 4.2 3.33 4.73 2.63 9.72 4.38 14.5 6.78 6.487 3.267 13.557 5.327 21.21 6.18a234.781 234.781 0 0 0 31 1.39c.253-.007.833-.123 1.74-.35.18-.047.25-.16.21-.34l-.06-.27a.556.556 0 0 0-.215-.34.537.537 0 0 0-.385-.1c-2.747.3-5.507.127-8.28-.52a57.108 57.108 0 0 1-14.5-5.51c-2.87-1.56-5.81-3.19-8-3.77-5.613-1.473-11.38-2.983-17.3-4.53-7.3-1.91-14.66-2.76-22.14-3.89ZM600.9 719.06c-3.16-.547-3.143-.957.05-1.23 10.833-.913 21.99-1.117 33.47-.61 7.86.347 15.59.167 23.19-.54 3.73-.35 8.2-.22 11.64.91 5.84 1.927 12.173 3.687 19 5.28a.886.886 0 0 0 .845-.258.884.884 0 0 0 .195-.862c-1.06-3.35-5.47-7.15-8.14-8.79-7.89-4.83-15.68-6.85-25.25-6.96-5.527-.067-10.367.253-14.52.96-5.82.987-11.213 1.71-16.18 2.17-5.247.487-10.93.12-17.05-1.1-12.59-2.51-23.76 7.11-36.18 8.06-.7.053-.78.303-.24.75 13.253 10.94 27.957 18.67 44.11 23.19 9.63 2.69 19.31 4.05 28.71 3.55 16.313-.873 30.39-5.91 42.23-15.11.453-.353.4-.6-.16-.74a104.41 104.41 0 0 1-18.41-6.58c-2.1-.98-4.84-1.72-7.17-1.97-5.993-.653-12.443-.48-19.35.52-13.527 1.96-27.123 1.747-40.79-.64ZM303.68 652.58a.468.468 0 0 0 .43.65l62.57-.02a.463.463 0 0 0 .389-.204.473.473 0 0 0 .051-.436l-30.5-77.68a.47.47 0 0 0-.88-.01l-32.06 77.7ZM366 975.8c-5.1-4.99-12.69-3.26-16.24 2.67-4.95 8.26-5.29 19.58-3.39 28.78 1.19 5.75 4.14 12.48 10.39 13.99 7.82 1.89 12.44-5.36 14.26-11.66 2.6-8.99 2.353-18.01-.74-27.05-.867-2.553-2.293-4.796-4.28-6.73ZM579.11 1011.46c3.393-9.54 3.3-19.353-.28-29.44-2.35-6.61-8.64-11.39-15.82-7.93-3.3 1.59-5.37 5.3-6.51 8.57-3.293 9.473-3.31 19.15-.05 29.03 2.28 6.93 8.4 12.22 15.83 8.73 3.26-1.53 5.65-5.63 6.83-8.96ZM659.67 986.12c0-3.644-1.448-7.139-4.024-9.716a13.744 13.744 0 0 0-19.432 0 13.744 13.744 0 0 0 0 19.432 13.74 13.74 0 0 0 23.456-9.716ZM870.02 975.81c-5.12-5.01-12.72-3.27-16.28 2.69-4.7 7.85-5.18 18.35-3.66 27.31.72 4.2 2.123 7.83 4.21 10.89 4.21 6.15 12.51 6.58 17.07.4 1.633-2.22 2.843-4.69 3.63-7.42 2.613-9.04 2.39-18.063-.67-27.07-.88-2.587-2.313-4.853-4.3-6.8ZM1016.29 1007.97c-.03.05-.05.11-.06.17 0 .06.01.12.04.18.03.05.07.1.13.13.05.03.11.05.17.05l21.86-.01c.09 0 .18-.04.24-.1.06-.06.1-.15.1-.24l.05-33.15a.312.312 0 0 0-.07-.206.327.327 0 0 0-.18-.123.316.316 0 0 0-.21.01.352.352 0 0 0-.17.139l-21.9 33.15Z" stroke="#000" stroke-width="2"/>
        <path d="M740.42 17.73c-3.63-.58-6 1.02-6.18 4.5-.86 16.307-1.73 32.573-2.61 48.8-.39 7.34-3.1 15.62-11.15 17.55-3.22.77-13.31 1.06-10.46-5.04.153-.327.397-.553.73-.68 3.78-1.45 4.77 1.76 6.67 3.92.201.234.475.395.78.46 6.53 1.45 7.4-9.03 7.64-13.6.847-16.18 1.757-33.517 2.73-52.01.25-4.77-4.42-4.88-7.85-5.07a.253.253 0 0 1-.185-.09.273.273 0 0 1-.065-.2l.01-.26a.44.44 0 0 1 .305-.398.454.454 0 0 1 .175-.022l19.6 1.07a.39.39 0 0 1 .271.13.373.373 0 0 1 .074.131c.015.048.02.099.015.15l-.04.3a.405.405 0 0 1-.152.279.4.4 0 0 1-.308.08ZM590.36 65.15c1.04-4.147 1.167-8.083.38-11.81-.747-3.487-2.963-4.867-6.65-4.14a.264.264 0 0 1-.148-.016.251.251 0 0 1-.112-.094l-.16-.22a.504.504 0 0 1-.057-.474.494.494 0 0 1 .367-.306l16.98-3.34a.381.381 0 0 1 .324.081.4.4 0 0 1 .146.309v.35a.453.453 0 0 1-.39.43c-4.64.53-5.72 2.4-6.26 7.02a64.597 64.597 0 0 1-2.89 12.99c-.107.327-.007.567.3.72 6.167 3.02 12.273 4.847 18.32 5.48.09.008.176.045.246.106.07.06.12.142.144.234.073.28-.04.517-.34.71a.752.752 0 0 1-.27.11c-2.173.373-4.39.803-6.65 1.29-4.91 1.06-9.66-.97-13.76-3.2-.287-.153-.547-.117-.78.11-1.09 1.07-1.88 2.51-2.98 3.51-5.253 4.753-11.353 6.96-18.3 6.62-9.56-.48-15.1-10.08-10.55-18.5 1.707-3.16 3.907-6.103 6.6-8.83a.799.799 0 0 0 0-1.12c-2.3-2.347-4.12-4.937-5.46-7.77-4.55-9.61 1.01-18.92 11.36-20.1 7.82-.88 11.9 5.9 9.26 12.75-1.81 4.72-6.02 8.88-9.65 12.23a.535.535 0 0 0-.172.388.553.553 0 0 0 .162.392c5.693 5.687 12.477 10.483 20.35 14.39.333.167.547.067.64-.3ZM568.3 49.32c4.12-4.24 8.08-10.1 6.26-16.13-1.32-4.38-4.25-6.127-8.79-5.24-1.933.373-3.287 1.363-4.06 2.97-2.71 5.62 2.14 13.92 6.03 18.38a.374.374 0 0 0 .276.133.381.381 0 0 0 .284-.113Zm6.3 28.85c5.507-.213 9.873-2.67 13.1-7.37a.413.413 0 0 0-.019-.481.413.413 0 0 0-.131-.109c-8.133-4.107-15.367-9.087-21.7-14.94-.353-.333-.69-.317-1.01.05-4.88 5.63-6.19 13.05-.75 18.86 2.647 2.827 6.15 4.157 10.51 3.99ZM833.3 29.42c4.22 1.773 7.82 4.937 10.8 9.49 5.89 8.99 5.42 21.55-.79 30.19-14.16 19.69-48.76 14.93-51.66-11.38-1.62-14.75 6.73-27.27 21.6-30.26 6.933-1.387 13.617-.733 20.05 1.96Zm-32.84 12.33c-3.77 11.1-2.89 25.34 6.54 33.25 3.853 3.233 8.507 4.793 13.96 4.68 8.31-.17 14.75-5.68 17.81-13.2 5.93-14.58 2.74-31.76-13.37-37.12-11.28-3.76-21.15 1.23-24.94 12.39ZM913.42 59.47a3241.42 3241.42 0 0 0-13.36 34.54c-1.45 3.8-1.42 7.45 2.89 9.24.327.14.433.38.32.72l-.1.29a.262.262 0 0 1-.232.176.235.235 0 0 1-.098-.016l-13.61-5.27c-.287-.113-.417-.32-.39-.62l.02-.27a.285.285 0 0 1 .133-.222.287.287 0 0 1 .257-.028c5.17 1.89 7.47-1.26 9.09-5.43 4.68-11.993 9.357-24.037 14.03-36.13.133-.327.123-.65-.03-.97-.967-2.007-2.573-3.647-4.82-4.92-.127-.073-.157-.177-.09-.31l.13-.26a.52.52 0 0 1 .66-.24l9.82 3.83a1.095 1.095 0 0 1 .65.69l17.08 52.96c.2.613.417.62.65.02 4.28-10.873 8.55-21.94 12.81-33.2 1.5-3.953.407-6.8-3.28-8.54-.327-.16-.373-.377-.14-.65l.24-.28c.047-.06.107-.077.18-.05l13.85 5.36c.22.087.28.237.18.45l-.13.3a.448.448 0 0 1-.59.24c-4.32-1.79-7.22 1.1-8.72 4.96a13641.79 13641.79 0 0 0-16.12 41.56.693.693 0 0 1-.305.355.716.716 0 0 1-.465.085c-.307-.047-.51-.223-.61-.53a82345.99 82345.99 0 0 0-19.19-57.82c-.22-.653-.457-.66-.71-.02ZM407.34 115.15c.287 4.553.543 9.09.77 13.61.35 6.92 5 7.85 10.44 4.98.22-.113.387-.063.5.15l.16.27c.187.34.1.583-.26.73-5.647 2.267-11.267 5.017-16.86 8.25a.553.553 0 0 1-.409.06.537.537 0 0 1-.331-.24l-.16-.25c-.093-.14-.067-.25.08-.33 2.907-1.567 4.457-3.827 4.65-6.78.22-3.34.207-7.03-.04-11.07a4321.903 4321.903 0 0 1-2.37-41.9.65.65 0 0 1 .067-.308.602.602 0 0 1 .203-.232c.333-.233.653-.227.96.02a5574.072 5574.072 0 0 0 38.94 30.77c3.14 2.46 6.53 4.88 10.83 3.21.18-.067.29-.007.33.18l.08.33c.087.393-.057.663-.43.81a119.684 119.684 0 0 0-16.11 7.88c-.307.18-.553.12-.74-.18l-.14-.22c-.073-.12-.053-.217.06-.29l3.62-2.44a1.948 1.948 0 0 0 .63-2.53c-.527-.98-1.26-1.85-2.2-2.61-4.753-3.8-9.347-7.473-13.78-11.02-.28-.227-.583-.26-.91-.1l-17.1 8.42c-.347.167-.507.443-.48.83Zm-.15-2.86a.326.326 0 0 0 .163.271.325.325 0 0 0 .317.009l15.62-8.02a.33.33 0 0 0 .05-.56l-16.82-13.53a.33.33 0 0 0-.54.28l1.21 21.55ZM1006.32 127.41c-3.34 2.467-6.943 5.11-10.81 7.93-6.04 4.41-3.84 8.13 1.43 11.7a.448.448 0 0 1 .194.34.433.433 0 0 1-.154.36l-.27.22c-.113.1-.233.107-.36.02a141.244 141.244 0 0 0-16.46-9.8.444.444 0 0 1-.226-.509.42.42 0 0 1 .096-.171l.26-.29c.1-.107.213-.123.34-.05 3.8 2.19 7.5 1.01 11.04-1.52 11.96-8.567 25.26-18.26 39.91-29.08.49-.367.9-.32 1.22.14.09.129.13.282.12.43-1.43 15.3-2.98 31.78-4.64 49.44-.38 4.01-.39 8.17 3.18 10.87.07.053.1.123.08.21l-.06.28a.56.56 0 0 1-.35.417c-.09.035-.18.047-.28.035a.603.603 0 0 1-.26-.102 126.206 126.206 0 0 0-15.75-9.48.342.342 0 0 1-.13-.111.43.43 0 0 1-.06-.159.411.411 0 0 1 .11-.32l.25-.24a.445.445 0 0 1 .28-.132c.1-.011.21.015.3.072 2.35 1.45 6.23 3.38 6.83-1.28.79-6.2 1.43-12.54 1.92-19.02a.44.44 0 0 0-.05-.251.454.454 0 0 0-.18-.189l-16.46-9.81c-.36-.22-.71-.203-1.06.05Zm2.43-1.8a.286.286 0 0 0-.09.114.357.357 0 0 0-.03.144c0 .05.02.098.04.14.03.042.07.077.11.102l15.18 9.08c.04.028.09.044.15.046.05.003.1-.008.14-.031a.296.296 0 0 0 .17-.245l2.08-21.81a.327.327 0 0 0-.03-.169.333.333 0 0 0-.12-.124.309.309 0 0 0-.17-.038.315.315 0 0 0-.16.061l-17.27 12.73ZM324.31 131.31c-4.83 1.37-9.7 5.64-8.03 11.06 1.867 6.047 6.047 8.99 12.54 8.83 4.24-.107 8.523-.25 12.85-.43 7.793-.327 12.853 2.703 15.18 9.09 1.88 5.16.733 10.06-3.44 14.7-3.813 4.247-8.777 6.94-14.89 8.08-1.08.2-1.923-.06-2.53-.78-2.307-2.733-4.77-5.643-7.39-8.73a.424.424 0 0 1-.001-.534.422.422 0 0 1 .151-.116l.29-.14c.133-.06.253-.047.36.04 3.493 2.967 6.75 4.803 9.77 5.51 6.587 1.553 11.47-.597 14.65-6.45 1.393-2.567 1.233-5.19-.48-7.87-3.067-4.807-7.307-7.147-12.72-7.02-4.073.1-8.127.24-12.16.42-6.78.313-11.54-2.23-14.28-7.63-2.64-5.18-.77-11.19 3.12-15.22 3.367-3.487 7.71-5.777 13.03-6.87a1.485 1.485 0 0 1 1.47.53l5.81 7.32c.22.28.197.537-.07.77l-.25.21c-.06.053-.12.053-.18 0-3.25-3.02-8.27-6.04-12.8-4.77ZM1122.96 174.86c-2.18-1.52-4.04-.96-5.64.96-8.43 10.053-17 20.243-25.73 30.57-3.88 4.6-1.15 6.71 2.39 9.71.04.039.08.088.11.142a.5.5 0 0 1 0 .346.632.632 0 0 1-.11.142l-.24.21a.24.24 0 0 1-.16.065.233.233 0 0 1-.16-.055l-16.75-14.08c-.27-.227-.26-.44.04-.64l.25-.17c.05-.032.1-.048.16-.046.05.001.11.021.15.056 2.79 2.34 6.13 5.29 9.4 1.39 9.16-10.913 17.8-21.193 25.92-30.84 1.23-1.46 2.63-3.67 1.05-5.37-6.83-7.35-12.39-9.51-20.51-2.46a.569.569 0 0 1-.39.135.546.546 0 0 1-.37-.165l-.19-.19c-.09-.093-.09-.187 0-.28l10.65-10.79c.23-.227.44-.217.65.03.13.147.17.317.12.51-.13.52-.11 1.063.04 1.572.16.509.45.964.84 1.318 8.4 7.487 17.34 15.04 26.82 22.66 1.42 1.133 2.84 2.067 4.25 2.8.69.35 1.23.12 1.92.02 1.13-.153 1.3.187.53 1.02l-9.9 10.68a.52.52 0 0 1-.33.154.508.508 0 0 1-.35-.114l-.22-.18c-.11-.093-.13-.197-.04-.31 2.98-3.98 5.73-8.73 1.98-13.27-1.57-1.913-3.63-3.757-6.18-5.53ZM261.93 179.39c-2.39 2-4.9 4.99-2.34 7.86 8.853 9.94 18.383 20.47 28.59 31.59 2.67 2.9 5.45.47 7.96-1.75a.264.264 0 0 1 .089-.051.263.263 0 0 1 .281.081l.2.24c.167.2.153.39-.04.57l-14.6 13.24a.438.438 0 0 1-.58.01l-.22-.19a.304.304 0 0 1-.077-.352.282.282 0 0 1 .077-.098c1.52-1.273 2.707-2.703 3.56-4.29.162-.304.211-.658.14-1-.233-1.18-.773-2.24-1.62-3.18a8581.386 8581.386 0 0 0-27.86-30.75c-2.93-3.22-5.95-.79-8.29 1.39a.327.327 0 0 1-.204.084.342.342 0 0 1-.216-.064l-.21-.17c-.36-.267-.367-.54-.02-.82a196.175 196.175 0 0 0 14.5-13.07.513.513 0 0 1 .652-.064c.065.045.12.105.158.174l.14.25c.073.14.05.26-.07.36ZM1176.9 269.03l-12.79-14.86a.436.436 0 0 0-.22-.14.404.404 0 0 0-.25.01c-4.22 1.353-8.49 2.717-12.82 4.09-6.87 2.19-7.08 6.46-2.64 11.53.06.07.09.161.09.252a.356.356 0 0 1-.11.238l-.19.17c-.27.253-.53.233-.76-.06-3.88-5.02-8.02-9.83-12.41-14.43-.13-.133-.13-.263.01-.39l.2-.19c.25-.227.5-.217.74.03 4.52 4.8 11.15 2.05 16.45.33 14.57-4.733 28.43-9.183 41.58-13.35a.803.803 0 0 1 .82.21c.21.22.25.46.14.72-6.91 15.573-13.48 30.437-19.7 44.59a53.662 53.662 0 0 0-1.8 4.74c-.73 2.253-.55 4.577.55 6.97.72 1.573.46 1.76-.79.56-2.11-2.02-3.75-4.74-5.76-6.96-2-2.2-4.04-4.407-6.11-6.62a.253.253 0 0 1-.05-.084c-.02-.031-.02-.065-.02-.098a.31.31 0 0 1 .02-.097.71.71 0 0 1 .06-.081l.21-.19c.29-.26.55-.243.8.05.99 1.173 2.1 2.127 3.35 2.86a1.85 1.85 0 0 0 2.33-.39c1.01-1.18 1.87-2.59 2.58-4.23 2.17-5.06 4.36-9.953 6.56-14.68.09-.18.06-.347-.07-.5Zm-10.81-15.82c-.05.019-.1.05-.14.092a.296.296 0 0 0-.08.148.325.325 0 0 0-.01.169c.02.056.04.108.08.151l11.65 13.13c.04.043.09.077.14.096.06.02.12.025.17.016a.322.322 0 0 0 .16-.067.298.298 0 0 0 .11-.135l8.83-19.58a.332.332 0 0 0-.06-.375.326.326 0 0 0-.16-.106.348.348 0 0 0-.2.001l-20.49 6.46ZM221.67 294.62c2.79-2.9 3.88-5.35.34-8.4a5137.404 5137.404 0 0 0-31.32-26.67c-3.77-3.18-5.73.45-8.23 2.41-.08.067-.16.067-.24 0l-.2-.17a.483.483 0 0 1-.167-.337.488.488 0 0 1 .127-.353 209.21 209.21 0 0 0 12.5-14.69c.253-.327.52-.34.8-.04l.18.19a.336.336 0 0 1 .092.232.358.358 0 0 1-.092.238c-2.16 2.31-4.19 5.54-1.28 8.04a3158.829 3158.829 0 0 0 31.76 27.05c1.98 1.667 3.88 1.51 5.7-.47a236.663 236.663 0 0 0 4.96-5.61c2.527-2.947 4.05-4.953 4.57-6.02 2.26-4.59.15-9.29-2.68-13.18-.253-.347-.173-.577.24-.69a.778.778 0 0 1 .76.19c2.673 2.807 5.4 5.457 8.18 7.95a1.037 1.037 0 0 1 .1 1.45l-25.45 29.89a.293.293 0 0 1-.42.03l-.2-.19c-.3-.28-.31-.563-.03-.85ZM156.5 339.99c2.666-3.993 4.756-7.473 6.27-10.44 1.413-2.767.783-5.087-1.89-6.96a.296.296 0 0 1-.13-.29l.04-.37c.046-.427.253-.527.62-.3l12.16 7.55a.277.277 0 0 1 .113.142.26.26 0 0 1-.003.178l-.11.33a.428.428 0 0 1-.25.26.427.427 0 0 1-.36-.03c-3.854-2.187-6.994-1.4-9.42 2.36a910.152 910.152 0 0 0-5.56 8.75.452.452 0 0 0-.06.351.464.464 0 0 0 .21.289c5.533 3.52 11.153 7.057 16.86 10.61 2.346 1.467 4.32 1.05 5.92-1.25 1.56-2.233 3.076-4.57 4.55-7.01 3.59-5.93 1.09-10.94-3.23-15.24a.231.231 0 0 1-.06-.253.233.233 0 0 1 .05-.077l.24-.25c.18-.193.376-.213.59-.06l9.02 6.58c.272.198.458.491.521.82.063.329-.001.669-.181.95l-18.82 29.88a.351.351 0 0 1-.167.139.386.386 0 0 1-.223.021l-.32-.06a.44.44 0 0 1-.349-.483.42.42 0 0 1 .079-.197c1.76-2.46 3.62-6.01.23-8.17a4579.305 4579.305 0 0 0-35.81-22.56c-3.9-2.43-5.66 1.34-7.61 3.7-.034.04-.074.057-.12.05l-.38-.06a.407.407 0 0 1-.29-.62l18.13-28.77a.729.729 0 0 1 1-.24l7.76 4.67c2.02 1.22 1.88 1.663-.42 1.33-.214-.033-.697-.233-1.45-.6-3.55-1.74-7.68.26-9.89 3.3a70.649 70.649 0 0 0-4.24 6.66c-1.514 2.693-.98 4.853 1.6 6.48 4.806 3.033 9.61 6.063 14.41 9.09.386.247.71.18.97-.2ZM1250.16 341.35c5.13-4.91 7.44-11.2 2.59-17.58-4.74-6.23-13.5-2.82-16.25 3.07-.99 2.1-1.47 4.493-1.46 7.18.01 4.573-.02 8.903-.1 12.99-.12 6.09-3.62 11.35-9.54 13.19-5.45 1.693-10.36.34-14.74-4.06-4.41-4.433-6.89-9.897-7.45-16.39a.968.968 0 0 1 .09-.529c.07-.166.19-.311.33-.421l9.41-7.23c.31-.227.58-.197.83.09l.23.25c.08.093.08.18-.01.26-7.1 7.26-10.63 17.45-.56 24.44 1.84 1.28 4.35 1.44 6.43.65 16.95-6.4 3.64-25.73 13.34-36.02 7.06-7.5 17.22-3.69 21.98 3.96 1.86 2.993 3.09 6.183 3.68 9.57.19 1.04-.13 1.847-.96 2.42-2.48 1.74-4.94 3.48-7.37 5.22a.254.254 0 0 1-.1.045.26.26 0 0 1-.2-.032.28.28 0 0 1-.08-.073l-.16-.23a.635.635 0 0 1-.11-.401.577.577 0 0 1 .18-.369ZM760.45 735.13c-5.5-9.433-9.12-15.937-10.86-19.51-7.233-14.853-12.753-27.307-16.56-37.36-3.627-9.567-8.26-23.317-13.9-41.25-2.113-6.733-6.677-22.28-13.69-46.64-.59-2.04-1.78-4.03-3.04-5.76a369.159 369.159 0 0 0-13.04-16.91c-5.46-6.687-11.763-13.393-18.91-20.12-.233-.22-.493-.257-.78-.11-4.327 2.16-9.54 4.267-15.64 6.32-13.78 4.65-29.04 6.66-41.78.55-4.167-2-7.927-4.5-11.28-7.5-3.827-3.433-7.617-7.243-11.37-11.43-.82-.913-.64-1.2.54-.86 8.833 2.587 18.367 3.09 28.6 1.51 8.327-1.293 16.287-2.89 23.88-4.79 2.96-.74 6.41-.67 9.47-.38.467.04.557-.123.27-.49a179.433 179.433 0 0 0-3.22-4.11 72.234 72.234 0 0 1-3-4c-3.84-5.513-7.64-11.077-11.4-16.69-7.047-10.513-10.833-22.303-11.36-35.37-.32-7.833.287-16.023 1.82-24.57a568.733 568.733 0 0 1 5.72-27.97c.28-1.193.643-1.22 1.09-.08 2.41 6.15 4.5 12.55 6.97 18.42 1.76 4.18 3.45 8.52 5.59 12.43 2.887 5.3 6.15 10.95 9.79 16.95 6.31 10.41 7.81 21.33 6.72 33.08a134.595 134.595 0 0 1-5.27 26.88c-.2.667-.057 1.243.43 1.73l8.38 8.48c.387.387.59.307.61-.24.107-4.207.587-7.877 1.44-11.01 4.707-17.313 10.757-35.03 18.15-53.15.493-1.207.78-1.157.86.15.747 12.847 1.98 25.303 3.7 37.37 1.04 7.28 1.92 13.95 1.24 21.2-.593 6.253-3.277 11.547-8.05 15.88a319.363 319.363 0 0 1-3.63 3.25c-.293.267-.307.547-.04.84 8.2 9.053 15.6 19.003 22.2 29.85a30.158 30.158 0 0 1 2.29 4.63.053.053 0 0 0 .013.02.065.065 0 0 0 .022.011.049.049 0 0 0 .024 0 .053.053 0 0 0 .021-.011c.067-.053.137-.1.21-.14.033-.02.047-.05.04-.09-2.4-9.66-4.073-18.537-5.02-26.63-2.07-17.75-.39-36.43 2.95-54.71 2.5-13.687 5.21-26.717 8.13-39.09.073-.327-.05-.533-.37-.62-2.74-.753-4.867-1.817-6.38-3.19-8.64-7.87-16.37-14.67-25.15-23.76-4.87-5.03-7.65-10.16-7.59-16.75.04-4.433.127-8.86.26-13.28.26-8.12-3.2-17.72-6.19-25.95-.153-.427-.033-.523.36-.29 4.28 2.607 7.69 6.15 10.23 10.63 3.38 5.94 6.42 12.02 11.45 16.82 6.13 5.84 11.23 11.86 11.98 20.63.547 6.5.597 14.197.15 23.09-.007.154.02.307.079.45.059.144.148.273.261.38 2.18 2 4.127 4.09 5.84 6.27 1.247 1.573 2.91 2.793 4.99 3.66.373.153.603.037.69-.35a461.357 461.357 0 0 1 8.68-33.26c.18-.6.02-1.097-.48-1.49-3.247-2.527-5.647-5.867-7.2-10.02-2.847-7.607-4.74-14.927-5.68-21.96-1.753-13.073 1.607-23.653 10.08-31.74 2.953-2.813 6.343-5.777 10.17-8.89 8.17-6.64 17.26-12.19 26.31-17.31 2.473-1.4 4.427-.877 5.86 1.57.527.9 1.007 3.02 1.44 6.36.607 4.74 1.187 9.743 1.74 15.01.65 6.18.49 11.97.47 17.99-.013 4.067-.4 8.33-1.16 12.79-1.787 10.48-5.93 19.447-12.43 26.9-2.633 3.02-5.997 5.597-10.09 7.73-4.85 2.53-9.89 4.67-15.2 3.37a.773.773 0 0 0-.93.56 451.17 451.17 0 0 0-4.45 18.67c-3.727 17.173-7.147 34.843-10.26 53.01a410.573 410.573 0 0 0-3.96 29.24c-1.587 16.193-.33 33.21 3.77 51.05.153.693.293.69.42-.01.09-.5-.07-1.02.03-1.53 3.713-20.3 12.65-38.253 26.81-53.86a22.451 22.451 0 0 1 3.26-2.95c.32-.233.35-.503.09-.81-3.82-4.487-5.94-9.373-6.36-14.66-.473-5.987.323-12.443 2.39-19.37 3.927-13.153 8.143-25.663 12.65-37.53.167-.427.33-.423.49.01 1.1 2.953 2.193 5.853 3.28 8.7 3.12 8.2 7.59 16.26 9.88 24.12 1.7 5.813 1.84 11.98.42 18.5-.19.82-.68 1.24-.91 1.97-.147.48-.063.527.25.14a13.665 13.665 0 0 0 1.75-2.84 138.36 138.36 0 0 0 3.38-7.92c5.2-13.26 17.23-16.55 30.07-18.74 22.24-3.807 45.023-4.683 68.35-2.63.353.033.44.203.26.51-5.487 9.247-11.17 17.6-17.05 25.06-1.227 1.567-3.517 4.013-6.87 7.34-7.18 7.12-15.94 12.36-25.68 15.15-6.97 2-14.68 2.1-21.86.7-10.28-2-19.93-5.753-28.95-11.26-.347-.207-.663-.17-.95.11-1.94 1.89-3.86 3.94-5.99 5.57-5.28 4.047-10.46 7.957-15.54 11.73a12.69 12.69 0 0 0-1.92 1.73c-.347.4-.267.527.24.38 15.57-4.49 28.64.41 39.69 11.14a1194.255 1194.255 0 0 1 18.18 18.06.422.422 0 0 1-.057.631.421.421 0 0 1-.223.079c-8.74.46-17.277.603-25.61.43-4.94-.107-9.607-.517-14-1.23-11.667-1.907-22-6.343-31-13.31a.494.494 0 0 0-.372-.096.476.476 0 0 0-.318.206c-7.78 11.873-13.33 24.433-16.65 37.68-.42 1.7-.55 3.45-.16 5.17 4.767 20.707 8.94 37.327 12.52 49.86 7.193 25.193 17.163 49.327 29.91 72.4.173.32.233.3.18-.06-.49-3.43-1.3-6.79-1.35-10.24a308.86 308.86 0 0 0-.23-7.6c-.1-2.293.027-4.96.38-8 .42-3.56.65-7.23 1.42-10.63 2.487-10.953 6.34-21.023 11.56-30.21a1.382 1.382 0 0 0-.08-1.49c-3.313-4.58-6.69-9.323-10.13-14.23-7.09-10.08-6.56-21.44-3.75-33 1.847-7.6 4.357-15.167 7.53-22.7a.437.437 0 0 1 .406-.273.466.466 0 0 1 .424.263c4.63 9.79 12.35 18.42 16.51 27.77 2.493 5.6 3.72 11.967 3.68 19.1-.02 2.6.483 2.703 1.51.31 3.44-8.047 7-16.273 10.68-24.68 4.047-9.22 9.817-17.253 17.31-24.1 6.007-5.487 12.27-10.23 18.79-14.23a459.13 459.13 0 0 1 24.67-14.07c.32-.173.497-.077.53.29.9 10.653.823 21.163-.23 31.53-.5 4.953-1.45 9.507-2.85 13.66-5.46 16.25-23.65 29.33-39.07 34.7-8.9 3.1-17.723 4.05-26.47 2.85a.764.764 0 0 0-.78.33c-5.93 8.09-12.04 16.13-16.76 24.76-.353.64-.217.77.41.39 1.9-1.16 3.8-2.11 5.97-2.73 12.85-3.69 24.85-1.3 36.27 4.85 13.067 7.033 24.713 15.68 34.94 25.94.753.76.597 1.08-.47.96-11.607-1.3-22.893-1.717-33.86-1.25-11.71.5-20.87-.13-30.29-6.2-5.87-3.79-12.94-7.43-16.89-13-.227-.32-.42-.303-.58.05-.7 1.52-1.357 3.13-1.97 4.83-5.747 15.987-7.717 32.147-5.91 48.48.087.773.387 1.607.9 2.5 4.74 8.207 9.447 16.137 14.12 23.79 10.693 17.52 25.903 41.08 45.63 70.68.087.133.063.247-.07.34l-.21.15c-.133.1-.25.083-.35-.05-18.86-24.75-35.23-46.31-50.07-71.1a3.018 3.018 0 0 0-1.07-1.06c-11.753-6.887-24.363-11.867-37.83-14.94-.427-.1-.83-.033-1.21.2-4.8 2.907-9.36 4.763-13.68 5.57-4.72.887-9.98 1.103-15.78.65a.94.94 0 0 0-.81.32c-10.34 11.4-26.01 18.02-41.3 19.03-4.393.287-8.94.297-13.64.03-9.55-.55-19.46-3.11-28.34-6.9-10.687-4.567-21.16-10.59-31.42-18.07a1597.34 1597.34 0 0 1-11.57-8.5c-.613-.453-.54-.663.22-.63 5.45.24 10.48-.87 15.35-3.22a271.616 271.616 0 0 1 12.25-5.54c4.98-2.113 10.013-2.6 15.1-1.46 5.893 1.313 11.453 1.99 16.68 2.03 5.253.04 10.597-.13 16.03-.51 3.34-.24 6.81-.31 10.41-.21 4.51.12 9.24.12 13.6.89 4.753.847 9.623 2.293 14.61 4.34 5.62 2.32 11.83 6.39 12.96 12.64.073.373.297.593.67.66 9 1.487 17.993 1 26.98-1.46.7-.193.7-.39 0-.59a405.89 405.89 0 0 1-7.42-2.2c-7.75-2.38-15.16-7.19-20.99-12.47-6.387-5.78-13.16-12.197-20.32-19.25-19.973-19.693-33.457-43.367-40.45-71.02-2.113-8.36-3.907-17.087-5.38-26.18-.107-.627.133-.81.72-.55 10.133 4.493 19.59 9.403 28.37 14.73 18.52 11.24 33.2 26.62 40.02 47.47 3.167 9.7 5.863 20.893 8.09 33.58 1.36 7.76 1.55 15.57.61 23.3a1.596 1.596 0 0 0 .78 1.58c5.36 3.18 10.6 5.37 16.81 7.14 13.91 3.98 26.85 9.16 38.8 17.6.4.28.477.21.23-.21Zm-29.61-341.75c.093.033.13.1.11.2l-8.57 33.17c-.14.54.063.75.61.63a.802.802 0 0 1 .65.15c2.26 1.69 8.82-.34 11.27-1.47 10.77-4.97 16.18-13.67 19.01-25.12 2.47-9.98 3.7-19.9 4.61-30.17.94-10.533.577-20.277-1.09-29.23a8.404 8.404 0 0 0-1.06-2.78 1.922 1.922 0 0 0-1.203-.88 1.956 1.956 0 0 0-1.477.24c-7.107 4.433-14.18 9.717-21.22 15.85a495.58 495.58 0 0 0-10.12 9.06c-5.39 4.96-9.65 10.95-11.04 18.2-2.04 10.66.41 21.62 2.55 32.09.867 4.24 2.517 8.117 4.95 11.63.467.673.823.617 1.07-.17a676.317 676.317 0 0 1 10.62-31.44c.02-.033.047-.047.08-.04l.25.08Zm-36.8 32.65c-.76-4.16-3.42-8.27-6.33-11.21-4.467-4.5-8.09-9.963-10.87-16.39-1.97-4.53-4.51-10.11-8.1-13.56-.447-.42-.557-.347-.33.22 2.72 6.8 5.86 13.35 6.29 20.67.48 7.95-.82 17.69 4.42 24.03 4.167 5.047 9.017 10.323 14.55 15.83a22.902 22.902 0 0 1 3.4 4.29c.24.387.377.353.41-.1.2-2.59-.82-4.88-1.09-7.42a216.222 216.222 0 0 0-2.35-16.36Zm-63.37.63c-2.493 10.233-3.937 20.113-4.33 29.64-.62 14.89 2.01 31.16 10.28 43.44a521.171 521.171 0 0 0 11.28 16.06c.28.387.447.34.5-.14.573-5.507.717-10.447.43-14.82-.54-8.32-4.08-15.86-8.12-23.56-4.027-7.687-6.653-16.023-7.88-25.01-.993-7.227-.98-15.673.04-25.34a1.744 1.744 0 0 0-.12-.86c-.36-.93-.26-2.13-1.03-2.85-.28-.253-.44-.19-.48.19a24.508 24.508 0 0 1-.57 3.25Zm6.99 14a69.75 69.75 0 0 0-2.04-5.78c-.167-.42-.22-.407-.16.04 1.4 9.4 2.787 18.42 4.16 27.06.86 5.413 2.087 10.523 3.68 15.33 1.86 5.64 5.06 10.9 7.69 16.37 3.93 8.19 2.25 15.54-.07 24.02a3.95 3.95 0 0 0 .73 3.52l2.07 2.57c.773.96 1.26.833 1.46-.38 1.227-7.547 2.053-15.55 2.48-24.01.45-8.78-.28-19.42-4.16-26.69-3.88-7.28-8.59-14.28-12.07-22.03a87.425 87.425 0 0 1-3.77-10.02Zm108.31 44.09c1.35 3.44.97 6.54.22 10.01-.6 2.79.99 5.59 2.14 8.05 1.64 3.54 1.817 7.097.53 10.67-.167.473-.05.557.35.25 1.19-.91 2.29-1.87 3.5-2.77 6.43-4.75 4.76-19.65 3.24-26.45-2.05-9.14-4.69-18.9-8.49-27.63-.333-.767-.587-.743-.76.07-2.64 12.46-5.6 24.84-9.23 36.81-2.82 9.29-3.53 18.59 1.07 27.25.22.42.517.483.89.19l6.03-4.78c.32-.253.453-.583.4-.99-.67-5.07-1.95-9.86-1.47-14.98.53-5.73-4.46-10.79.86-15.86.32-.307.56-.253.72.16Zm75.64 6.63c2.16-.36 2.367.113.62 1.42-5.31 3.98-11.83 5.34-18.52 4.99-6.88-.37-14.11 2.16-21.04 4.09-6.45 1.79-12.87 3.69-19.07 6.27-.547.227-.543.447.01.66a434.45 434.45 0 0 0 11.86 4.38 82.41 82.41 0 0 0 20.45 4.39c28.83 2.45 49.54-22.45 64.2-43.98.22-.32.137-.497-.25-.53-14.58-1.213-27.803-1.073-39.67.42-11.193 1.407-22.033 3.583-32.52 6.53-4.99 1.41-12.1 4.13-15.03 8.69-2.44 3.793-4.593 8.693-6.46 14.7-.147.473-.04.54.32.2 3.81-3.51 8.45-5.03 13.49-6.12 5.43-1.16 11.39-.88 16.85-1.15 3.33-.16 6.56-1.1 9.77-2.04a63.571 63.571 0 0 1 7.36-1.65c2.507-.42 5.05-.843 7.63-1.27Zm-136.57-3.03c-.147-1.06-.277-2.11-.39-3.15-.013-.113-.077-.163-.19-.15h-.01c-.127.013-.187.083-.18.21a73.626 73.626 0 0 1-2.11 24.24c-.82 3.213-1.5 6.38-2.04 9.5-.52 3.02-.37 6.11-.3 9.17.15 5.96-2.33 11.13-6.4 15.5-.153.167-.153.33 0 .49l3.89 4.18c.187.2.363.19.53-.03 2.293-3.027 3.743-4.977 4.35-5.85 3.25-4.69 4.45-10.37 4.34-16.26-.113-5.627-.08-10.9.1-15.82a93.2 93.2 0 0 0-.07-7.55 113.12 113.12 0 0 0-.65-7.81c-.233-2.007-.523-4.23-.87-6.67Zm-6.61 14.21c-2.79 9.41-6.63 18.22-9.79 27.45-.727 2.107-1.19 4.46-1.39 7.06a1.657 1.657 0 0 0 .46 1.29l3.52 3.63a.56.56 0 0 0 .519.151.527.527 0 0 0 .391-.361 574.609 574.609 0 0 0 5.6-18.52c.14-.493.243-1.01.31-1.55.18-1.447.273-1.977.28-1.59.002.001.003-.001.005-.007a.113.113 0 0 0 .007-.028l.005-.041.003-.044.24-17.42a.108.108 0 0 0-.002-.031.082.082 0 0 0-.128-.043.089.089 0 0 0-.03.054Zm90.33 46.2c-4.49-.07-8.36-1.27-12.15-3.62-2.513-1.56-5.263-2.43-8.25-2.61a61.614 61.614 0 0 1-17.73-3.76 1.43 1.43 0 0 0-.916-.026 1.39 1.39 0 0 0-.734.536l-1.65 2.39c-.387.567-.283 1.02.31 1.36 4.533 2.593 9.083 4.637 13.65 6.13a264.78 264.78 0 0 0 24.13 6.63c8.227 1.853 16.497 2.137 24.81.85.407-.06.463-.233.17-.52a20.216 20.216 0 0 0-2.58-2.14 45.105 45.105 0 0 1-5.73-4.77c-2.63-2.58-5.48-4.72-8.44-7.21-2.087-1.753-4.417-3.453-6.99-5.1-8.99-5.77-20.09-7.51-30.18-4.93-1.467.38-2.58 1.277-3.34 2.69-.227.413-.103.633.37.66 6.15.27 11.54 2.86 17.02 5.41 2.047.953 4.363 1.54 6.95 1.76 2.95.25 6.86 1.5 9.49 3.43.687.507 1.413.977 2.18 1.41 1.76.993 1.63 1.47-.39 1.43Zm-99.69-2.42c.173-.047.19-.13.05-.25-4.04-3.447-7.98-7.01-11.82-10.69-3.03-2.92-8.33-1.8-12.01-.91a92.056 92.056 0 0 0-6.59 1.85c-6.98 2.227-13.887 3.31-20.72 3.25-7.433-.067-15.013-.8-22.74-2.2-.653-.12-.72.027-.2.44 3.04 2.413 6.3 4.837 9.78 7.27 4.053 2.833 7.573 4.73 10.56 5.69 4.867 1.573 9.62 2.293 14.26 2.16 5.05-.15 10.15-.42 15.11-1.25 8.513-1.42 16.62-3.207 24.32-5.36Zm125.53 47.77c-3.93 9.53-7.52 19.61-12.26 28.87a.486.486 0 0 0 .015.486.492.492 0 0 0 .425.234c19.67-.13 37.56-9.06 51.25-22.73 5.48-5.473 9.217-11.7 11.21-18.68 3.28-11.5 4.67-24.067 4.17-37.7-.013-.34-.173-.433-.48-.28-8.16 4.227-15.617 8.66-22.37 13.3-6.487 4.467-12.58 9.66-18.28 15.58-5.9 6.14-10.46 13.113-13.68 20.92Zm-32.43 42.17c.63 1.29 1 2.64 1.47 3.96.2.547.46.577.78.09 2.8-4.287 5.903-8.76 9.31-13.42.973-1.333 1.397-2.703 1.27-4.11-1.55-16.74-8.88-32.69-17.44-46.99a.246.246 0 0 0-.241-.113.22.22 0 0 0-.122.057.22.22 0 0 0-.067.116c-2.04 8.027-3.51 15.973-4.41 23.84-.493 4.28-.633 8.37-.42 12.27.46 8.59 6.05 16.48 9.87 24.3Zm-132.1-40.1a.25.25 0 0 1 .184-.118.22.22 0 0 1 .108.015.22.22 0 0 1 .088.063c2.32 2.59 4.36 5.33 6.73 7.81 6.52 6.85 13.5 13.26 19.65 20.75 5.21 6.36 10.6 12.56 15.11 19.18 4.54 6.687 9.207 14.07 14 22.15 3.88 6.54 6.77 12.32 8.67 17.34 2.827 7.473 5.01 15.437 6.55 23.89.153.827.597 1.357 1.33 1.59.353.113.537-.013.55-.38.167-7.353-.887-15.673-3.16-24.96-2.8-11.44-5.593-21.213-8.38-29.32-7.35-21.39-22.16-37.49-41.25-49.91-6.887-4.48-14.217-8.493-21.99-12.04a.118.118 0 0 0-.064-.011.116.116 0 0 0-.061.024.12.12 0 0 0-.045.117c3.813 22.473 11.633 43.277 23.46 62.41 6.4 10.38 14.24 19.51 22.85 28.3 8.413 8.587 16.717 16.433 24.91 23.54.56.487.713.383.46-.31-1.57-4.27-3.81-8.08-5.53-12.39-2.82-7.087-5.84-14.89-9.06-23.41-3.487-9.227-9.02-17.78-16.6-25.66-11.567-12.033-21.763-23.627-30.59-34.78-3.387-4.273-6.043-8.647-7.97-13.12a.812.812 0 0 1 .05-.77Zm133.5 60.38c-1.087-.16-1.11-.42-.07-.78 7.533-2.58 14.953-2.773 22.26-.58 6.99 2.1 15 7.69 22.53 9.81 3.98 1.12 8.3 1.61 12.08 3.38 1.087.513 2.287.983 3.6 1.41 1.853.607 3.69 1.683 5.51 3.23.047.04.09.037.13-.01l.17-.2c.107-.12.103-.237-.01-.35-.6-.573-1.23-1.1-1.89-1.58-7.82-5.627-16.137-10.677-24.95-15.15-6.547-3.32-13.173-5.63-19.88-6.93-5.787-1.12-11.183-.753-16.19 1.1-2.08.767-3.707 2.597-4.88 5.49a2.358 2.358 0 0 0-.18 1.09c.027.36-.067.69-.28.99a.81.81 0 0 0 .07 1.02c1.293 1.38 2.693 2.49 4.2 3.33 4.73 2.63 9.72 4.38 14.5 6.78 6.487 3.267 13.557 5.327 21.21 6.18a234.781 234.781 0 0 0 31 1.39c.253-.007.833-.123 1.74-.35.18-.047.25-.16.21-.34l-.06-.27a.556.556 0 0 0-.215-.34.537.537 0 0 0-.385-.1c-2.747.3-5.507.127-8.28-.52a57.108 57.108 0 0 1-14.5-5.51c-2.87-1.56-5.81-3.19-8-3.77-5.613-1.473-11.38-2.983-17.3-4.53-7.3-1.91-14.66-2.76-22.14-3.89Zm-162.67 62.5c-3.16-.547-3.143-.957.05-1.23 10.833-.913 21.99-1.117 33.47-.61 7.86.347 15.59.167 23.19-.54 3.73-.35 8.2-.22 11.64.91 5.84 1.927 12.173 3.687 19 5.28a.886.886 0 0 0 .845-.258.884.884 0 0 0 .195-.862c-1.06-3.35-5.47-7.15-8.14-8.79-7.89-4.83-15.68-6.85-25.25-6.96-5.527-.067-10.367.253-14.52.96-5.82.987-11.213 1.71-16.18 2.17-5.247.487-10.93.12-17.05-1.1-12.59-2.51-23.76 7.11-36.18 8.06-.7.053-.78.303-.24.75 13.253 10.94 27.957 18.67 44.11 23.19 9.63 2.69 19.31 4.05 28.71 3.55 16.313-.873 30.39-5.91 42.23-15.11.453-.353.4-.6-.16-.74a104.41 104.41 0 0 1-18.41-6.58c-2.1-.98-4.84-1.72-7.17-1.97-5.993-.653-12.443-.48-19.35.52-13.527 1.96-27.123 1.747-40.79-.64ZM297.52 666.62a1575.577 1575.577 0 0 0-7.13 17.83c-2.49 6.35-4.32 12.88-5.83 19.31-1.17 4.97.84 9.17 6.06 10.09 5.747 1.013 11.45 1.383 17.11 1.11 1.673-.08 3.157.303 4.45 1.15.293.193.5.453.62.78 1.9 5.11 1.35 11.6-5.83 11.24-22.1-1.1-42.283-1.083-60.55.05-5.83.36-7.15-5.01-6.05-9.6.54-2.24 1.993-3.387 4.36-3.44 5.86-.13 12.27-.24 16.56-4.57 3.47-3.51 6.37-8.97 8.45-13.86 19.1-45.013 37.87-89.407 56.31-133.18.253-.607.55-1.827.89-3.66.91-4.95-1.29-8.64-5.97-10.53-4.287-1.733-9.053-3.09-14.3-4.07-3.78-.71-3.37-4.68-3.13-7.5.25-2.75 2.96-4.43 5.44-4.55 8.687-.44 17.11.15 25.27 1.77 17.38 3.44 24.98 18.28 30.98 33.1 14.873 36.74 30.54 75.393 47 115.96 2.013 4.96 4.08 9.877 6.2 14.75 1.3 3 2.87 5.56 4.52 8.31 4.27 7.15 10.74 7.92 18.44 8.16a2.306 2.306 0 0 1 2.11 1.51c1.09 2.93 1.61 6.36-.23 9.01-1.193 1.713-2.727 2.517-4.6 2.41-23.56-1.27-45.68-1.03-69.67-.02-1.707.073-3.003-.18-3.89-.76-3.71-2.41-3.41-7.85-1.44-11.27.18-.32.447-.513.8-.58 1.46-.28 2.83-.6 4.35-.56 5.33.13 18.07-.3 18.01-8.25-.03-5.3-2.05-11.26-4.08-16.24a11267.98 11267.98 0 0 0-9.69-23.75c-.14-.34-.393-.51-.76-.51h-74.25c-.253 0-.43.12-.53.36Zm6.16-14.04a.48.48 0 0 0-.034.225.48.48 0 0 0 .244.368.47.47 0 0 0 .22.057l62.57-.02a.468.468 0 0 0 .469-.416.462.462 0 0 0-.029-.224l-30.5-77.68a.464.464 0 0 0-.17-.223.464.464 0 0 0-.535-.006.471.471 0 0 0-.175.219l-32.06 77.7ZM91 638.42c.013 18.06.007 36.167-.02 54.32-.01 5.49.65 15.09 5.68 18.54 3.473 2.373 7.23 3.587 11.27 3.64 11.387.153 22.737.143 34.05-.03 3.24-.047 6.59-.583 10.05-1.61 8.32-2.46 12.07-8.4 14.95-16.01a212.104 212.104 0 0 0 5.41-16.21c.78-2.74 2.55-4.94 5.52-5.51 5.56-1.07 13.66.85 12.52 8.17-2.04 13.06-3.96 25.257-5.76 36.59-.42 2.6-1.66 5.79-4.55 6.41-1.613.347-3.1.52-4.46.52-35.127-.02-69.877.007-104.25.08-8.993.02-19.437.293-31.33.82-1.52.067-2.737-.14-3.65-.62-3.21-1.68-3.19-4.95-2.82-8.26.293-2.587 1.723-3.923 4.29-4.01 7.26-.26 14.71-.29 19.31-6.7 1.26-1.753 2.14-4.327 2.64-7.72.63-4.31.89-8.73.89-13.04-.013-38.787-.017-77.25-.01-115.39.01-3.8-.46-7.56-.88-11.31-1.43-12.76-12.32-14.03-22.62-14.14-1.587-.02-2.62-.72-3.1-2.1-1.47-4.27-1.02-11.05 5.11-10.81 12.433.48 22.85.753 31.25.82 32.547.26 64.523.257 95.93-.01 2.593-.02 4.88.127 6.86.44 2.167.34 3.677 1.66 4.53 3.96a11.07 11.07 0 0 1 .69 3.64c.273 13.733.55 27.57.83 41.51.033 1.747-.527 3.1-1.68 4.06-2.913 2.433-6.473 3.107-10.68 2.02-2.95-.76-4.99-2.53-5.49-5.66a175.36 175.36 0 0 0-3.25-15.81c-3.96-15.53-11.29-21.64-27.77-21.88-11.74-.173-24.723-.203-38.95-.09-.34 0-.51.17-.51.51v76.42c0 .333.17.5.51.5 17.027 0 35.073-.003 54.14-.01 3.17 0 4.84 3.48 5.04 6.29.22 3.09-1.55 7.02-5.06 7.03-18.473.007-36.47.003-53.99-.01-.433 0-.647.217-.64.65ZM1046.93 551.84c-2.42-2.23-4.77-3.67-8.03-4.13-3.3-.467-6.53-.697-9.7-.69-1.52.01-2.86-.34-3.59-1.84-1.56-3.24-1.47-6.26.28-9.06 1.19-1.89 3.4-2.26 5.43-2.15 9.95.527 20.03.793 30.25.8 1.23 0 2.43.063 3.6.19 1.71.18 3.38-.17 5.06-.17 10.57-.007 21.74-.293 33.51-.86 2.13-.107 3.69.667 4.68 2.32 1.8 3.03 2.33 10.56-2.89 10.64-9.51.16-19.66.9-22.08 12.1-.94 4.347-1.41 9.6-1.41 15.76.01 37.993-.02 75.66-.08 113-.01 8.693-.26 15.353-.74 19.98-1.63 15.77-5.56 31.76-13.41 45.59-9.83 17.31-26.22 27.77-45.31 32.29-6.41 1.52-9-5.96-7.02-10.79.17-.42.49-.764.89-.97 2.42-1.267 4.79-2.493 7.1-3.68 21.05-10.79 26.13-33.83 27.56-55.38.65-9.68 1-18.73 1.06-27.15.2-29.113.21-67.677.03-115.69-.01-4.66-.31-9.86-1.67-14.46-.63-2.18-1.81-4.063-3.52-5.65ZM1269 546.93c.02 47.693.01 94.413-.02 140.16-.01 5.593.4 10.81 1.21 15.65.55 3.32 2.29 6.23 5.2 8.73 4.22 3.62 11.08 3.5 16.28 3.68 6.32.21 5.88 11.73.65 12.73-1.01.193-2.07.267-3.19.22-23.93-1.04-46.77-1.043-68.52-.01-2.97.14-5.02-.067-6.17-.62-2.2-1.073-3.22-3.237-3.06-6.49.1-1.96.62-3.583 1.57-4.87.18-.24.42-.387.71-.44 2.64-.46 5.53-.73 8.66-.81 6.15-.16 12.89-3.49 14.56-9.85a55.044 55.044 0 0 0 1.82-13.88c.07-46.113.08-94.2.01-144.26 0-.38-.19-.573-.58-.58-7.12-.073-14.19-.063-21.21.03-12.6.18-21.06 6.49-24.43 18.7-1.86 6.733-3.21 13.323-4.04 19.77-.45 3.55-3.02 4.91-6.14 5.8-5.48 1.56-12.3.32-12.15-6.58.32-14.453.63-28.323.94-41.61.11-4.92 2.63-7.38 7.55-7.38 46.69-.027 96.88-.03 150.56-.01 3.03 0 5.11 1.143 6.22 3.43.55 1.107.87 3.19.96 6.25.47 15.22.85 28.657 1.14 40.31.06 2.16-1.12 3.88-2.99 4.88-3.21 1.713-6.71 1.83-10.52.35-2.75-1.067-4.33-2.913-4.74-5.54-1.05-6.733-2.32-12.86-3.81-18.38-.83-3.1-2.11-6.173-3.84-9.22-4.57-8.04-13.56-10.82-22.47-10.82-6.68-.007-13.17-.017-19.48-.03-.45 0-.68.23-.68.69ZM354.42 1027c-9.85-2.55-13.99-14.61-14.89-23.48-1.33-13.15 1.36-36.9 19.45-37.09 5.513-.06 9.933 1.89 13.26 5.85 8.65 10.33 8.66 28.36 5.01 40.26-3.19 10.42-11.45 17.4-22.83 14.46ZM366 975.8c-5.1-4.99-12.69-3.26-16.24 2.67-4.95 8.26-5.29 19.58-3.39 28.78 1.19 5.75 4.14 12.48 10.39 13.99 7.82 1.89 12.44-5.36 14.26-11.66 2.6-8.99 2.353-18.01-.74-27.05-.867-2.553-2.293-4.797-4.28-6.73ZM574.04 1026.67c-9.51 3.15-17.54-.96-21.99-9.67-5.57-10.89-5.66-29.04.22-40.25 4.393-8.387 11.107-11.657 20.14-9.81 7.02 1.44 11.81 8.45 13.7 14.97 3.04 10.533 2.933 20.94-.32 31.21-1.79 5.65-5.97 11.63-11.75 13.55Zm5.07-15.21c3.393-9.54 3.3-19.353-.28-29.44-2.35-6.61-8.64-11.39-15.82-7.93-3.3 1.59-5.37 5.3-6.51 8.57-3.293 9.473-3.31 19.15-.05 29.03 2.28 6.93 8.4 12.22 15.83 8.73 3.26-1.53 5.65-5.63 6.83-8.96ZM647.17 1005.84l-.24.12c-.19.09-.396.12-.6.11-11.25-.49-20.37-7.91-20.38-19.54-.013-5.513 1.853-10.22 5.6-14.12 12.06-12.56 33.87-4.45 34.49 13.07.18 5.053-1.31 9.497-4.47 13.33a5297.91 5297.91 0 0 1-23.16 27.98.522.522 0 0 1-.42.2c-4.353 0-6.91-.02-7.67-.06-.007 0-.013 0-.018-.01-.006 0-.01-.01-.013-.01-.003-.01-.005-.01-.004-.02 0-.01.002-.01.005-.02 6.087-7.31 11.81-14.21 17.17-20.68.507-.61.41-.73-.29-.35Zm12.5-19.72a13.74 13.74 0 1 0-27.479 0 13.74 13.74 0 0 0 27.479 0ZM774.71 1020.83l26.25.02c.247 0 .37.12.37.36l.03 5.41c0 .25-.12.37-.36.37l-40.97-.01a.297.297 0 0 1-.18-.06.335.335 0 0 1-.119-.14.336.336 0 0 1 .069-.36 9150.255 9150.255 0 0 0 29.75-29.94c4.713-4.767 5.827-10.027 3.34-15.78-3.18-7.35-12.5-10.27-19.35-6.18-4.647 2.773-6.993 6.88-7.04 12.32 0 .18-.09.27-.27.27l-5.5-.01c-.233 0-.35-.113-.35-.34-.12-11.46 8.77-20.35 20.03-20.39 10.88-.04 20.05 8.39 20.26 19.38.107 5.573-1.693 10.243-5.4 14.01-6.8 6.91-13.707 13.81-20.72 20.68a.216.216 0 0 0-.061.12.233.233 0 0 0 .013.13c.017.04.046.07.083.1.037.02.08.04.125.04ZM858.43 1027c-9.77-2.51-13.9-14.37-14.86-23.21-1.5-13.77 1.54-38.18 20.57-37.35 7.48.32 12.39 4.71 15.5 11.14 4.87 10.07 4.83 23.4 1.95 33.85-2.99 10.87-11.19 18.65-23.16 15.57Zm11.59-51.19c-5.12-5.01-12.72-3.27-16.28 2.69-4.7 7.85-5.18 18.35-3.66 27.31.72 4.2 2.123 7.83 4.21 10.89 4.21 6.15 12.51 6.58 17.07.4 1.633-2.22 2.843-4.69 3.63-7.42 2.613-9.04 2.39-18.063-.67-27.07-.88-2.587-2.313-4.853-4.3-6.8ZM940.14 1020.83l26.09.02a.4.4 0 0 1 .276.11.42.42 0 0 1 .114.28v5.38c0 .25-.123.37-.37.37l-40.96-.01a.39.39 0 0 1-.184-.05.338.338 0 0 1-.144-.34.357.357 0 0 1 .088-.17c9.593-9.63 19.57-19.67 29.93-30.11 9.87-9.95 1.72-25.65-11.82-23.44-6.71 1.1-11.51 7.35-11.39 13.93 0 .2-.1.3-.3.3l-5.5.01a.31.31 0 0 1-.31-.3c-.18-5.86 1.853-10.807 6.1-14.84 12.77-12.13 34.27-3.36 34.17 14.4-.04 6.64-2.79 11-7.64 15.78a5082.305 5082.305 0 0 0-18.38 18.15.294.294 0 0 0-.082.16.271.271 0 0 0 .021.17c.024.06.065.11.116.14.052.04.113.06.175.06ZM1045.23 1015.06l-.01 11.63c0 .08-.03.16-.09.21-.05.06-.13.09-.21.09l-5.83-.01c-.08 0-.16-.03-.21-.09a.272.272 0 0 1-.09-.21l-.01-11.62c0-.08-.03-.16-.09-.21a.272.272 0 0 0-.21-.09l-32.83.01c-.05 0-.11-.01-.16-.04a.426.426 0 0 1-.11-.12c-.02-.05-.04-.1-.03-.16 0-.05.02-.1.05-.15l31.03-46.91a.37.37 0 0 1 .11-.096.284.284 0 0 1 .14-.034l8.15.01c.04 0 .08.008.11.023.04.015.07.037.1.065.03.028.05.061.07.097.01.037.02.076.02.115l.1 40.63c0 .08.03.16.09.21.05.06.13.09.21.09l6.92-.02c.08 0 .16.03.21.09.06.05.09.13.09.21v5.69c0 .08-.03.16-.09.21-.05.06-.13.09-.21.09l-6.92-.01c-.08 0-.16.03-.21.09-.06.05-.09.13-.09.21Zm-28.94-7.09c-.03.05-.05.11-.06.17 0 .06.01.12.04.18.03.05.07.1.13.13.05.03.11.05.17.05l21.86-.01c.09 0 .18-.04.24-.1.06-.06.1-.15.1-.24l.05-33.15a.312.312 0 0 0-.07-.206.327.327 0 0 0-.18-.123.316.316 0 0 0-.21.01.352.352 0 0 0-.17.139l-21.9 33.15ZM444.85 973.7l-27.16.01a.301.301 0 0 1-.3-.3l-.02-5.6a.3.3 0 0 1 .3-.3l36.77.01a.3.3 0 0 1 .27.42l-26.01 58.88a.308.308 0 0 1-.28.18l-6.16-.04a.35.35 0 0 1-.144-.03.399.399 0 0 1-.111-.1.357.357 0 0 1-.049-.14.329.329 0 0 1 .024-.15l23.14-52.42a.297.297 0 0 0-.022-.282.301.301 0 0 0-.248-.138ZM261.15 1004.97H84.91c-.193 0-.35.16-.35.35v4.3c0 .19.157.35.35.35h176.24c.193 0 .35-.16.35-.35v-4.3c0-.19-.157-.35-.35-.35ZM1306.76 1004.97h-176.14c-.28 0-.5.22-.5.5v4c0 .28.22.5.5.5h176.14c.28 0 .5-.22.5-.5v-4c0-.28-.22-.5-.5-.5ZM500.72 1027.89a4.98 4.98 0 1 0-.001-9.961 4.98 4.98 0 0 0 .001 9.961ZM711.22 1027.88c2.745 0 4.97-2.23 4.97-4.97 0-2.74-2.225-4.97-4.97-4.97a4.973 4.973 0 0 0-4.97 4.97c0 2.74 2.225 4.97 4.97 4.97Z" fill="#000"/>
    </g>
    <defs>
        <clipPath id="a">
            <path fill="#fff" d="M0 0h1354v1038H0z"/>
        </clipPath>
    </defs>
</svg>
