<?xml version="1.0" encoding="UTF-8" standalone="no"?>
<!DOCTYPE svg PUBLIC "-//W3C//DTD SVG 1.1//EN" "http://www.w3.org/Graphics/SVG/1.1/DTD/svg11.dtd">
<svg xmlns="http://www.w3.org/2000/svg" version="1.1" viewBox="0.00 0.00 406.00 686.00">
<g strokeWidth="2.00" fill="none" strokeLinecap="butt">
<path stroke="#8192ae" vectorEffect="non-scaling-stroke" d="
  M 16.49 0.00
  L 22.14 0.00"
/>
<path stroke="#8192ae" vectorEffect="non-scaling-stroke" d="
  M 23.50 0.00
  L 92.63 0.00"
/>
<path stroke="#8192ae" vectorEffect="non-scaling-stroke" d="
  M 97.50 0.00
  Q 164.70 0.27 231.90 0.18
  Q 231.99 0.18 232.06 0.09
  Q 232.09 0.04 232.12 0.00"
/>
<path stroke="#8192ae" vectorEffect="non-scaling-stroke" d="
  M 232.51 0.00
  Q 232.51 0.05 232.51 0.10
  Q 232.51 0.20 232.61 0.20
  Q 318.68 0.15 404.75 0.19
  Q 405.04 0.19 405.12 0.00"
/>
<path stroke="#8192ae" vectorEffect="non-scaling-stroke" d="
  M 406.00 371.62
  L 406.00 378.51"
/>
<path stroke="#8192ae" vectorEffect="non-scaling-stroke" d="
  M 406.00 456.79
  L 405.44 458.44"
/>
<path stroke="#5b594e" vectorEffect="non-scaling-stroke" d="
  M 405.44 458.44
  L 404.98 462.56"
/>
<path stroke="#8192ae" vectorEffect="non-scaling-stroke" d="
  M 404.98 462.56
  L 404.85 378.39"
/>
<path stroke="#5b594e" vectorEffect="non-scaling-stroke" d="
  M 404.85 378.39
  L 404.73 371.19"
/>
<path stroke="#8192ae" vectorEffect="non-scaling-stroke" d="
  M 404.73 371.19
  L 404.80 195.76"
/>
<path stroke="#5b594e" vectorEffect="non-scaling-stroke" d="
  M 404.80 195.76
  L 404.75 193.68"
/>
<path stroke="#8192ae" vectorEffect="non-scaling-stroke" d="
  M 404.75 193.68
  L 404.78 173.74"
/>
<path stroke="#5b594e" vectorEffect="non-scaling-stroke" d="
  M 404.78 173.74
  L 404.78 171.25"
/>
<path stroke="#8192ae" vectorEffect="non-scaling-stroke" d="
  M 404.78 171.25
  L 404.84 1.44
  Q 404.84 0.97 404.37 0.97
  L 0.00 0.95"
/>
<path stroke="#dac69f" vectorEffect="non-scaling-stroke" d="
  M 404.78 171.25
  Q 377.62 197.45 363.64 231.94
  Q 358.49 244.66 354.02 260.48
  Q 353.11 263.70 352.48 260.41
  Q 351.08 253.23 347.87 245.47
  Q 346.48 242.11 346.20 238.55
  C 345.44 228.76 346.59 219.00 347.71 209.35
  Q 352.67 166.58 335.77 127.72
  Q 335.48 127.06 334.81 127.34
  L 334.41 127.51
  A 0.55 0.53 72.9 0 0 334.10 128.12
  C 334.81 131.40 335.92 134.67 336.25 138.02
  Q 337.42 149.92 336.56 158.36
  Q 335.08 172.86 333.32 187.83
  C 332.63 193.64 332.47 200.21 332.56 206.20
  C 332.75 218.67 335.94 233.38 343.92 242.62
  Q 345.96 244.98 347.07 247.66
  Q 350.84 256.78 351.89 265.66
  Q 352.11 267.55 351.70 269.34
  Q 349.95 276.95 348.46 284.95
  Q 343.36 312.27 340.37 345.02
  Q 340.30 345.81 339.92 345.12
  C 322.45 313.74 302.96 284.03 281.57 255.50
  Q 274.30 245.81 270.22 239.09
  Q 255.62 215.07 247.82 188.55
  A 2.80 2.77 -39.4 0 1 248.04 186.45
  Q 251.62 179.77 254.55 172.52
  Q 267.00 141.74 268.58 109.53
  Q 268.61 108.83 268.13 108.33
  A 0.72 0.71 -48.5 0 0 267.06 108.40
  C 258.36 119.58 252.99 132.98 249.96 147.23
  Q 246.13 165.22 246.47 178.22
  Q 246.49 178.97 246.23 179.64
  Q 245.79 180.80 245.49 179.60
  Q 237.04 146.11 239.75 111.00
  C 240.08 106.77 241.50 102.77 242.52 98.58"
/>
<path stroke="#c3ae86" vectorEffect="non-scaling-stroke" d="
  M 242.52 98.58
  Q 245.98 88.33 250.50 72.75
  C 256.32 52.65 256.27 30.93 245.75 12.55
  Q 245.35 11.85 244.61 11.57
  A 0.60 0.60 0.0 0 0 243.81 12.28
  C 247.88 27.14 239.93 40.54 234.13 53.66
  Q 224.79 74.84 231.88 96.87"
/>
<path stroke="#dac69f" vectorEffect="non-scaling-stroke" d="
  M 231.88 96.87
  Q 233.94 103.54 237.81 109.32
  Q 238.09 109.74 238.06 110.25
  Q 236.81 128.64 238.33 145.79
  Q 238.59 148.78 238.41 150.84
  Q 238.30 152.10 237.84 150.92
  Q 235.54 145.07 231.90 139.27
  Q 211.59 106.97 177.45 89.37
  Q 176.64 88.96 176.11 89.70
  L 175.90 90.00
  A 0.58 0.57 35.6 0 0 176.04 90.81
  C 201.54 108.64 222.99 131.83 238.44 158.91
  Q 240.16 161.92 240.77 165.26
  C 245.17 189.32 253.38 213.77 266.23 235.05
  C 266.72 235.85 266.86 236.69 267.27 237.52
  Q 267.31 237.60 267.24 237.64
  L 267.24 237.64
  Q 267.16 237.70 267.10 237.62
  Q 260.27 228.50 252.86 219.89
  Q 225.81 188.47 195.42 160.58
  Q 191.40 156.89 183.67 150.44"
/>
<path stroke="#c3ae86" vectorEffect="non-scaling-stroke" d="
  M 183.67 150.44
  Q 182.54 149.72 182.24 148.50
  Q 179.56 137.59 176.61 129.87
  C 163.54 95.60 139.26 66.80 115.58 39.28
  Q 115.09 38.71 114.31 38.78
  A 0.51 0.51 0.0 0 0 113.87 39.44
  C 118.71 55.59 127.64 70.03 137.76 83.21
  Q 146.93 95.14 155.56 105.87
  Q 170.86 124.89 180.51 147.41
  Q 180.85 148.22 180.19 147.65
  Q 158.89 129.36 133.48 112.53
  Q 132.61 111.95 131.84 111.08
  Q 94.72 68.52 39.34 57.85
  Q 35.44 57.09 31.07 56.78
  Q 26.94 56.49 22.92 55.79
  A 0.72 0.72 0.0 0 0 22.08 56.46
  L 22.06 56.80
  A 0.47 0.47 0.0 0 0 22.46 57.29
  Q 27.76 57.97 30.89 59.51
  Q 35.89 61.97 40.40 65.36
  C 49.21 71.99 56.07 80.76 64.52 87.82
  Q 92.68 111.34 130.20 112.54
  Q 130.70 112.56 131.13 112.84
  Q 158.18 130.63 182.76 151.81"
/>
<path stroke="#dac69f" vectorEffect="non-scaling-stroke" d="
  M 182.76 151.81
  L 193.13 161.01
  Q 193.68 161.49 192.97 161.34
  Q 185.34 159.79 182.94 159.60
  Q 157.97 157.65 131.55 163.71
  Q 129.65 164.15 124.67 163.45
  Q 121.11 162.95 117.39 162.80
  Q 75.70 161.13 36.23 177.61
  A 1.01 1.00 75.5 0 0 35.62 178.66
  Q 35.70 179.34 36.37 179.22
  C 39.80 178.63 43.16 178.98 46.60 178.78
  Q 76.13 177.04 105.10 171.50
  C 116.70 169.29 127.94 166.15 139.48 163.87
  Q 155.25 160.75 173.81 160.92
  Q 184.24 161.02 195.23 163.51
  Q 196.05 163.69 196.70 164.29
  Q 207.52 174.03 218.36 184.82
  Q 218.85 185.30 218.17 185.41
  C 203.26 187.88 188.11 187.35 172.93 186.22
  C 152.57 184.72 132.93 185.70 114.61 195.97
  A 0.78 0.78 0.0 0 0 114.33 197.06
  L 114.56 197.43
  A 0.77 0.77 0.0 0 0 115.64 197.66
  C 124.07 192.02 134.57 192.74 143.98 195.25
  Q 152.65 197.57 160.58 199.20
  C 168.63 200.86 177.29 199.65 185.15 197.69
  Q 199.38 194.15 217.65 187.15
  Q 218.08 186.98 218.49 186.77
  Q 219.75 186.10 220.78 187.16
  Q 274.20 242.45 312.98 303.29
  Q 313.44 304.02 312.68 303.62
  Q 302.21 298.10 291.25 295.17
  Q 290.18 294.88 289.60 293.98
  Q 281.61 281.63 268.33 269.89
  Q 244.27 248.60 213.71 241.02
  A 0.58 0.58 0.0 0 0 213.02 241.40
  Q 212.90 241.77 213.09 242.11
  Q 213.28 242.46 213.63 242.65
  Q 253.39 263.65 286.48 293.47
  Q 287.25 294.16 286.25 293.91
  Q 275.37 291.24 266.02 290.43
  Q 259.22 289.84 251.46 289.63
  C 246.74 289.50 240.92 282.05 237.90 278.60
  C 228.55 267.95 215.70 261.86 201.83 259.31
  C 187.51 256.66 172.07 256.76 156.85 257.64
  Q 156.28 257.67 156.21 258.23
  L 156.17 258.55
  A 0.41 0.41 0.0 0 0 156.57 259.01
  Q 166.57 259.18 176.15 264.71
  Q 182.71 268.49 189.13 272.64
  C 199.96 279.62 210.94 285.37 222.65 288.26
  Q 228.17 289.62 222.48 289.65
  Q 206.74 289.74 188.74 290.88
  C 178.17 291.55 166.92 292.80 159.10 300.14
  C 157.19 301.93 154.48 302.54 151.94 302.72
  C 143.24 303.34 134.22 302.56 125.67 302.99
  Q 90.82 304.75 62.90 324.95
  Q 61.87 325.70 62.40 326.87
  A 0.53 0.53 0.0 0 0 63.12 327.14
  C 72.78 322.47 85.80 322.32 96.36 323.14
  C 107.53 324.00 118.77 325.09 129.55 323.44
  C 140.81 321.72 152.80 315.74 157.87 305.19
  C 161.47 297.71 171.31 294.34 179.02 293.53
  C 201.75 291.13 224.91 291.15 247.72 290.72
  A 1.10 1.10 0.0 0 1 248.77 291.46
  L 248.86 291.72
  Q 248.95 291.98 248.68 292.04
  Q 247.08 292.45 245.34 292.45
  Q 243.84 292.45 242.10 292.84
  Q 220.25 297.75 200.67 310.67
  C 183.36 322.10 166.44 336.10 152.48 348.77
  Q 151.89 349.30 152.44 349.93
  A 0.83 0.82 -28.7 0 0 153.31 350.18
  C 171.31 344.54 187.77 334.33 202.33 322.79
  C 214.72 312.97 226.31 304.26 240.52 297.94
  Q 257.55 290.35 274.73 293.20
  Q 298.06 297.07 313.37 305.69
  C 314.60 306.39 315.49 307.00 316.27 308.22
  Q 330.24 330.35 339.58 347.37
  C 340.99 349.93 340.02 351.84 339.95 354.51
  Q 338.89 391.30 347.28 426.24
  Q 350.06 437.83 353.50 449.35
  Q 353.52 449.41 353.46 449.43
  L 353.21 449.54
  A 0.44 0.43 -24.6 0 1 352.66 449.34
  C 344.32 433.10 337.79 420.44 328.18 406.90
  C 326.60 404.66 323.90 402.38 323.29 399.81
  C 320.94 390.05 323.09 381.04 324.88 371.37
  Q 327.75 355.93 318.56 342.65
  Q 315.28 337.89 309.14 330.63
  Q 307.29 328.45 305.32 327.14
  A 0.32 0.31 -67.2 0 0 304.84 327.34
  L 304.78 327.61
  Q 304.63 328.30 305.14 328.80
  Q 309.62 333.04 311.03 336.77
  Q 313.51 343.34 312.92 352.37
  Q 312.43 359.93 311.39 367.00
  Q 309.47 380.14 315.29 391.60
  Q 316.24 393.46 314.74 392.00
  C 307.74 385.18 298.86 379.57 289.42 376.51
  Q 287.08 375.75 285.22 374.08
  Q 277.12 366.79 268.02 359.77
  Q 257.92 351.99 248.27 349.41
  Q 231.93 345.04 216.25 345.31
  Q 210.93 345.40 205.37 347.36
  Q 204.64 347.62 204.65 348.39
  L 204.65 348.67
  A 0.55 0.55 0.0 0 0 205.38 349.18
  Q 208.62 348.07 211.32 348.62
  C 221.82 350.74 227.02 362.03 235.17 368.12
  Q 242.96 373.94 253.04 375.69
  Q 268.32 378.36 284.05 376.97
  Q 286.19 376.78 288.62 377.62
  C 299.18 381.22 309.55 388.15 316.78 396.07
  Q 320.26 399.89 323.80 404.01
  C 330.86 412.25 336.46 421.87 341.63 431.45
  Q 341.86 431.87 341.38 431.83
  Q 331.79 431.10 323.65 426.65
  Q 313.94 421.34 305.06 416.24
  Q 293.68 409.70 281.74 409.87
  Q 270.41 410.02 258.99 414.84
  A 0.81 0.81 0.0 0 0 258.53 415.81
  L 258.63 416.17
  Q 258.73 416.52 259.09 416.43
  Q 263.55 415.20 266.57 415.37
  C 276.80 415.96 284.53 421.41 292.98 426.71
  C 307.05 435.53 323.30 439.25 339.14 434.41
  Q 340.49 434.00 341.55 433.23
  Q 342.36 432.64 342.84 433.52
  Q 349.12 445.12 354.93 455.68
  Q 360.12 465.12 369.41 478.32
  Q 379.29 492.37 394.48 500.37
  A 2.58 2.56 8.3 0 1 395.81 502.14
  Q 397.91 512.61 399.64 522.57
  C 400.21 525.83 400.39 529.04 401.02 532.32
  Q 401.59 535.30 401.86 538.22
  Q 402.13 541.27 402.56 544.14
  Q 403.76 552.16 404.41 561.69
  Q 404.94 569.55 404.89 579.34
  Q 404.78 603.78 404.97 628.05
  C 405.01 633.95 404.80 640.25 404.03 646.00
  Q 403.56 649.58 403.39 652.94
  Q 403.36 653.69 404.04 653.39
  Q 404.46 653.21 404.86 653.84
  A 0.73 0.71 -62.6 0 1 404.98 654.24
  L 404.96 686.00"
/>
<path stroke="#9e7526" vectorEffect="non-scaling-stroke" d="
  M 242.52 98.58
  Q 241.60 98.91 241.22 97.48"
/>
<path stroke="#c3ae86" vectorEffect="non-scaling-stroke" d="
  M 241.22 97.48
  Q 243.72 89.94 248.45 74.25
  C 253.88 56.20 255.00 36.67 247.62 19.60
  Q 246.65 17.35 246.61 19.80
  C 246.40 32.16 240.81 42.49 235.88 53.48
  C 229.67 67.34 228.66 81.95 233.44 96.52"
/>
<path stroke="#9e7526" vectorEffect="non-scaling-stroke" d="
  M 233.44 96.52
  Q 233.10 97.03 231.88 96.87"
/>
<path stroke="#dac69f" vectorEffect="non-scaling-stroke" d="
  M 241.22 97.48
  L 238.85 106.22
  A 0.50 0.50 0.0 0 1 238.08 106.50
  Q 237.50 106.11 237.15 105.37
  Q 235.09 101.03 233.44 96.52"
/>
<path stroke="#9e7526" vectorEffect="non-scaling-stroke" d="
  M 183.67 150.44
  Q 183.51 151.90 182.76 151.81"
/>
<path stroke="#c3ae86" vectorEffect="non-scaling-stroke" d="
  M 175.62 131.76
  C 169.13 114.47 159.54 98.02 148.56 82.94
  Q 134.70 63.90 118.12 44.88
  Q 116.59 43.12 117.40 45.31
  C 122.54 59.14 131.25 72.19 140.48 83.98
  C 152.62 99.49 165.39 114.81 175.17 132.28
  Q 175.19 132.31 175.21 132.29
  L 175.45 132.18
  Q 175.73 132.05 175.62 131.76"
/>
<path stroke="#c3ae86" vectorEffect="non-scaling-stroke" d="
  M 127.97 109.10
  C 103.51 81.86 70.15 63.88 33.56 58.25
  Q 33.32 58.22 33.11 58.29
  Q 32.17 58.63 33.05 59.10
  Q 41.65 63.69 48.91 70.82
  C 55.54 77.33 61.99 84.26 69.14 89.73
  Q 95.18 109.66 128.64 111.05
  Q 129.22 111.07 128.96 110.56
  Q 128.54 109.73 127.97 109.10"
/>
<path stroke="#dac69f" vectorEffect="non-scaling-stroke" d="
  M 404.78 173.74
  Q 404.57 173.70 404.44 173.70
  Q 404.33 173.70 404.25 173.78
  Q 395.33 182.23 389.24 190.27
  Q 378.15 204.92 368.28 225.70
  Q 368.22 225.82 368.21 225.96
  Q 368.18 226.24 368.34 226.32
  Q 368.82 226.52 369.13 226.10
  Q 376.73 215.66 386.03 208.02
  Q 393.43 201.93 404.75 193.68"
/>
<path stroke="#dac69f" vectorEffect="non-scaling-stroke" d="
  M 404.80 195.76
  Q 397.36 200.80 390.48 206.45
  C 378.01 216.68 367.12 228.48 361.33 243.21
  Q 357.99 251.69 354.86 262.76
  Q 349.38 282.16 346.50 305.27
  Q 346.20 307.68 347.50 305.62
  Q 351.84 298.73 357.35 293.49
  Q 364.36 286.84 371.74 280.08
  Q 380.25 272.28 383.71 261.65
  C 384.97 257.79 385.06 253.79 384.53 249.80
  Q 384.04 246.10 386.18 249.16
  Q 390.42 255.23 388.85 263.64
  C 387.48 271.01 381.93 278.00 376.59 283.54
  Q 361.04 299.68 345.94 314.26
  A 3.36 3.34 71.5 0 0 344.94 316.28
  Q 343.22 330.90 341.79 345.87
  C 341.50 348.85 342.61 349.99 343.87 352.34
  Q 371.13 403.59 387.76 462.10
  Q 387.80 462.24 387.93 462.29
  Q 388.07 462.34 388.24 462.24
  Q 388.34 462.18 388.35 462.05
  C 388.68 458.11 388.51 454.28 388.82 450.35
  Q 389.74 438.52 391.02 427.66
  C 391.47 423.83 392.38 419.94 392.83 416.06
  C 393.19 412.97 394.21 409.96 394.88 406.88
  A 1.41 1.40 -65.1 0 0 394.37 405.47
  C 384.75 398.04 380.54 385.15 378.30 372.92
  Q 376.77 364.55 375.16 354.25
  Q 372.85 339.47 365.39 327.62
  Q 364.19 325.71 361.84 323.69
  A 0.64 0.64 0.0 0 1 361.79 322.78
  L 362.00 322.53
  A 0.54 0.53 -51.0 0 1 362.70 322.45
  Q 370.65 328.02 374.79 335.98
  C 378.64 343.36 381.34 352.01 382.90 360.48
  Q 385.17 372.78 387.52 383.80
  Q 389.61 393.60 394.07 401.63
  Q 395.42 404.06 396.00 401.34
  Q 399.10 386.68 404.73 371.19"
/>
<path stroke="#dac69f" vectorEffect="non-scaling-stroke" d="
  M 404.85 378.39
  Q 402.59 381.42 401.78 385.04
  Q 400.75 389.60 400.36 390.81
  Q 399.29 394.09 398.67 397.35
  Q 398.05 400.58 397.28 403.82
  Q 396.12 408.66 395.21 413.98
  Q 394.59 417.58 394.03 421.28
  Q 392.65 430.38 391.39 439.00
  Q 390.42 445.57 390.04 466.03
  Q 389.96 470.17 390.74 473.40
  Q 391.57 476.86 392.53 480.52
  Q 398.54 503.34 403.75 540.00
  C 404.03 542.02 403.71 543.75 403.83 545.73
  Q 403.84 545.90 404.02 545.91
  L 404.52 545.94
  Q 404.78 545.95 404.78 545.69
  L 404.98 462.56"
/>
<path stroke="#dac69f" vectorEffect="non-scaling-stroke" d="
  M 405.44 458.44
  L 406.00 492.39"
/>
<path stroke="#dac69f" vectorEffect="non-scaling-stroke" d="
  M 406.00 504.49
  Q 405.27 535.82 406.00 567.14"
/>
<path stroke="#dac69f" vectorEffect="non-scaling-stroke" d="
  M 406.00 621.98
  Q 405.32 624.41 406.00 626.92"
/>
<path stroke="#dac69f" vectorEffect="non-scaling-stroke" d="
  M 406.00 631.97
  Q 405.19 644.08 406.00 656.15"
/>
<path stroke="#dac69f" vectorEffect="non-scaling-stroke" d="
  M 237.19 152.78
  Q 237.26 152.67 237.21 152.55
  C 227.45 131.36 211.23 113.35 192.03 99.98
  Q 191.80 99.82 191.63 100.04
  L 191.47 100.25
  Q 191.42 100.31 191.48 100.36
  Q 199.41 107.26 205.22 112.98
  C 214.72 122.34 223.25 132.66 230.71 143.80
  Q 233.86 148.50 237.02 153.08
  Q 237.46 153.71 237.96 155.06
  Q 238.36 156.11 239.09 157.09
  Q 239.42 157.53 239.44 156.98
  Q 239.46 155.74 239.27 154.76
  Q 238.90 152.83 237.23 152.86
  Q 237.14 152.86 237.19 152.78"
/>
<path stroke="#dac69f" vectorEffect="non-scaling-stroke" d="
  M 247.30 183.56
  Q 248.81 181.77 249.35 180.58
  Q 264.12 148.53 266.62 113.66
  Q 266.77 111.54 265.52 113.26
  Q 264.71 114.38 263.99 115.60
  Q 255.24 130.34 251.52 147.24
  Q 248.69 160.07 248.35 167.88
  Q 247.88 178.65 246.85 184.30
  Q 246.84 184.40 246.94 184.40
  Q 247.01 184.40 247.07 184.36
  Q 247.21 184.28 247.15 184.13
  Q 247.10 184.03 247.12 183.92
  Q 247.16 183.72 247.30 183.56"
/>
<path stroke="#dac69f" vectorEffect="non-scaling-stroke" d="
  M 335.29 217.42
  Q 337.00 229.59 344.09 240.99
  Q 344.93 242.34 344.73 240.77
  Q 343.57 231.43 344.63 221.64
  C 345.32 215.35 345.92 209.05 346.54 202.74
  Q 349.70 170.61 338.89 139.80
  Q 338.65 139.13 338.37 138.88
  Q 337.62 138.23 337.74 139.21
  Q 338.84 149.02 338.00 158.34
  Q 336.89 170.64 335.27 183.18
  Q 332.97 200.96 335.29 217.42"
/>
<path stroke="#dac69f" vectorEffect="non-scaling-stroke" d="
  M 124.68 165.27
  Q 125.69 164.98 124.65 164.90
  Q 83.89 161.67 45.99 175.41
  Q 44.09 176.10 42.38 176.98
  Q 41.50 177.44 42.49 177.39
  Q 79.01 175.65 113.04 168.21
  Q 119.21 166.86 124.68 165.27"
/>
<path stroke="#dac69f" vectorEffect="non-scaling-stroke" d="
  M 130.56 191.04
  Q 130.25 191.12 130.17 191.42
  A 0.34 0.34 0.0 0 0 130.50 191.85
  Q 136.30 191.72 140.94 192.82
  Q 149.03 194.75 157.61 196.90
  C 167.24 199.33 176.01 198.31 185.97 195.73
  Q 196.01 193.12 207.09 189.28
  Q 209.91 188.31 206.93 188.51
  C 192.12 189.49 177.52 188.17 163.08 187.47
  Q 146.16 186.64 130.56 191.04"
/>
<path stroke="#dac69f" vectorEffect="non-scaling-stroke" d="
  M 239.18 252.11
  Q 231.48 248.25 223.07 245.14
  Q 223.01 245.12 222.99 245.17
  L 222.87 245.42
  Q 222.72 245.75 223.03 245.93
  Q 249.21 260.75 273.77 280.47
  Q 277.89 283.78 281.80 287.01
  Q 281.98 287.16 282.19 287.05
  Q 282.24 287.02 282.25 286.97
  Q 282.31 286.67 282.11 286.42
  Q 264.13 264.60 239.18 252.11"
/>
<path stroke="#dac69f" vectorEffect="non-scaling-stroke" d="
  M 387.24 255.29
  Q 386.43 252.98 386.26 255.42
  C 385.65 264.70 380.63 272.36 374.32 279.12
  C 367.35 286.60 358.68 292.60 352.52 300.87
  Q 349.43 305.02 346.82 309.52
  Q 344.81 312.96 347.82 310.34
  Q 348.57 309.69 349.27 309.01
  Q 365.22 293.62 377.30 280.97
  C 383.26 274.74 387.46 268.13 387.80 259.32
  Q 387.89 257.16 387.24 255.29"
/>
<path stroke="#dac69f" vectorEffect="non-scaling-stroke" d="
  M 168.32 258.68
  Q 166.96 258.70 168.12 259.40
  C 169.74 260.39 171.60 260.80 173.30 261.59
  C 180.62 264.95 187.60 269.89 194.39 274.16
  Q 205.93 281.41 221.50 286.39
  Q 232.70 289.98 244.93 289.07
  A 0.40 0.40 0.0 0 0 245.18 288.38
  Q 239.85 283.47 235.56 278.46
  C 219.59 259.79 191.02 258.46 168.32 258.68"
/>
<path stroke="#dac69f" vectorEffect="non-scaling-stroke" d="
  M 159.13 346.49
  C 176.23 340.04 191.83 329.23 206.45 317.67
  C 214.21 311.52 222.51 305.39 230.98 300.82
  Q 236.52 297.83 244.42 294.83
  Q 244.59 294.77 244.53 294.59
  L 244.46 294.33
  Q 244.32 293.89 243.88 293.99
  Q 223.37 298.61 205.54 309.53
  C 188.73 319.82 173.11 332.80 158.60 345.60
  Q 156.43 347.51 159.13 346.49"
/>
<path stroke="#dac69f" vectorEffect="non-scaling-stroke" d="
  M 128.90 304.60
  C 108.13 304.70 88.22 311.02 70.37 322.05
  Q 69.23 322.76 70.55 322.53
  Q 73.01 322.12 75.32 321.73
  Q 82.07 320.58 94.04 321.27
  Q 104.00 321.86 113.50 322.64
  Q 121.15 323.26 131.55 321.31
  Q 148.29 318.17 156.69 304.38
  Q 157.26 303.44 156.19 303.69
  Q 151.41 304.82 147.19 304.74
  Q 138.19 304.56 128.90 304.60"
/>
<path stroke="#dac69f" vectorEffect="non-scaling-stroke" d="
  M 370.89 334.04
  Q 375.18 344.39 376.59 354.16
  Q 378.46 367.08 380.56 376.99
  C 382.04 383.97 385.09 392.42 389.67 398.39
  Q 389.93 398.74 390.27 398.46
  Q 390.51 398.26 390.39 397.98
  Q 387.55 391.43 386.02 384.48
  C 384.60 378.04 383.38 371.62 382.29 365.14
  Q 380.56 354.85 377.10 345.02
  Q 375.31 339.92 371.41 333.44
  Q 371.38 333.38 371.32 333.41
  L 371.07 333.54
  Q 370.75 333.70 370.89 334.04"
/>
<path stroke="#dac69f" vectorEffect="non-scaling-stroke" d="
  M 323.46 370.96
  Q 325.93 358.80 319.84 347.68
  Q 316.72 341.98 313.51 338.40
  Q 313.00 337.83 313.17 338.58
  Q 314.95 346.60 314.36 352.79
  Q 313.69 359.85 312.77 367.25
  Q 310.71 383.96 320.55 397.54
  Q 321.52 398.87 321.28 397.24
  Q 320.70 393.31 320.69 390.08
  C 320.66 384.80 322.02 379.51 322.85 374.30
  Q 323.12 372.61 323.46 370.96"
/>
<path stroke="#dac69f" vectorEffect="non-scaling-stroke" d="
  M 283.88 374.83
  C 271.98 364.37 259.84 353.11 243.80 349.84
  Q 231.56 347.35 220.24 346.76
  Q 217.37 346.61 214.49 347.01
  Q 212.40 347.31 214.39 348.01
  C 223.65 351.29 228.19 360.39 234.88 365.94
  Q 243.00 372.67 254.68 374.49
  Q 268.45 376.65 283.58 375.72
  Q 284.81 375.65 283.88 374.83"
/>
<path stroke="#dac69f" vectorEffect="non-scaling-stroke" d="
  M 388.39 469.84
  C 387.79 467.38 386.86 465.06 386.20 462.67
  Q 370.31 404.82 342.02 351.85
  Q 341.55 350.97 341.50 351.96
  Q 339.70 387.13 348.48 425.01
  Q 351.53 438.18 355.19 451.09
  Q 356.44 455.47 358.83 459.48
  C 367.93 474.75 377.88 490.57 394.62 498.53
  A 0.36 0.36 0.0 0 0 395.12 498.13
  Q 392.41 486.33 388.39 469.84"
/>
<path stroke="#dac69f" vectorEffect="non-scaling-stroke" d="
  M 337.31 432.57
  Q 328.26 431.23 321.00 427.10
  Q 313.32 422.75 304.44 417.66
  Q 288.19 408.35 270.16 412.95
  Q 267.20 413.71 270.21 414.17
  C 279.90 415.66 289.01 422.48 297.47 427.53
  Q 311.78 436.06 328.55 434.94
  C 331.60 434.74 334.51 434.35 337.39 433.41
  Q 339.14 432.84 337.31 432.57"
/>
</g>
<path fill="#02255c" d="
  M 0.00 0.00
  L 16.49 0.00
  L 22.14 0.00
  L 23.50 0.00
  L 92.63 0.00
  L 97.50 0.00
  Q 164.70 0.27 231.90 0.18
  Q 231.99 0.18 232.06 0.09
  Q 232.09 0.04 232.12 0.00
  L 232.51 0.00
  Q 232.51 0.05 232.51 0.10
  Q 232.51 0.20 232.61 0.20
  Q 318.68 0.15 404.75 0.19
  Q 405.04 0.19 405.12 0.00
  L 406.00 0.00
  L 406.00 371.62
  L 406.00 378.51
  L 406.00 456.79
  L 405.44 458.44
  L 404.98 462.56
  L 404.85 378.39
  L 404.73 371.19
  L 404.80 195.76
  L 404.75 193.68
  L 404.78 173.74
  L 404.78 171.25
  L 404.84 1.44
  Q 404.84 0.97 404.37 0.97
  L 0.00 0.95
  L 0.00 0.00
  Z"
/>
<path fill="#ffffff" d="
  M 16.49 0.00
  L 22.14 0.00
  L 16.49 0.00
  Z"
/>
<path fill="#ffffff" d="
  M 23.50 0.00
  L 92.63 0.00
  L 23.50 0.00
  Z"
/>
<path fill="#ffffff" d="
  M 97.50 0.00
  L 232.12 0.00
  Q 232.09 0.04 232.06 0.09
  Q 231.99 0.18 231.90 0.18
  Q 164.70 0.27 97.50 0.00
  Z"
/>
<path fill="#ffffff" d="
  M 232.51 0.00
  L 405.12 0.00
  Q 405.04 0.19 404.75 0.19
  Q 318.68 0.15 232.61 0.20
  Q 232.51 0.20 232.51 0.10
  Q 232.51 0.05 232.51 0.00
  Z"
/>
<path fill="#ffffff" d="
  M 0.00 0.95
  L 404.37 0.97
  Q 404.84 0.97 404.84 1.44
  L 404.78 171.25
  Q 377.62 197.45 363.64 231.94
  Q 358.49 244.66 354.02 260.48
  Q 353.11 263.70 352.48 260.41
  Q 351.08 253.23 347.87 245.47
  Q 346.48 242.11 346.20 238.55
  C 345.44 228.76 346.59 219.00 347.71 209.35
  Q 352.67 166.58 335.77 127.72
  Q 335.48 127.06 334.81 127.34
  L 334.41 127.51
  A 0.55 0.53 72.9 0 0 334.10 128.12
  C 334.81 131.40 335.92 134.67 336.25 138.02
  Q 337.42 149.92 336.56 158.36
  Q 335.08 172.86 333.32 187.83
  C 332.63 193.64 332.47 200.21 332.56 206.20
  C 332.75 218.67 335.94 233.38 343.92 242.62
  Q 345.96 244.98 347.07 247.66
  Q 350.84 256.78 351.89 265.66
  Q 352.11 267.55 351.70 269.34
  Q 349.95 276.95 348.46 284.95
  Q 343.36 312.27 340.37 345.02
  Q 340.30 345.81 339.92 345.12
  C 322.45 313.74 302.96 284.03 281.57 255.50
  Q 274.30 245.81 270.22 239.09
  Q 255.62 215.07 247.82 188.55
  A 2.80 2.77 -39.4 0 1 248.04 186.45
  Q 251.62 179.77 254.55 172.52
  Q 267.00 141.74 268.58 109.53
  Q 268.61 108.83 268.13 108.33
  A 0.72 0.71 -48.5 0 0 267.06 108.40
  C 258.36 119.58 252.99 132.98 249.96 147.23
  Q 246.13 165.22 246.47 178.22
  Q 246.49 178.97 246.23 179.64
  Q 245.79 180.80 245.49 179.60
  Q 237.04 146.11 239.75 111.00
  C 240.08 106.77 241.50 102.77 242.52 98.58
  Q 245.98 88.33 250.50 72.75
  C 256.32 52.65 256.27 30.93 245.75 12.55
  Q 245.35 11.85 244.61 11.57
  A 0.60 0.60 0.0 0 0 243.81 12.28
  C 247.88 27.14 239.93 40.54 234.13 53.66
  Q 224.79 74.84 231.88 96.87
  Q 233.94 103.54 237.81 109.32
  Q 238.09 109.74 238.06 110.25
  Q 236.81 128.64 238.33 145.79
  Q 238.59 148.78 238.41 150.84
  Q 238.30 152.10 237.84 150.92
  Q 235.54 145.07 231.90 139.27
  Q 211.59 106.97 177.45 89.37
  Q 176.64 88.96 176.11 89.70
  L 175.90 90.00
  A 0.58 0.57 35.6 0 0 176.04 90.81
  C 201.54 108.64 222.99 131.83 238.44 158.91
  Q 240.16 161.92 240.77 165.26
  C 245.17 189.32 253.38 213.77 266.23 235.05
  C 266.72 235.85 266.86 236.69 267.27 237.52
  Q 267.31 237.60 267.24 237.64
  L 267.24 237.64
  Q 267.16 237.70 267.10 237.62
  Q 260.27 228.50 252.86 219.89
  Q 225.81 188.47 195.42 160.58
  Q 191.40 156.89 183.67 150.44
  Q 182.54 149.72 182.24 148.50
  Q 179.56 137.59 176.61 129.87
  C 163.54 95.60 139.26 66.80 115.58 39.28
  Q 115.09 38.71 114.31 38.78
  A 0.51 0.51 0.0 0 0 113.87 39.44
  C 118.71 55.59 127.64 70.03 137.76 83.21
  Q 146.93 95.14 155.56 105.87
  Q 170.86 124.89 180.51 147.41
  Q 180.85 148.22 180.19 147.65
  Q 158.89 129.36 133.48 112.53
  Q 132.61 111.95 131.84 111.08
  Q 94.72 68.52 39.34 57.85
  Q 35.44 57.09 31.07 56.78
  Q 26.94 56.49 22.92 55.79
  A 0.72 0.72 0.0 0 0 22.08 56.46
  L 22.06 56.80
  A 0.47 0.47 0.0 0 0 22.46 57.29
  Q 27.76 57.97 30.89 59.51
  Q 35.89 61.97 40.40 65.36
  C 49.21 71.99 56.07 80.76 64.52 87.82
  Q 92.68 111.34 130.20 112.54
  Q 130.70 112.56 131.13 112.84
  Q 158.18 130.63 182.76 151.81
  L 193.13 161.01
  Q 193.68 161.49 192.97 161.34
  Q 185.34 159.79 182.94 159.60
  Q 157.97 157.65 131.55 163.71
  Q 129.65 164.15 124.67 163.45
  Q 121.11 162.95 117.39 162.80
  Q 75.70 161.13 36.23 177.61
  A 1.01 1.00 75.5 0 0 35.62 178.66
  Q 35.70 179.34 36.37 179.22
  C 39.80 178.63 43.16 178.98 46.60 178.78
  Q 76.13 177.04 105.10 171.50
  C 116.70 169.29 127.94 166.15 139.48 163.87
  Q 155.25 160.75 173.81 160.92
  Q 184.24 161.02 195.23 163.51
  Q 196.05 163.69 196.70 164.29
  Q 207.52 174.03 218.36 184.82
  Q 218.85 185.30 218.17 185.41
  C 203.26 187.88 188.11 187.35 172.93 186.22
  C 152.57 184.72 132.93 185.70 114.61 195.97
  A 0.78 0.78 0.0 0 0 114.33 197.06
  L 114.56 197.43
  A 0.77 0.77 0.0 0 0 115.64 197.66
  C 124.07 192.02 134.57 192.74 143.98 195.25
  Q 152.65 197.57 160.58 199.20
  C 168.63 200.86 177.29 199.65 185.15 197.69
  Q 199.38 194.15 217.65 187.15
  Q 218.08 186.98 218.49 186.77
  Q 219.75 186.10 220.78 187.16
  Q 274.20 242.45 312.98 303.29
  Q 313.44 304.02 312.68 303.62
  Q 302.21 298.10 291.25 295.17
  Q 290.18 294.88 289.60 293.98
  Q 281.61 281.63 268.33 269.89
  Q 244.27 248.60 213.71 241.02
  A 0.58 0.58 0.0 0 0 213.02 241.40
  Q 212.90 241.77 213.09 242.11
  Q 213.28 242.46 213.63 242.65
  Q 253.39 263.65 286.48 293.47
  Q 287.25 294.16 286.25 293.91
  Q 275.37 291.24 266.02 290.43
  Q 259.22 289.84 251.46 289.63
  C 246.74 289.50 240.92 282.05 237.90 278.60
  C 228.55 267.95 215.70 261.86 201.83 259.31
  C 187.51 256.66 172.07 256.76 156.85 257.64
  Q 156.28 257.67 156.21 258.23
  L 156.17 258.55
  A 0.41 0.41 0.0 0 0 156.57 259.01
  Q 166.57 259.18 176.15 264.71
  Q 182.71 268.49 189.13 272.64
  C 199.96 279.62 210.94 285.37 222.65 288.26
  Q 228.17 289.62 222.48 289.65
  Q 206.74 289.74 188.74 290.88
  C 178.17 291.55 166.92 292.80 159.10 300.14
  C 157.19 301.93 154.48 302.54 151.94 302.72
  C 143.24 303.34 134.22 302.56 125.67 302.99
  Q 90.82 304.75 62.90 324.95
  Q 61.87 325.70 62.40 326.87
  A 0.53 0.53 0.0 0 0 63.12 327.14
  C 72.78 322.47 85.80 322.32 96.36 323.14
  C 107.53 324.00 118.77 325.09 129.55 323.44
  C 140.81 321.72 152.80 315.74 157.87 305.19
  C 161.47 297.71 171.31 294.34 179.02 293.53
  C 201.75 291.13 224.91 291.15 247.72 290.72
  A 1.10 1.10 0.0 0 1 248.77 291.46
  L 248.86 291.72
  Q 248.95 291.98 248.68 292.04
  Q 247.08 292.45 245.34 292.45
  Q 243.84 292.45 242.10 292.84
  Q 220.25 297.75 200.67 310.67
  C 183.36 322.10 166.44 336.10 152.48 348.77
  Q 151.89 349.30 152.44 349.93
  A 0.83 0.82 -28.7 0 0 153.31 350.18
  C 171.31 344.54 187.77 334.33 202.33 322.79
  C 214.72 312.97 226.31 304.26 240.52 297.94
  Q 257.55 290.35 274.73 293.20
  Q 298.06 297.07 313.37 305.69
  C 314.60 306.39 315.49 307.00 316.27 308.22
  Q 330.24 330.35 339.58 347.37
  C 340.99 349.93 340.02 351.84 339.95 354.51
  Q 338.89 391.30 347.28 426.24
  Q 350.06 437.83 353.50 449.35
  Q 353.52 449.41 353.46 449.43
  L 353.21 449.54
  A 0.44 0.43 -24.6 0 1 352.66 449.34
  C 344.32 433.10 337.79 420.44 328.18 406.90
  C 326.60 404.66 323.90 402.38 323.29 399.81
  C 320.94 390.05 323.09 381.04 324.88 371.37
  Q 327.75 355.93 318.56 342.65
  Q 315.28 337.89 309.14 330.63
  Q 307.29 328.45 305.32 327.14
  A 0.32 0.31 -67.2 0 0 304.84 327.34
  L 304.78 327.61
  Q 304.63 328.30 305.14 328.80
  Q 309.62 333.04 311.03 336.77
  Q 313.51 343.34 312.92 352.37
  Q 312.43 359.93 311.39 367.00
  Q 309.47 380.14 315.29 391.60
  Q 316.24 393.46 314.74 392.00
  C 307.74 385.18 298.86 379.57 289.42 376.51
  Q 287.08 375.75 285.22 374.08
  Q 277.12 366.79 268.02 359.77
  Q 257.92 351.99 248.27 349.41
  Q 231.93 345.04 216.25 345.31
  Q 210.93 345.40 205.37 347.36
  Q 204.64 347.62 204.65 348.39
  L 204.65 348.67
  A 0.55 0.55 0.0 0 0 205.38 349.18
  Q 208.62 348.07 211.32 348.62
  C 221.82 350.74 227.02 362.03 235.17 368.12
  Q 242.96 373.94 253.04 375.69
  Q 268.32 378.36 284.05 376.97
  Q 286.19 376.78 288.62 377.62
  C 299.18 381.22 309.55 388.15 316.78 396.07
  Q 320.26 399.89 323.80 404.01
  C 330.86 412.25 336.46 421.87 341.63 431.45
  Q 341.86 431.87 341.38 431.83
  Q 331.79 431.10 323.65 426.65
  Q 313.94 421.34 305.06 416.24
  Q 293.68 409.70 281.74 409.87
  Q 270.41 410.02 258.99 414.84
  A 0.81 0.81 0.0 0 0 258.53 415.81
  L 258.63 416.17
  Q 258.73 416.52 259.09 416.43
  Q 263.55 415.20 266.57 415.37
  C 276.80 415.96 284.53 421.41 292.98 426.71
  C 307.05 435.53 323.30 439.25 339.14 434.41
  Q 340.49 434.00 341.55 433.23
  Q 342.36 432.64 342.84 433.52
  Q 349.12 445.12 354.93 455.68
  Q 360.12 465.12 369.41 478.32
  Q 379.29 492.37 394.48 500.37
  A 2.58 2.56 8.3 0 1 395.81 502.14
  Q 397.91 512.61 399.64 522.57
  C 400.21 525.83 400.39 529.04 401.02 532.32
  Q 401.59 535.30 401.86 538.22
  Q 402.13 541.27 402.56 544.14
  Q 403.76 552.16 404.41 561.69
  Q 404.94 569.55 404.89 579.34
  Q 404.78 603.78 404.97 628.05
  C 405.01 633.95 404.80 640.25 404.03 646.00
  Q 403.56 649.58 403.39 652.94
  Q 403.36 653.69 404.04 653.39
  Q 404.46 653.21 404.86 653.84
  A 0.73 0.71 -62.6 0 1 404.98 654.24
  L 404.96 686.00
  L 0.00 686.00
  L 0.00 0.95
  Z"
/>
<path fill="#875c0c" d="
  M 242.52 98.58
  Q 241.60 98.91 241.22 97.48
  Q 243.72 89.94 248.45 74.25
  C 253.88 56.20 255.00 36.67 247.62 19.60
  Q 246.65 17.35 246.61 19.80
  C 246.40 32.16 240.81 42.49 235.88 53.48
  C 229.67 67.34 228.66 81.95 233.44 96.52
  Q 233.10 97.03 231.88 96.87
  Q 224.79 74.84 234.13 53.66
  C 239.93 40.54 247.88 27.14 243.81 12.28
  A 0.60 0.60 0.0 0 1 244.61 11.57
  Q 245.35 11.85 245.75 12.55
  C 256.27 30.93 256.32 52.65 250.50 72.75
  Q 245.98 88.33 242.52 98.58
  Z"
/>
<path fill="#ffffff" d="
  M 241.22 97.48
  L 238.85 106.22
  A 0.50 0.50 0.0 0 1 238.08 106.50
  Q 237.50 106.11 237.15 105.37
  Q 235.09 101.03 233.44 96.52
  C 228.66 81.95 229.67 67.34 235.88 53.48
  C 240.81 42.49 246.40 32.16 246.61 19.80
  Q 246.65 17.35 247.62 19.60
  C 255.00 36.67 253.88 56.20 248.45 74.25
  Q 243.72 89.94 241.22 97.48
  Z"
/>
<path fill="#875c0c" d="
  M 183.67 150.44
  Q 183.51 151.90 182.76 151.81
  Q 158.18 130.63 131.13 112.84
  Q 130.70 112.56 130.20 112.54
  Q 92.68 111.34 64.52 87.82
  C 56.07 80.76 49.21 71.99 40.40 65.36
  Q 35.89 61.97 30.89 59.51
  Q 27.76 57.97 22.46 57.29
  A 0.47 0.47 0.0 0 1 22.06 56.80
  L 22.08 56.46
  A 0.72 0.72 0.0 0 1 22.92 55.79
  Q 26.94 56.49 31.07 56.78
  Q 35.44 57.09 39.34 57.85
  Q 94.72 68.52 131.84 111.08
  Q 132.61 111.95 133.48 112.53
  Q 158.89 129.36 180.19 147.65
  Q 180.85 148.22 180.51 147.41
  Q 170.86 124.89 155.56 105.87
  Q 146.93 95.14 137.76 83.21
  C 127.64 70.03 118.71 55.59 113.87 39.44
  A 0.51 0.51 0.0 0 1 114.31 38.78
  Q 115.09 38.71 115.58 39.28
  C 139.26 66.80 163.54 95.60 176.61 129.87
  Q 179.56 137.59 182.24 148.50
  Q 182.54 149.72 183.67 150.44
  Z
  M 175.62 131.76
  C 169.13 114.47 159.54 98.02 148.56 82.94
  Q 134.70 63.90 118.12 44.88
  Q 116.59 43.12 117.40 45.31
  C 122.54 59.14 131.25 72.19 140.48 83.98
  C 152.62 99.49 165.39 114.81 175.17 132.28
  Q 175.19 132.31 175.21 132.29
  L 175.45 132.18
  Q 175.73 132.05 175.62 131.76
  Z
  M 127.97 109.10
  C 103.51 81.86 70.15 63.88 33.56 58.25
  Q 33.32 58.22 33.11 58.29
  Q 32.17 58.63 33.05 59.10
  Q 41.65 63.69 48.91 70.82
  C 55.54 77.33 61.99 84.26 69.14 89.73
  Q 95.18 109.66 128.64 111.05
  Q 129.22 111.07 128.96 110.56
  Q 128.54 109.73 127.97 109.10
  Z"
/>
<path fill="#ffffff" d="
  M 175.62 131.76
  Q 175.73 132.05 175.45 132.18
  L 175.21 132.29
  Q 175.19 132.31 175.17 132.28
  C 165.39 114.81 152.62 99.49 140.48 83.98
  C 131.25 72.19 122.54 59.14 117.40 45.31
  Q 116.59 43.12 118.12 44.88
  Q 134.70 63.90 148.56 82.94
  C 159.54 98.02 169.13 114.47 175.62 131.76
  Z"
/>
<path fill="#ffffff" d="
  M 33.56 58.25
  C 70.15 63.88 103.51 81.86 127.97 109.10
  Q 128.54 109.73 128.96 110.56
  Q 129.22 111.07 128.64 111.05
  Q 95.18 109.66 69.14 89.73
  C 61.99 84.26 55.54 77.33 48.91 70.82
  Q 41.65 63.69 33.05 59.10
  Q 32.17 58.63 33.11 58.29
  Q 33.32 58.22 33.56 58.25
  Z"
/>
<path fill="#b48d3f" d="
  M 231.88 96.87
  Q 233.10 97.03 233.44 96.52
  Q 235.09 101.03 237.15 105.37
  Q 237.50 106.11 238.08 106.50
  A 0.50 0.50 0.0 0 0 238.85 106.22
  L 241.22 97.48
  Q 241.60 98.91 242.52 98.58
  C 241.50 102.77 240.08 106.77 239.75 111.00
  Q 237.04 146.11 245.49 179.60
  Q 245.79 180.80 246.23 179.64
  Q 246.49 178.97 246.47 178.22
  Q 246.13 165.22 249.96 147.23
  C 252.99 132.98 258.36 119.58 267.06 108.40
  A 0.72 0.71 -48.5 0 1 268.13 108.33
  Q 268.61 108.83 268.58 109.53
  Q 267.00 141.74 254.55 172.52
  Q 251.62 179.77 248.04 186.45
  A 2.80 2.77 -39.4 0 0 247.82 188.55
  Q 255.62 215.07 270.22 239.09
  Q 274.30 245.81 281.57 255.50
  C 302.96 284.03 322.45 313.74 339.92 345.12
  Q 340.30 345.81 340.37 345.02
  Q 343.36 312.27 348.46 284.95
  Q 349.95 276.95 351.70 269.34
  Q 352.11 267.55 351.89 265.66
  Q 350.84 256.78 347.07 247.66
  Q 345.96 244.98 343.92 242.62
  C 335.94 233.38 332.75 218.67 332.56 206.20
  C 332.47 200.21 332.63 193.64 333.32 187.83
  Q 335.08 172.86 336.56 158.36
  Q 337.42 149.92 336.25 138.02
  C 335.92 134.67 334.81 131.40 334.10 128.12
  A 0.55 0.53 72.9 0 1 334.41 127.51
  L 334.81 127.34
  Q 335.48 127.06 335.77 127.72
  Q 352.67 166.58 347.71 209.35
  C 346.59 219.00 345.44 228.76 346.20 238.55
  Q 346.48 242.11 347.87 245.47
  Q 351.08 253.23 352.48 260.41
  Q 353.11 263.70 354.02 260.48
  Q 358.49 244.66 363.64 231.94
  Q 377.62 197.45 404.78 171.25
  L 404.78 173.74
  Q 404.57 173.70 404.44 173.70
  Q 404.33 173.70 404.25 173.78
  Q 395.33 182.23 389.24 190.27
  Q 378.15 204.92 368.28 225.70
  Q 368.22 225.82 368.21 225.96
  Q 368.18 226.24 368.34 226.32
  Q 368.82 226.52 369.13 226.10
  Q 376.73 215.66 386.03 208.02
  Q 393.43 201.93 404.75 193.68
  L 404.80 195.76
  Q 397.36 200.80 390.48 206.45
  C 378.01 216.68 367.12 228.48 361.33 243.21
  Q 357.99 251.69 354.86 262.76
  Q 349.38 282.16 346.50 305.27
  Q 346.20 307.68 347.50 305.62
  Q 351.84 298.73 357.35 293.49
  Q 364.36 286.84 371.74 280.08
  Q 380.25 272.28 383.71 261.65
  C 384.97 257.79 385.06 253.79 384.53 249.80
  Q 384.04 246.10 386.18 249.16
  Q 390.42 255.23 388.85 263.64
  C 387.48 271.01 381.93 278.00 376.59 283.54
  Q 361.04 299.68 345.94 314.26
  A 3.36 3.34 71.5 0 0 344.94 316.28
  Q 343.22 330.90 341.79 345.87
  C 341.50 348.85 342.61 349.99 343.87 352.34
  Q 371.13 403.59 387.76 462.10
  Q 387.80 462.24 387.93 462.29
  Q 388.07 462.34 388.24 462.24
  Q 388.34 462.18 388.35 462.05
  C 388.68 458.11 388.51 454.28 388.82 450.35
  Q 389.74 438.52 391.02 427.66
  C 391.47 423.83 392.38 419.94 392.83 416.06
  C 393.19 412.97 394.21 409.96 394.88 406.88
  A 1.41 1.40 -65.1 0 0 394.37 405.47
  C 384.75 398.04 380.54 385.15 378.30 372.92
  Q 376.77 364.55 375.16 354.25
  Q 372.85 339.47 365.39 327.62
  Q 364.19 325.71 361.84 323.69
  A 0.64 0.64 0.0 0 1 361.79 322.78
  L 362.00 322.53
  A 0.54 0.53 -51.0 0 1 362.70 322.45
  Q 370.65 328.02 374.79 335.98
  C 378.64 343.36 381.34 352.01 382.90 360.48
  Q 385.17 372.78 387.52 383.80
  Q 389.61 393.60 394.07 401.63
  Q 395.42 404.06 396.00 401.34
  Q 399.10 386.68 404.73 371.19
  L 404.85 378.39
  Q 402.59 381.42 401.78 385.04
  Q 400.75 389.60 400.36 390.81
  Q 399.29 394.09 398.67 397.35
  Q 398.05 400.58 397.28 403.82
  Q 396.12 408.66 395.21 413.98
  Q 394.59 417.58 394.03 421.28
  Q 392.65 430.38 391.39 439.00
  Q 390.42 445.57 390.04 466.03
  Q 389.96 470.17 390.74 473.40
  Q 391.57 476.86 392.53 480.52
  Q 398.54 503.34 403.75 540.00
  C 404.03 542.02 403.71 543.75 403.83 545.73
  Q 403.84 545.90 404.02 545.91
  L 404.52 545.94
  Q 404.78 545.95 404.78 545.69
  L 404.98 462.56
  L 405.44 458.44
  L 406.00 492.39
  L 406.00 504.49
  Q 405.27 535.82 406.00 567.14
  L 406.00 621.98
  Q 405.32 624.41 406.00 626.92
  L 406.00 631.97
  Q 405.19 644.08 406.00 656.15
  L 406.00 686.00
  L 404.96 686.00
  L 404.98 654.24
  A 0.73 0.71 -62.6 0 0 404.86 653.84
  Q 404.46 653.21 404.04 653.39
  Q 403.36 653.69 403.39 652.94
  Q 403.56 649.58 404.03 646.00
  C 404.80 640.25 405.01 633.95 404.97 628.05
  Q 404.78 603.78 404.89 579.34
  Q 404.94 569.55 404.41 561.69
  Q 403.76 552.16 402.56 544.14
  Q 402.13 541.27 401.86 538.22
  Q 401.59 535.30 401.02 532.32
  C 400.39 529.04 400.21 525.83 399.64 522.57
  Q 397.91 512.61 395.81 502.14
  A 2.58 2.56 8.3 0 0 394.48 500.37
  Q 379.29 492.37 369.41 478.32
  Q 360.12 465.12 354.93 455.68
  Q 349.12 445.12 342.84 433.52
  Q 342.36 432.64 341.55 433.23
  Q 340.49 434.00 339.14 434.41
  C 323.30 439.25 307.05 435.53 292.98 426.71
  C 284.53 421.41 276.80 415.96 266.57 415.37
  Q 263.55 415.20 259.09 416.43
  Q 258.73 416.52 258.63 416.17
  L 258.53 415.81
  A 0.81 0.81 0.0 0 1 258.99 414.84
  Q 270.41 410.02 281.74 409.87
  Q 293.68 409.70 305.06 416.24
  Q 313.94 421.34 323.65 426.65
  Q 331.79 431.10 341.38 431.83
  Q 341.86 431.87 341.63 431.45
  C 336.46 421.87 330.86 412.25 323.80 404.01
  Q 320.26 399.89 316.78 396.07
  C 309.55 388.15 299.18 381.22 288.62 377.62
  Q 286.19 376.78 284.05 376.97
  Q 268.32 378.36 253.04 375.69
  Q 242.96 373.94 235.17 368.12
  C 227.02 362.03 221.82 350.74 211.32 348.62
  Q 208.62 348.07 205.38 349.18
  A 0.55 0.55 0.0 0 1 204.65 348.67
  L 204.65 348.39
  Q 204.64 347.62 205.37 347.36
  Q 210.93 345.40 216.25 345.31
  Q 231.93 345.04 248.27 349.41
  Q 257.92 351.99 268.02 359.77
  Q 277.12 366.79 285.22 374.08
  Q 287.08 375.75 289.42 376.51
  C 298.86 379.57 307.74 385.18 314.74 392.00
  Q 316.24 393.46 315.29 391.60
  Q 309.47 380.14 311.39 367.00
  Q 312.43 359.93 312.92 352.37
  Q 313.51 343.34 311.03 336.77
  Q 309.62 333.04 305.14 328.80
  Q 304.63 328.30 304.78 327.61
  L 304.84 327.34
  A 0.32 0.31 -67.2 0 1 305.32 327.14
  Q 307.29 328.45 309.14 330.63
  Q 315.28 337.89 318.56 342.65
  Q 327.75 355.93 324.88 371.37
  C 323.09 381.04 320.94 390.05 323.29 399.81
  C 323.90 402.38 326.60 404.66 328.18 406.90
  C 337.79 420.44 344.32 433.10 352.66 449.34
  A 0.44 0.43 -24.6 0 0 353.21 449.54
  L 353.46 449.43
  Q 353.52 449.41 353.50 449.35
  Q 350.06 437.83 347.28 426.24
  Q 338.89 391.30 339.95 354.51
  C 340.02 351.84 340.99 349.93 339.58 347.37
  Q 330.24 330.35 316.27 308.22
  C 315.49 307.00 314.60 306.39 313.37 305.69
  Q 298.06 297.07 274.73 293.20
  Q 257.55 290.35 240.52 297.94
  C 226.31 304.26 214.72 312.97 202.33 322.79
  C 187.77 334.33 171.31 344.54 153.31 350.18
  A 0.83 0.82 -28.7 0 1 152.44 349.93
  Q 151.89 349.30 152.48 348.77
  C 166.44 336.10 183.36 322.10 200.67 310.67
  Q 220.25 297.75 242.10 292.84
  Q 243.84 292.45 245.34 292.45
  Q 247.08 292.45 248.68 292.04
  Q 248.95 291.98 248.86 291.72
  L 248.77 291.46
  A 1.10 1.10 0.0 0 0 247.72 290.72
  C 224.91 291.15 201.75 291.13 179.02 293.53
  C 171.31 294.34 161.47 297.71 157.87 305.19
  C 152.80 315.74 140.81 321.72 129.55 323.44
  C 118.77 325.09 107.53 324.00 96.36 323.14
  C 85.80 322.32 72.78 322.47 63.12 327.14
  A 0.53 0.53 0.0 0 1 62.40 326.87
  Q 61.87 325.70 62.90 324.95
  Q 90.82 304.75 125.67 302.99
  C 134.22 302.56 143.24 303.34 151.94 302.72
  C 154.48 302.54 157.19 301.93 159.10 300.14
  C 166.92 292.80 178.17 291.55 188.74 290.88
  Q 206.74 289.74 222.48 289.65
  Q 228.17 289.62 222.65 288.26
  C 210.94 285.37 199.96 279.62 189.13 272.64
  Q 182.71 268.49 176.15 264.71
  Q 166.57 259.18 156.57 259.01
  A 0.41 0.41 0.0 0 1 156.17 258.55
  L 156.21 258.23
  Q 156.28 257.67 156.85 257.64
  C 172.07 256.76 187.51 256.66 201.83 259.31
  C 215.70 261.86 228.55 267.95 237.90 278.60
  C 240.92 282.05 246.74 289.50 251.46 289.63
  Q 259.22 289.84 266.02 290.43
  Q 275.37 291.24 286.25 293.91
  Q 287.25 294.16 286.48 293.47
  Q 253.39 263.65 213.63 242.65
  Q 213.28 242.46 213.09 242.11
  Q 212.90 241.77 213.02 241.40
  A 0.58 0.58 0.0 0 1 213.71 241.02
  Q 244.27 248.60 268.33 269.89
  Q 281.61 281.63 289.60 293.98
  Q 290.18 294.88 291.25 295.17
  Q 302.21 298.10 312.68 303.62
  Q 313.44 304.02 312.98 303.29
  Q 274.20 242.45 220.78 187.16
  Q 219.75 186.10 218.49 186.77
  Q 218.08 186.98 217.65 187.15
  Q 199.38 194.15 185.15 197.69
  C 177.29 199.65 168.63 200.86 160.58 199.20
  Q 152.65 197.57 143.98 195.25
  C 134.57 192.74 124.07 192.02 115.64 197.66
  A 0.77 0.77 0.0 0 1 114.56 197.43
  L 114.33 197.06
  A 0.78 0.78 0.0 0 1 114.61 195.97
  C 132.93 185.70 152.57 184.72 172.93 186.22
  C 188.11 187.35 203.26 187.88 218.17 185.41
  Q 218.85 185.30 218.36 184.82
  Q 207.52 174.03 196.70 164.29
  Q 196.05 163.69 195.23 163.51
  Q 184.24 161.02 173.81 160.92
  Q 155.25 160.75 139.48 163.87
  C 127.94 166.15 116.70 169.29 105.10 171.50
  Q 76.13 177.04 46.60 178.78
  C 43.16 178.98 39.80 178.63 36.37 179.22
  Q 35.70 179.34 35.62 178.66
  A 1.01 1.00 75.5 0 1 36.23 177.61
  Q 75.70 161.13 117.39 162.80
  Q 121.11 162.95 124.67 163.45
  Q 129.65 164.15 131.55 163.71
  Q 157.97 157.65 182.94 159.60
  Q 185.34 159.79 192.97 161.34
  Q 193.68 161.49 193.13 161.01
  L 182.76 151.81
  Q 183.51 151.90 183.67 150.44
  Q 191.40 156.89 195.42 160.58
  Q 225.81 188.47 252.86 219.89
  Q 260.27 228.50 267.10 237.62
  Q 267.16 237.70 267.24 237.64
  L 267.24 237.64
  Q 267.31 237.60 267.27 237.52
  C 266.86 236.69 266.72 235.85 266.23 235.05
  C 253.38 213.77 245.17 189.32 240.77 165.26
  Q 240.16 161.92 238.44 158.91
  C 222.99 131.83 201.54 108.64 176.04 90.81
  A 0.58 0.57 35.6 0 1 175.90 90.00
  L 176.11 89.70
  Q 176.64 88.96 177.45 89.37
  Q 211.59 106.97 231.90 139.27
  Q 235.54 145.07 237.84 150.92
  Q 238.30 152.10 238.41 150.84
  Q 238.59 148.78 238.33 145.79
  Q 236.81 128.64 238.06 110.25
  Q 238.09 109.74 237.81 109.32
  Q 233.94 103.54 231.88 96.87
  Z
  M 237.19 152.78
  Q 237.26 152.67 237.21 152.55
  C 227.45 131.36 211.23 113.35 192.03 99.98
  Q 191.80 99.82 191.63 100.04
  L 191.47 100.25
  Q 191.42 100.31 191.48 100.36
  Q 199.41 107.26 205.22 112.98
  C 214.72 122.34 223.25 132.66 230.71 143.80
  Q 233.86 148.50 237.02 153.08
  Q 237.46 153.71 237.96 155.06
  Q 238.36 156.11 239.09 157.09
  Q 239.42 157.53 239.44 156.98
  Q 239.46 155.74 239.27 154.76
  Q 238.90 152.83 237.23 152.86
  Q 237.14 152.86 237.19 152.78
  Z
  M 247.30 183.56
  Q 248.81 181.77 249.35 180.58
  Q 264.12 148.53 266.62 113.66
  Q 266.77 111.54 265.52 113.26
  Q 264.71 114.38 263.99 115.60
  Q 255.24 130.34 251.52 147.24
  Q 248.69 160.07 248.35 167.88
  Q 247.88 178.65 246.85 184.30
  Q 246.84 184.40 246.94 184.40
  Q 247.01 184.40 247.07 184.36
  Q 247.21 184.28 247.15 184.13
  Q 247.10 184.03 247.12 183.92
  Q 247.16 183.72 247.30 183.56
  Z
  M 335.29 217.42
  Q 337.00 229.59 344.09 240.99
  Q 344.93 242.34 344.73 240.77
  Q 343.57 231.43 344.63 221.64
  C 345.32 215.35 345.92 209.05 346.54 202.74
  Q 349.70 170.61 338.89 139.80
  Q 338.65 139.13 338.37 138.88
  Q 337.62 138.23 337.74 139.21
  Q 338.84 149.02 338.00 158.34
  Q 336.89 170.64 335.27 183.18
  Q 332.97 200.96 335.29 217.42
  Z
  M 124.68 165.27
  Q 125.69 164.98 124.65 164.90
  Q 83.89 161.67 45.99 175.41
  Q 44.09 176.10 42.38 176.98
  Q 41.50 177.44 42.49 177.39
  Q 79.01 175.65 113.04 168.21
  Q 119.21 166.86 124.68 165.27
  Z
  M 130.56 191.04
  Q 130.25 191.12 130.17 191.42
  A 0.34 0.34 0.0 0 0 130.50 191.85
  Q 136.30 191.72 140.94 192.82
  Q 149.03 194.75 157.61 196.90
  C 167.24 199.33 176.01 198.31 185.97 195.73
  Q 196.01 193.12 207.09 189.28
  Q 209.91 188.31 206.93 188.51
  C 192.12 189.49 177.52 188.17 163.08 187.47
  Q 146.16 186.64 130.56 191.04
  Z
  M 239.18 252.11
  Q 231.48 248.25 223.07 245.14
  Q 223.01 245.12 222.99 245.17
  L 222.87 245.42
  Q 222.72 245.75 223.03 245.93
  Q 249.21 260.75 273.77 280.47
  Q 277.89 283.78 281.80 287.01
  Q 281.98 287.16 282.19 287.05
  Q 282.24 287.02 282.25 286.97
  Q 282.31 286.67 282.11 286.42
  Q 264.13 264.60 239.18 252.11
  Z
  M 387.24 255.29
  Q 386.43 252.98 386.26 255.42
  C 385.65 264.70 380.63 272.36 374.32 279.12
  C 367.35 286.60 358.68 292.60 352.52 300.87
  Q 349.43 305.02 346.82 309.52
  Q 344.81 312.96 347.82 310.34
  Q 348.57 309.69 349.27 309.01
  Q 365.22 293.62 377.30 280.97
  C 383.26 274.74 387.46 268.13 387.80 259.32
  Q 387.89 257.16 387.24 255.29
  Z
  M 168.32 258.68
  Q 166.96 258.70 168.12 259.40
  C 169.74 260.39 171.60 260.80 173.30 261.59
  C 180.62 264.95 187.60 269.89 194.39 274.16
  Q 205.93 281.41 221.50 286.39
  Q 232.70 289.98 244.93 289.07
  A 0.40 0.40 0.0 0 0 245.18 288.38
  Q 239.85 283.47 235.56 278.46
  C 219.59 259.79 191.02 258.46 168.32 258.68
  Z
  M 159.13 346.49
  C 176.23 340.04 191.83 329.23 206.45 317.67
  C 214.21 311.52 222.51 305.39 230.98 300.82
  Q 236.52 297.83 244.42 294.83
  Q 244.59 294.77 244.53 294.59
  L 244.46 294.33
  Q 244.32 293.89 243.88 293.99
  Q 223.37 298.61 205.54 309.53
  C 188.73 319.82 173.11 332.80 158.60 345.60
  Q 156.43 347.51 159.13 346.49
  Z
  M 128.90 304.60
  C 108.13 304.70 88.22 311.02 70.37 322.05
  Q 69.23 322.76 70.55 322.53
  Q 73.01 322.12 75.32 321.73
  Q 82.07 320.58 94.04 321.27
  Q 104.00 321.86 113.50 322.64
  Q 121.15 323.26 131.55 321.31
  Q 148.29 318.17 156.69 304.38
  Q 157.26 303.44 156.19 303.69
  Q 151.41 304.82 147.19 304.74
  Q 138.19 304.56 128.90 304.60
  Z
  M 370.89 334.04
  Q 375.18 344.39 376.59 354.16
  Q 378.46 367.08 380.56 376.99
  C 382.04 383.97 385.09 392.42 389.67 398.39
  Q 389.93 398.74 390.27 398.46
  Q 390.51 398.26 390.39 397.98
  Q 387.55 391.43 386.02 384.48
  C 384.60 378.04 383.38 371.62 382.29 365.14
  Q 380.56 354.85 377.10 345.02
  Q 375.31 339.92 371.41 333.44
  Q 371.38 333.38 371.32 333.41
  L 371.07 333.54
  Q 370.75 333.70 370.89 334.04
  Z
  M 323.46 370.96
  Q 325.93 358.80 319.84 347.68
  Q 316.72 341.98 313.51 338.40
  Q 313.00 337.83 313.17 338.58
  Q 314.95 346.60 314.36 352.79
  Q 313.69 359.85 312.77 367.25
  Q 310.71 383.96 320.55 397.54
  Q 321.52 398.87 321.28 397.24
  Q 320.70 393.31 320.69 390.08
  C 320.66 384.80 322.02 379.51 322.85 374.30
  Q 323.12 372.61 323.46 370.96
  Z
  M 283.88 374.83
  C 271.98 364.37 259.84 353.11 243.80 349.84
  Q 231.56 347.35 220.24 346.76
  Q 217.37 346.61 214.49 347.01
  Q 212.40 347.31 214.39 348.01
  C 223.65 351.29 228.19 360.39 234.88 365.94
  Q 243.00 372.67 254.68 374.49
  Q 268.45 376.65 283.58 375.72
  Q 284.81 375.65 283.88 374.83
  Z
  M 388.39 469.84
  C 387.79 467.38 386.86 465.06 386.20 462.67
  Q 370.31 404.82 342.02 351.85
  Q 341.55 350.97 341.50 351.96
  Q 339.70 387.13 348.48 425.01
  Q 351.53 438.18 355.19 451.09
  Q 356.44 455.47 358.83 459.48
  C 367.93 474.75 377.88 490.57 394.62 498.53
  A 0.36 0.36 0.0 0 0 395.12 498.13
  Q 392.41 486.33 388.39 469.84
  Z
  M 337.31 432.57
  Q 328.26 431.23 321.00 427.10
  Q 313.32 422.75 304.44 417.66
  Q 288.19 408.35 270.16 412.95
  Q 267.20 413.71 270.21 414.17
  C 279.90 415.66 289.01 422.48 297.47 427.53
  Q 311.78 436.06 328.55 434.94
  C 331.60 434.74 334.51 434.35 337.39 433.41
  Q 339.14 432.84 337.31 432.57
  Z"
/>
<path fill="#ffffff" d="
  M 237.23 152.86
  Q 238.90 152.83 239.27 154.76
  Q 239.46 155.74 239.44 156.98
  Q 239.42 157.53 239.09 157.09
  Q 238.36 156.11 237.96 155.06
  Q 237.46 153.71 237.02 153.08
  Q 233.86 148.50 230.71 143.80
  C 223.25 132.66 214.72 122.34 205.22 112.98
  Q 199.41 107.26 191.48 100.36
  Q 191.42 100.31 191.47 100.25
  L 191.63 100.04
  Q 191.80 99.82 192.03 99.98
  C 211.23 113.35 227.45 131.36 237.21 152.55
  Q 237.26 152.67 237.19 152.78
  Q 237.14 152.86 237.23 152.86
  Z"
/>
<path fill="#ffffff" d="
  M 247.12 183.92
  Q 247.10 184.03 247.15 184.13
  Q 247.21 184.28 247.07 184.36
  Q 247.01 184.40 246.94 184.40
  Q 246.84 184.40 246.85 184.30
  Q 247.88 178.65 248.35 167.88
  Q 248.69 160.07 251.52 147.24
  Q 255.24 130.34 263.99 115.60
  Q 264.71 114.38 265.52 113.26
  Q 266.77 111.54 266.62 113.66
  Q 264.12 148.53 249.35 180.58
  Q 248.81 181.77 247.30 183.56
  Q 247.16 183.72 247.12 183.92
  Z"
/>
<path fill="#ffffff" d="
  M 335.29 217.42
  Q 332.97 200.96 335.27 183.18
  Q 336.89 170.64 338.00 158.34
  Q 338.84 149.02 337.74 139.21
  Q 337.62 138.23 338.37 138.88
  Q 338.65 139.13 338.89 139.80
  Q 349.70 170.61 346.54 202.74
  C 345.92 209.05 345.32 215.35 344.63 221.64
  Q 343.57 231.43 344.73 240.77
  Q 344.93 242.34 344.09 240.99
  Q 337.00 229.59 335.29 217.42
  Z"
/>
<path fill="#ffffff" d="
  M 124.68 165.27
  Q 119.21 166.86 113.04 168.21
  Q 79.01 175.65 42.49 177.39
  Q 41.50 177.44 42.38 176.98
  Q 44.09 176.10 45.99 175.41
  Q 83.89 161.67 124.65 164.90
  Q 125.69 164.98 124.68 165.27
  Z"
/>
<path fill="#ffffff" d="
  M 404.78 173.74
  L 404.75 193.68
  Q 393.43 201.93 386.03 208.02
  Q 376.73 215.66 369.13 226.10
  Q 368.82 226.52 368.34 226.32
  Q 368.18 226.24 368.21 225.96
  Q 368.22 225.82 368.28 225.70
  Q 378.15 204.92 389.24 190.27
  Q 395.33 182.23 404.25 173.78
  Q 404.33 173.70 404.44 173.70
  Q 404.57 173.70 404.78 173.74
  Z"
/>
<path fill="#ffffff" d="
  M 130.56 191.04
  Q 146.16 186.64 163.08 187.47
  C 177.52 188.17 192.12 189.49 206.93 188.51
  Q 209.91 188.31 207.09 189.28
  Q 196.01 193.12 185.97 195.73
  C 176.01 198.31 167.24 199.33 157.61 196.90
  Q 149.03 194.75 140.94 192.82
  Q 136.30 191.72 130.50 191.85
  A 0.34 0.34 0.0 0 1 130.17 191.42
  Q 130.25 191.12 130.56 191.04
  Z"
/>
<path fill="#ffffff" d="
  M 404.80 195.76
  L 404.73 371.19
  Q 399.10 386.68 396.00 401.34
  Q 395.42 404.06 394.07 401.63
  Q 389.61 393.60 387.52 383.80
  Q 385.17 372.78 382.90 360.48
  C 381.34 352.01 378.64 343.36 374.79 335.98
  Q 370.65 328.02 362.70 322.45
  A 0.54 0.53 -51.0 0 0 362.00 322.53
  L 361.79 322.78
  A 0.64 0.64 0.0 0 0 361.84 323.69
  Q 364.19 325.71 365.39 327.62
  Q 372.85 339.47 375.16 354.25
  Q 376.77 364.55 378.30 372.92
  C 380.54 385.15 384.75 398.04 394.37 405.47
  A 1.41 1.40 -65.1 0 1 394.88 406.88
  C 394.21 409.96 393.19 412.97 392.83 416.06
  C 392.38 419.94 391.47 423.83 391.02 427.66
  Q 389.74 438.52 388.82 450.35
  C 388.51 454.28 388.68 458.11 388.35 462.05
  Q 388.34 462.18 388.24 462.24
  Q 388.07 462.34 387.93 462.29
  Q 387.80 462.24 387.76 462.10
  Q 371.13 403.59 343.87 352.34
  C 342.61 349.99 341.50 348.85 341.79 345.87
  Q 343.22 330.90 344.94 316.28
  A 3.36 3.34 71.5 0 1 345.94 314.26
  Q 361.04 299.68 376.59 283.54
  C 381.93 278.00 387.48 271.01 388.85 263.64
  Q 390.42 255.23 386.18 249.16
  Q 384.04 246.10 384.53 249.80
  C 385.06 253.79 384.97 257.79 383.71 261.65
  Q 380.25 272.28 371.74 280.08
  Q 364.36 286.84 357.35 293.49
  Q 351.84 298.73 347.50 305.62
  Q 346.20 307.68 346.50 305.27
  Q 349.38 282.16 354.86 262.76
  Q 357.99 251.69 361.33 243.21
  C 367.12 228.48 378.01 216.68 390.48 206.45
  Q 397.36 200.80 404.80 195.76
  Z"
/>
<path fill="#ffffff" d="
  M 239.18 252.11
  Q 264.13 264.60 282.11 286.42
  Q 282.31 286.67 282.25 286.97
  Q 282.24 287.02 282.19 287.05
  Q 281.98 287.16 281.80 287.01
  Q 277.89 283.78 273.77 280.47
  Q 249.21 260.75 223.03 245.93
  Q 222.72 245.75 222.87 245.42
  L 222.99 245.17
  Q 223.01 245.12 223.07 245.14
  Q 231.48 248.25 239.18 252.11
  Z"
/>
<path fill="#ffffff" d="
  M 387.24 255.29
  Q 387.89 257.16 387.80 259.32
  C 387.46 268.13 383.26 274.74 377.30 280.97
  Q 365.22 293.62 349.27 309.01
  Q 348.57 309.69 347.82 310.34
  Q 344.81 312.96 346.82 309.52
  Q 349.43 305.02 352.52 300.87
  C 358.68 292.60 367.35 286.60 374.32 279.12
  C 380.63 272.36 385.65 264.70 386.26 255.42
  Q 386.43 252.98 387.24 255.29
  Z"
/>
<path fill="#ffffff" d="
  M 168.32 258.68
  C 191.02 258.46 219.59 259.79 235.56 278.46
  Q 239.85 283.47 245.18 288.38
  A 0.40 0.40 0.0 0 1 244.93 289.07
  Q 232.70 289.98 221.50 286.39
  Q 205.93 281.41 194.39 274.16
  C 187.60 269.89 180.62 264.95 173.30 261.59
  C 171.60 260.80 169.74 260.39 168.12 259.40
  Q 166.96 258.70 168.32 258.68
  Z"
/>
<path fill="#ffffff" d="
  M 206.45 317.67
  C 191.83 329.23 176.23 340.04 159.13 346.49
  Q 156.43 347.51 158.60 345.60
  C 173.11 332.80 188.73 319.82 205.54 309.53
  Q 223.37 298.61 243.88 293.99
  Q 244.32 293.89 244.46 294.33
  L 244.53 294.59
  Q 244.59 294.77 244.42 294.83
  Q 236.52 297.83 230.98 300.82
  C 222.51 305.39 214.21 311.52 206.45 317.67
  Z"
/>
<path fill="#ffffff" d="
  M 70.37 322.05
  C 88.22 311.02 108.13 304.70 128.90 304.60
  Q 138.19 304.56 147.19 304.74
  Q 151.41 304.82 156.19 303.69
  Q 157.26 303.44 156.69 304.38
  Q 148.29 318.17 131.55 321.31
  Q 121.15 323.26 113.50 322.64
  Q 104.00 321.86 94.04 321.27
  Q 82.07 320.58 75.32 321.73
  Q 73.01 322.12 70.55 322.53
  Q 69.23 322.76 70.37 322.05
  Z"
/>
<path fill="#ffffff" d="
  M 370.89 334.04
  Q 370.75 333.70 371.07 333.54
  L 371.32 333.41
  Q 371.38 333.38 371.41 333.44
  Q 375.31 339.92 377.10 345.02
  Q 380.56 354.85 382.29 365.14
  C 383.38 371.62 384.60 378.04 386.02 384.48
  Q 387.55 391.43 390.39 397.98
  Q 390.51 398.26 390.27 398.46
  Q 389.93 398.74 389.67 398.39
  C 385.09 392.42 382.04 383.97 380.56 376.99
  Q 378.46 367.08 376.59 354.16
  Q 375.18 344.39 370.89 334.04
  Z"
/>
<path fill="#ffffff" d="
  M 322.85 374.30
  C 322.02 379.51 320.66 384.80 320.69 390.08
  Q 320.70 393.31 321.28 397.24
  Q 321.52 398.87 320.55 397.54
  Q 310.71 383.96 312.77 367.25
  Q 313.69 359.85 314.36 352.79
  Q 314.95 346.60 313.17 338.58
  Q 313.00 337.83 313.51 338.40
  Q 316.72 341.98 319.84 347.68
  Q 325.93 358.80 323.46 370.96
  Q 323.12 372.61 322.85 374.30
  Z"
/>
<path fill="#ffffff" d="
  M 243.80 349.84
  C 259.84 353.11 271.98 364.37 283.88 374.83
  Q 284.81 375.65 283.58 375.72
  Q 268.45 376.65 254.68 374.49
  Q 243.00 372.67 234.88 365.94
  C 228.19 360.39 223.65 351.29 214.39 348.01
  Q 212.40 347.31 214.49 347.01
  Q 217.37 346.61 220.24 346.76
  Q 231.56 347.35 243.80 349.84
  Z"
/>
<path fill="#ffffff" d="
  M 388.39 469.84
  Q 392.41 486.33 395.12 498.13
  A 0.36 0.36 0.0 0 1 394.62 498.53
  C 377.88 490.57 367.93 474.75 358.83 459.48
  Q 356.44 455.47 355.19 451.09
  Q 351.53 438.18 348.48 425.01
  Q 339.70 387.13 341.50 351.96
  Q 341.55 350.97 342.02 351.85
  Q 370.31 404.82 386.20 462.67
  C 386.86 465.06 387.79 467.38 388.39 469.84
  Z"
/>
<path fill="#ffffff" d="
  M 406.00 371.62
  L 406.00 378.51
  L 406.00 371.62
  Z"
/>
<path fill="#ffffff" d="
  M 404.85 378.39
  L 404.98 462.56
  L 404.78 545.69
  Q 404.78 545.95 404.52 545.94
  L 404.02 545.91
  Q 403.84 545.90 403.83 545.73
  C 403.71 543.75 404.03 542.02 403.75 540.00
  Q 398.54 503.34 392.53 480.52
  Q 391.57 476.86 390.74 473.40
  Q 389.96 470.17 390.04 466.03
  Q 390.42 445.57 391.39 439.00
  Q 392.65 430.38 394.03 421.28
  Q 394.59 417.58 395.21 413.98
  Q 396.12 408.66 397.28 403.82
  Q 398.05 400.58 398.67 397.35
  Q 399.29 394.09 400.36 390.81
  Q 400.75 389.60 401.78 385.04
  Q 402.59 381.42 404.85 378.39
  Z"
/>
<path fill="#ffffff" d="
  M 337.39 433.41
  C 334.51 434.35 331.60 434.74 328.55 434.94
  Q 311.78 436.06 297.47 427.53
  C 289.01 422.48 279.90 415.66 270.21 414.17
  Q 267.20 413.71 270.16 412.95
  Q 288.19 408.35 304.44 417.66
  Q 313.32 422.75 321.00 427.10
  Q 328.26 431.23 337.31 432.57
  Q 339.14 432.84 337.39 433.41
  Z"
/>
<path fill="#ffffff" d="
  M 406.00 456.79
  L 406.00 492.39
  L 405.44 458.44
  L 406.00 456.79
  Z"
/>
<path fill="#ffffff" d="
  M 406.00 504.49
  L 406.00 567.14
  Q 405.27 535.82 406.00 504.49
  Z"
/>
<path fill="#ffffff" d="
  M 406.00 621.98
  L 406.00 626.92
  Q 405.32 624.41 406.00 621.98
  Z"
/>
<path fill="#ffffff" d="
  M 406.00 631.97
  L 406.00 656.15
  Q 405.19 644.08 406.00 631.97
  Z"
/>
</svg>
